G04 #@! TF.GenerationSoftware,KiCad,Pcbnew,(5.1.4)-1*
G04 #@! TF.CreationDate,2020-03-01T22:40:11-05:00*
G04 #@! TF.ProjectId,FPVRaceTimer,46505652-6163-4655-9469-6d65722e6b69,rev?*
G04 #@! TF.SameCoordinates,Original*
G04 #@! TF.FileFunction,Legend,Top*
G04 #@! TF.FilePolarity,Positive*
%FSLAX46Y46*%
G04 Gerber Fmt 4.6, Leading zero omitted, Abs format (unit mm)*
G04 Created by KiCad (PCBNEW (5.1.4)-1) date 2020-03-01 22:40:11*
%MOMM*%
%LPD*%
G04 APERTURE LIST*
%ADD10C,0.150000*%
%ADD11C,0.120000*%
G04 APERTURE END LIST*
D10*
X57054785Y-76938714D02*
X57054785Y-77605380D01*
X56816690Y-76557761D02*
X56578595Y-77272047D01*
X57197642Y-77272047D01*
X57530976Y-77557761D02*
X57673833Y-77605380D01*
X57911928Y-77605380D01*
X58007166Y-77557761D01*
X58054785Y-77510142D01*
X58102404Y-77414904D01*
X58102404Y-77319666D01*
X58054785Y-77224428D01*
X58007166Y-77176809D01*
X57911928Y-77129190D01*
X57721452Y-77081571D01*
X57626214Y-77033952D01*
X57578595Y-76986333D01*
X57530976Y-76891095D01*
X57530976Y-76795857D01*
X57578595Y-76700619D01*
X57626214Y-76653000D01*
X57721452Y-76605380D01*
X57959547Y-76605380D01*
X58102404Y-76653000D01*
X56602404Y-78731571D02*
X56745261Y-78779190D01*
X56792880Y-78826809D01*
X56840500Y-78922047D01*
X56840500Y-79064904D01*
X56792880Y-79160142D01*
X56745261Y-79207761D01*
X56650023Y-79255380D01*
X56269071Y-79255380D01*
X56269071Y-78255380D01*
X56602404Y-78255380D01*
X56697642Y-78303000D01*
X56745261Y-78350619D01*
X56792880Y-78445857D01*
X56792880Y-78541095D01*
X56745261Y-78636333D01*
X56697642Y-78683952D01*
X56602404Y-78731571D01*
X56269071Y-78731571D01*
X57221452Y-78969666D02*
X57697642Y-78969666D01*
X57126214Y-79255380D02*
X57459547Y-78255380D01*
X57792880Y-79255380D01*
X57983357Y-78255380D02*
X58554785Y-78255380D01*
X58269071Y-79255380D02*
X58269071Y-78255380D01*
X61158595Y-76604880D02*
X61158595Y-77414404D01*
X61206214Y-77509642D01*
X61253833Y-77557261D01*
X61349071Y-77604880D01*
X61539547Y-77604880D01*
X61634785Y-77557261D01*
X61682404Y-77509642D01*
X61730023Y-77414404D01*
X61730023Y-76604880D01*
X62158595Y-77557261D02*
X62301452Y-77604880D01*
X62539547Y-77604880D01*
X62634785Y-77557261D01*
X62682404Y-77509642D01*
X62730023Y-77414404D01*
X62730023Y-77319166D01*
X62682404Y-77223928D01*
X62634785Y-77176309D01*
X62539547Y-77128690D01*
X62349071Y-77081071D01*
X62253833Y-77033452D01*
X62206214Y-76985833D01*
X62158595Y-76890595D01*
X62158595Y-76795357D01*
X62206214Y-76700119D01*
X62253833Y-76652500D01*
X62349071Y-76604880D01*
X62587166Y-76604880D01*
X62730023Y-76652500D01*
X63730023Y-77604880D02*
X63396690Y-77128690D01*
X63158595Y-77604880D02*
X63158595Y-76604880D01*
X63539547Y-76604880D01*
X63634785Y-76652500D01*
X63682404Y-76700119D01*
X63730023Y-76795357D01*
X63730023Y-76938214D01*
X63682404Y-77033452D01*
X63634785Y-77081071D01*
X63539547Y-77128690D01*
X63158595Y-77128690D01*
X51450976Y-76668880D02*
X52070023Y-76668880D01*
X51736690Y-77049833D01*
X51879547Y-77049833D01*
X51974785Y-77097452D01*
X52022404Y-77145071D01*
X52070023Y-77240309D01*
X52070023Y-77478404D01*
X52022404Y-77573642D01*
X51974785Y-77621261D01*
X51879547Y-77668880D01*
X51593833Y-77668880D01*
X51498595Y-77621261D01*
X51450976Y-77573642D01*
X52450976Y-77621261D02*
X52593833Y-77668880D01*
X52831928Y-77668880D01*
X52927166Y-77621261D01*
X52974785Y-77573642D01*
X53022404Y-77478404D01*
X53022404Y-77383166D01*
X52974785Y-77287928D01*
X52927166Y-77240309D01*
X52831928Y-77192690D01*
X52641452Y-77145071D01*
X52546214Y-77097452D01*
X52498595Y-77049833D01*
X52450976Y-76954595D01*
X52450976Y-76859357D01*
X52498595Y-76764119D01*
X52546214Y-76716500D01*
X52641452Y-76668880D01*
X52879547Y-76668880D01*
X53022404Y-76716500D01*
X51522404Y-78795071D02*
X51665261Y-78842690D01*
X51712880Y-78890309D01*
X51760500Y-78985547D01*
X51760500Y-79128404D01*
X51712880Y-79223642D01*
X51665261Y-79271261D01*
X51570023Y-79318880D01*
X51189071Y-79318880D01*
X51189071Y-78318880D01*
X51522404Y-78318880D01*
X51617642Y-78366500D01*
X51665261Y-78414119D01*
X51712880Y-78509357D01*
X51712880Y-78604595D01*
X51665261Y-78699833D01*
X51617642Y-78747452D01*
X51522404Y-78795071D01*
X51189071Y-78795071D01*
X52141452Y-79033166D02*
X52617642Y-79033166D01*
X52046214Y-79318880D02*
X52379547Y-78318880D01*
X52712880Y-79318880D01*
X52903357Y-78318880D02*
X53474785Y-78318880D01*
X53189071Y-79318880D02*
X53189071Y-78318880D01*
X24292583Y-118659660D02*
X23816393Y-118659660D01*
X23768774Y-119135851D01*
X23816393Y-119088232D01*
X23911631Y-119040613D01*
X24149726Y-119040613D01*
X24244964Y-119088232D01*
X24292583Y-119135851D01*
X24340202Y-119231089D01*
X24340202Y-119469184D01*
X24292583Y-119564422D01*
X24244964Y-119612041D01*
X24149726Y-119659660D01*
X23911631Y-119659660D01*
X23816393Y-119612041D01*
X23768774Y-119564422D01*
X24625917Y-118659660D02*
X24959250Y-119659660D01*
X25292583Y-118659660D01*
X23328784Y-116589560D02*
X23947832Y-116589560D01*
X23614499Y-116970513D01*
X23757356Y-116970513D01*
X23852594Y-117018132D01*
X23900213Y-117065751D01*
X23947832Y-117160989D01*
X23947832Y-117399084D01*
X23900213Y-117494322D01*
X23852594Y-117541941D01*
X23757356Y-117589560D01*
X23471641Y-117589560D01*
X23376403Y-117541941D01*
X23328784Y-117494322D01*
X24233546Y-116589560D02*
X24566880Y-117589560D01*
X24900213Y-116589560D01*
X25138308Y-116589560D02*
X25757356Y-116589560D01*
X25424022Y-116970513D01*
X25566880Y-116970513D01*
X25662118Y-117018132D01*
X25709737Y-117065751D01*
X25757356Y-117160989D01*
X25757356Y-117399084D01*
X25709737Y-117494322D01*
X25662118Y-117541941D01*
X25566880Y-117589560D01*
X25281165Y-117589560D01*
X25185927Y-117541941D01*
X25138308Y-117494322D01*
D11*
X25652800Y-109141522D02*
X25652800Y-109658678D01*
X24232800Y-109141522D02*
X24232800Y-109658678D01*
X31544522Y-117118200D02*
X32061678Y-117118200D01*
X31544522Y-115698200D02*
X32061678Y-115698200D01*
X37387600Y-115904778D02*
X37387600Y-115387622D01*
X35967600Y-115904778D02*
X35967600Y-115387622D01*
X26920718Y-105472300D02*
X26403562Y-105472300D01*
X26920718Y-104052300D02*
X26403562Y-104052300D01*
X36422400Y-103248722D02*
X36422400Y-103765878D01*
X35002400Y-103248722D02*
X35002400Y-103765878D01*
X26722000Y-101798622D02*
X26722000Y-102315778D01*
X28142000Y-101798622D02*
X28142000Y-102315778D01*
X58828140Y-74962080D02*
X56543140Y-74962080D01*
X58828140Y-76432080D02*
X58828140Y-74962080D01*
X56543140Y-76432080D02*
X58828140Y-76432080D01*
X53098600Y-74921440D02*
X50813600Y-74921440D01*
X50813600Y-74921440D02*
X50813600Y-76391440D01*
X50813600Y-76391440D02*
X53098600Y-76391440D01*
X26005320Y-119840680D02*
X28290320Y-119840680D01*
X26005320Y-118370680D02*
X26005320Y-119840680D01*
X28290320Y-118370680D02*
X26005320Y-118370680D01*
X28295500Y-116308200D02*
X26010500Y-116308200D01*
X26010500Y-116308200D02*
X26010500Y-117778200D01*
X26010500Y-117778200D02*
X28295500Y-117778200D01*
X33839564Y-121052000D02*
X32635436Y-121052000D01*
X33839564Y-119232000D02*
X32635436Y-119232000D01*
X61070800Y-138515400D02*
X59740800Y-138515400D01*
X61070800Y-137185400D02*
X61070800Y-138515400D01*
X61070800Y-135915400D02*
X58410800Y-135915400D01*
X58410800Y-135915400D02*
X58410800Y-133315400D01*
X61070800Y-135915400D02*
X61070800Y-133315400D01*
X61070800Y-133315400D02*
X58410800Y-133315400D01*
X72246800Y-133340800D02*
X69586800Y-133340800D01*
X72246800Y-135940800D02*
X72246800Y-133340800D01*
X69586800Y-135940800D02*
X69586800Y-133340800D01*
X72246800Y-135940800D02*
X69586800Y-135940800D01*
X72246800Y-137210800D02*
X72246800Y-138540800D01*
X72246800Y-138540800D02*
X70916800Y-138540800D01*
X66912800Y-133290000D02*
X64252800Y-133290000D01*
X66912800Y-135890000D02*
X66912800Y-133290000D01*
X64252800Y-135890000D02*
X64252800Y-133290000D01*
X66912800Y-135890000D02*
X64252800Y-135890000D01*
X66912800Y-137160000D02*
X66912800Y-138490000D01*
X66912800Y-138490000D02*
X65582800Y-138490000D01*
X29573800Y-112083352D02*
X29573800Y-109310848D01*
X26153800Y-112083352D02*
X26153800Y-109310848D01*
X32228100Y-101708448D02*
X32228100Y-104480952D01*
X28808100Y-101708448D02*
X28808100Y-104480952D01*
X32917200Y-85030052D02*
X32917200Y-84507548D01*
X31497200Y-85030052D02*
X31497200Y-84507548D01*
X31522600Y-80988692D02*
X31522600Y-80466188D01*
X32942600Y-80988692D02*
X32942600Y-80466188D01*
X26546880Y-89025252D02*
X26546880Y-88502748D01*
X25126880Y-89025252D02*
X25126880Y-88502748D01*
X28491548Y-88517800D02*
X29014052Y-88517800D01*
X28491548Y-87097800D02*
X29014052Y-87097800D01*
X29922212Y-74976920D02*
X29399708Y-74976920D01*
X29922212Y-76396920D02*
X29399708Y-76396920D01*
X29407108Y-77044480D02*
X29929612Y-77044480D01*
X29407108Y-78464480D02*
X29929612Y-78464480D01*
X35492948Y-107136000D02*
X36015452Y-107136000D01*
X35492948Y-105716000D02*
X36015452Y-105716000D01*
X34339600Y-103319948D02*
X34339600Y-103842452D01*
X32919600Y-103319948D02*
X32919600Y-103842452D01*
X30530480Y-82890920D02*
X30530480Y-80940920D01*
X30530480Y-82890920D02*
X30530480Y-84840920D01*
X25410480Y-82890920D02*
X25410480Y-80940920D01*
X25410480Y-82890920D02*
X25410480Y-86340920D01*
X63317020Y-74857940D02*
X61032020Y-74857940D01*
X61032020Y-74857940D02*
X61032020Y-76327940D01*
X61032020Y-76327940D02*
X63317020Y-76327940D01*
X27221264Y-96372000D02*
X26017136Y-96372000D01*
X27221264Y-98192000D02*
X26017136Y-98192000D01*
X34742800Y-98342036D02*
X34742800Y-99546164D01*
X32922800Y-98342036D02*
X32922800Y-99546164D01*
X30506000Y-138616000D02*
X33106000Y-135766000D01*
X24806000Y-135766000D02*
X27356000Y-138616000D01*
X33106000Y-122916000D02*
X24806000Y-122916000D01*
X33106000Y-135766000D02*
X33106000Y-122916000D01*
X27356000Y-138616000D02*
X30506000Y-138616000D01*
X24806000Y-122916000D02*
X24806000Y-135766000D01*
X34322652Y-87692160D02*
X33800148Y-87692160D01*
X34322652Y-89112160D02*
X33800148Y-89112160D01*
X36582280Y-91443332D02*
X36582280Y-90920828D01*
X38002280Y-91443332D02*
X38002280Y-90920828D01*
X46125200Y-135906252D02*
X46125200Y-135383748D01*
X44705200Y-135906252D02*
X44705200Y-135383748D01*
X105685000Y-121273156D02*
X105685000Y-122477284D01*
X103865000Y-121273156D02*
X103865000Y-122477284D01*
X39135640Y-119413104D02*
X39135640Y-118208976D01*
X40955640Y-119413104D02*
X40955640Y-118208976D01*
X105611340Y-93795436D02*
X105611340Y-94999564D01*
X103791340Y-93795436D02*
X103791340Y-94999564D01*
X41301080Y-91528984D02*
X41301080Y-90324856D01*
X39481080Y-91528984D02*
X39481080Y-90324856D01*
X76094900Y-79216560D02*
X70894900Y-79216560D01*
X76094900Y-74016560D02*
X70894900Y-74016560D01*
X77534900Y-78646560D02*
X76094900Y-78646560D01*
X76094900Y-79216560D02*
X76094900Y-78646560D01*
X70894900Y-79216560D02*
X70894900Y-78646560D01*
X76094900Y-74586560D02*
X76094900Y-74016560D01*
X70894900Y-74586560D02*
X70894900Y-74016560D01*
X76094900Y-77126560D02*
X76094900Y-76106560D01*
X70894900Y-77126560D02*
X70894900Y-76106560D01*
X82924200Y-135071200D02*
X82924200Y-133471200D01*
X82924200Y-133471200D02*
X81124200Y-133471200D01*
X81124200Y-133471200D02*
X81124200Y-132531200D01*
X74454200Y-135071200D02*
X74454200Y-133471200D01*
X74454200Y-133471200D02*
X76254200Y-133471200D01*
X81654200Y-137941200D02*
X75724200Y-137941200D01*
X34072760Y-77425292D02*
X34072760Y-76902788D01*
X35492760Y-77425292D02*
X35492760Y-76902788D01*
X40633720Y-112402252D02*
X40633720Y-111879748D01*
X39213720Y-112402252D02*
X39213720Y-111879748D01*
X48558400Y-133475200D02*
X55378400Y-133475200D01*
X48558400Y-137695200D02*
X55378400Y-137695200D01*
X48558400Y-133475200D02*
X48558400Y-134785200D01*
X48558400Y-136385200D02*
X48558400Y-137695200D01*
X55378400Y-133475200D02*
X55378400Y-134785200D01*
X55378400Y-136385200D02*
X55378400Y-137695200D01*
X48318400Y-133235200D02*
X49701400Y-133235200D01*
X48318400Y-133235200D02*
X48318400Y-134618200D01*
X50158400Y-134950200D02*
X50158400Y-136220200D01*
X50158400Y-136220200D02*
X53778400Y-136220200D01*
X53778400Y-136220200D02*
X53778400Y-134950200D01*
X53778400Y-134950200D02*
X50158400Y-134950200D01*
X50158400Y-135070200D02*
X51365067Y-135070200D01*
X50158400Y-135190200D02*
X51365067Y-135190200D01*
X50158400Y-135310200D02*
X51365067Y-135310200D01*
X50158400Y-135430200D02*
X51365067Y-135430200D01*
X50158400Y-135550200D02*
X51365067Y-135550200D01*
X50158400Y-135670200D02*
X51365067Y-135670200D01*
X50158400Y-135790200D02*
X51365067Y-135790200D01*
X50158400Y-135910200D02*
X51365067Y-135910200D01*
X50158400Y-136030200D02*
X51365067Y-136030200D01*
X50158400Y-136150200D02*
X51365067Y-136150200D01*
X51365067Y-134950200D02*
X51365067Y-136220200D01*
X34716280Y-89616680D02*
X32916280Y-89616680D01*
X32916280Y-92836680D02*
X35366280Y-92836680D01*
X35427600Y-111201200D02*
X35427600Y-109251200D01*
X35427600Y-111201200D02*
X35427600Y-113151200D01*
X30307600Y-111201200D02*
X30307600Y-109251200D01*
X30307600Y-111201200D02*
X30307600Y-114651200D01*
D10*
X96774095Y-101242880D02*
X96774095Y-102052404D01*
X96821714Y-102147642D01*
X96869333Y-102195261D01*
X96964571Y-102242880D01*
X97155047Y-102242880D01*
X97250285Y-102195261D01*
X97297904Y-102147642D01*
X97345523Y-102052404D01*
X97345523Y-101242880D01*
X97774095Y-101338119D02*
X97821714Y-101290500D01*
X97916952Y-101242880D01*
X98155047Y-101242880D01*
X98250285Y-101290500D01*
X98297904Y-101338119D01*
X98345523Y-101433357D01*
X98345523Y-101528595D01*
X98297904Y-101671452D01*
X97726476Y-102242880D01*
X98345523Y-102242880D01*
X24674533Y-112112062D02*
X24626914Y-112159681D01*
X24484057Y-112207300D01*
X24388819Y-112207300D01*
X24245961Y-112159681D01*
X24150723Y-112064443D01*
X24103104Y-111969205D01*
X24055485Y-111778729D01*
X24055485Y-111635872D01*
X24103104Y-111445396D01*
X24150723Y-111350158D01*
X24245961Y-111254920D01*
X24388819Y-111207300D01*
X24484057Y-111207300D01*
X24626914Y-111254920D01*
X24674533Y-111302539D01*
X25531676Y-111540634D02*
X25531676Y-112207300D01*
X25293580Y-111159681D02*
X25055485Y-111873967D01*
X25674533Y-111873967D01*
X31662073Y-118355382D02*
X31614454Y-118403001D01*
X31471597Y-118450620D01*
X31376359Y-118450620D01*
X31233501Y-118403001D01*
X31138263Y-118307763D01*
X31090644Y-118212525D01*
X31043025Y-118022049D01*
X31043025Y-117879192D01*
X31090644Y-117688716D01*
X31138263Y-117593478D01*
X31233501Y-117498240D01*
X31376359Y-117450620D01*
X31471597Y-117450620D01*
X31614454Y-117498240D01*
X31662073Y-117545859D01*
X32566835Y-117450620D02*
X32090644Y-117450620D01*
X32043025Y-117926811D01*
X32090644Y-117879192D01*
X32185882Y-117831573D01*
X32423978Y-117831573D01*
X32519216Y-117879192D01*
X32566835Y-117926811D01*
X32614454Y-118022049D01*
X32614454Y-118260144D01*
X32566835Y-118355382D01*
X32519216Y-118403001D01*
X32423978Y-118450620D01*
X32185882Y-118450620D01*
X32090644Y-118403001D01*
X32043025Y-118355382D01*
X35726642Y-115858586D02*
X35774261Y-115906205D01*
X35821880Y-116049062D01*
X35821880Y-116144300D01*
X35774261Y-116287158D01*
X35679023Y-116382396D01*
X35583785Y-116430015D01*
X35393309Y-116477634D01*
X35250452Y-116477634D01*
X35059976Y-116430015D01*
X34964738Y-116382396D01*
X34869500Y-116287158D01*
X34821880Y-116144300D01*
X34821880Y-116049062D01*
X34869500Y-115906205D01*
X34917119Y-115858586D01*
X34821880Y-115001443D02*
X34821880Y-115191920D01*
X34869500Y-115287158D01*
X34917119Y-115334777D01*
X35059976Y-115430015D01*
X35250452Y-115477634D01*
X35631404Y-115477634D01*
X35726642Y-115430015D01*
X35774261Y-115382396D01*
X35821880Y-115287158D01*
X35821880Y-115096681D01*
X35774261Y-115001443D01*
X35726642Y-114953824D01*
X35631404Y-114906205D01*
X35393309Y-114906205D01*
X35298071Y-114953824D01*
X35250452Y-115001443D01*
X35202833Y-115096681D01*
X35202833Y-115287158D01*
X35250452Y-115382396D01*
X35298071Y-115430015D01*
X35393309Y-115477634D01*
X26495473Y-106769442D02*
X26447854Y-106817061D01*
X26304997Y-106864680D01*
X26209759Y-106864680D01*
X26066901Y-106817061D01*
X25971663Y-106721823D01*
X25924044Y-106626585D01*
X25876425Y-106436109D01*
X25876425Y-106293252D01*
X25924044Y-106102776D01*
X25971663Y-106007538D01*
X26066901Y-105912300D01*
X26209759Y-105864680D01*
X26304997Y-105864680D01*
X26447854Y-105912300D01*
X26495473Y-105959919D01*
X26828806Y-105864680D02*
X27495473Y-105864680D01*
X27066901Y-106864680D01*
X39092142Y-104179666D02*
X39139761Y-104227285D01*
X39187380Y-104370142D01*
X39187380Y-104465380D01*
X39139761Y-104608238D01*
X39044523Y-104703476D01*
X38949285Y-104751095D01*
X38758809Y-104798714D01*
X38615952Y-104798714D01*
X38425476Y-104751095D01*
X38330238Y-104703476D01*
X38235000Y-104608238D01*
X38187380Y-104465380D01*
X38187380Y-104370142D01*
X38235000Y-104227285D01*
X38282619Y-104179666D01*
X38615952Y-103608238D02*
X38568333Y-103703476D01*
X38520714Y-103751095D01*
X38425476Y-103798714D01*
X38377857Y-103798714D01*
X38282619Y-103751095D01*
X38235000Y-103703476D01*
X38187380Y-103608238D01*
X38187380Y-103417761D01*
X38235000Y-103322523D01*
X38282619Y-103274904D01*
X38377857Y-103227285D01*
X38425476Y-103227285D01*
X38520714Y-103274904D01*
X38568333Y-103322523D01*
X38615952Y-103417761D01*
X38615952Y-103608238D01*
X38663571Y-103703476D01*
X38711190Y-103751095D01*
X38806428Y-103798714D01*
X38996904Y-103798714D01*
X39092142Y-103751095D01*
X39139761Y-103703476D01*
X39187380Y-103608238D01*
X39187380Y-103417761D01*
X39139761Y-103322523D01*
X39092142Y-103274904D01*
X38996904Y-103227285D01*
X38806428Y-103227285D01*
X38711190Y-103274904D01*
X38663571Y-103322523D01*
X38615952Y-103417761D01*
X26138142Y-101766666D02*
X26185761Y-101814285D01*
X26233380Y-101957142D01*
X26233380Y-102052380D01*
X26185761Y-102195238D01*
X26090523Y-102290476D01*
X25995285Y-102338095D01*
X25804809Y-102385714D01*
X25661952Y-102385714D01*
X25471476Y-102338095D01*
X25376238Y-102290476D01*
X25281000Y-102195238D01*
X25233380Y-102052380D01*
X25233380Y-101957142D01*
X25281000Y-101814285D01*
X25328619Y-101766666D01*
X26233380Y-101290476D02*
X26233380Y-101100000D01*
X26185761Y-101004761D01*
X26138142Y-100957142D01*
X25995285Y-100861904D01*
X25804809Y-100814285D01*
X25423857Y-100814285D01*
X25328619Y-100861904D01*
X25281000Y-100909523D01*
X25233380Y-101004761D01*
X25233380Y-101195238D01*
X25281000Y-101290476D01*
X25328619Y-101338095D01*
X25423857Y-101385714D01*
X25661952Y-101385714D01*
X25757190Y-101338095D01*
X25804809Y-101290476D01*
X25852428Y-101195238D01*
X25852428Y-101004761D01*
X25804809Y-100909523D01*
X25757190Y-100861904D01*
X25661952Y-100814285D01*
X32904166Y-121890571D02*
X32570833Y-121890571D01*
X32570833Y-122414380D02*
X32570833Y-121414380D01*
X33047023Y-121414380D01*
X33951785Y-122414380D02*
X33380357Y-122414380D01*
X33666071Y-122414380D02*
X33666071Y-121414380D01*
X33570833Y-121557238D01*
X33475595Y-121652476D01*
X33380357Y-121700095D01*
X56818280Y-136147133D02*
X57532566Y-136147133D01*
X57675423Y-136194752D01*
X57770661Y-136289990D01*
X57818280Y-136432847D01*
X57818280Y-136528085D01*
X56818280Y-135766180D02*
X56818280Y-135147133D01*
X57199233Y-135480466D01*
X57199233Y-135337609D01*
X57246852Y-135242371D01*
X57294471Y-135194752D01*
X57389709Y-135147133D01*
X57627804Y-135147133D01*
X57723042Y-135194752D01*
X57770661Y-135242371D01*
X57818280Y-135337609D01*
X57818280Y-135623323D01*
X57770661Y-135718561D01*
X57723042Y-135766180D01*
X67968880Y-135918533D02*
X68683166Y-135918533D01*
X68826023Y-135966152D01*
X68921261Y-136061390D01*
X68968880Y-136204247D01*
X68968880Y-136299485D01*
X68302214Y-135013771D02*
X68968880Y-135013771D01*
X67921261Y-135251866D02*
X68635547Y-135489961D01*
X68635547Y-134870914D01*
X62609480Y-136020133D02*
X63323766Y-136020133D01*
X63466623Y-136067752D01*
X63561861Y-136162990D01*
X63609480Y-136305847D01*
X63609480Y-136401085D01*
X62609480Y-135067752D02*
X62609480Y-135543942D01*
X63085671Y-135591561D01*
X63038052Y-135543942D01*
X62990433Y-135448704D01*
X62990433Y-135210609D01*
X63038052Y-135115371D01*
X63085671Y-135067752D01*
X63180909Y-135020133D01*
X63419004Y-135020133D01*
X63514242Y-135067752D01*
X63561861Y-135115371D01*
X63609480Y-135210609D01*
X63609480Y-135448704D01*
X63561861Y-135543942D01*
X63514242Y-135591561D01*
X28283160Y-110864946D02*
X28283160Y-111341137D01*
X27283160Y-111341137D01*
X28283160Y-110007803D02*
X28283160Y-110579232D01*
X28283160Y-110293518D02*
X27283160Y-110293518D01*
X27426018Y-110388756D01*
X27521256Y-110483994D01*
X27568875Y-110579232D01*
X30932380Y-103261366D02*
X30932380Y-103737557D01*
X29932380Y-103737557D01*
X30027619Y-102975652D02*
X29980000Y-102928033D01*
X29932380Y-102832795D01*
X29932380Y-102594700D01*
X29980000Y-102499461D01*
X30027619Y-102451842D01*
X30122857Y-102404223D01*
X30218095Y-102404223D01*
X30360952Y-102451842D01*
X30932380Y-103023271D01*
X30932380Y-102404223D01*
X34234380Y-84935466D02*
X33758190Y-85268800D01*
X34234380Y-85506895D02*
X33234380Y-85506895D01*
X33234380Y-85125942D01*
X33282000Y-85030704D01*
X33329619Y-84983085D01*
X33424857Y-84935466D01*
X33567714Y-84935466D01*
X33662952Y-84983085D01*
X33710571Y-85030704D01*
X33758190Y-85125942D01*
X33758190Y-85506895D01*
X34234380Y-83983085D02*
X34234380Y-84554514D01*
X34234380Y-84268800D02*
X33234380Y-84268800D01*
X33377238Y-84364038D01*
X33472476Y-84459276D01*
X33520095Y-84554514D01*
X34361380Y-80938666D02*
X33885190Y-81272000D01*
X34361380Y-81510095D02*
X33361380Y-81510095D01*
X33361380Y-81129142D01*
X33409000Y-81033904D01*
X33456619Y-80986285D01*
X33551857Y-80938666D01*
X33694714Y-80938666D01*
X33789952Y-80986285D01*
X33837571Y-81033904D01*
X33885190Y-81129142D01*
X33885190Y-81510095D01*
X33456619Y-80557714D02*
X33409000Y-80510095D01*
X33361380Y-80414857D01*
X33361380Y-80176761D01*
X33409000Y-80081523D01*
X33456619Y-80033904D01*
X33551857Y-79986285D01*
X33647095Y-79986285D01*
X33789952Y-80033904D01*
X34361380Y-80605333D01*
X34361380Y-79986285D01*
X24639260Y-88930666D02*
X24163070Y-89264000D01*
X24639260Y-89502095D02*
X23639260Y-89502095D01*
X23639260Y-89121142D01*
X23686880Y-89025904D01*
X23734499Y-88978285D01*
X23829737Y-88930666D01*
X23972594Y-88930666D01*
X24067832Y-88978285D01*
X24115451Y-89025904D01*
X24163070Y-89121142D01*
X24163070Y-89502095D01*
X23639260Y-88597333D02*
X23639260Y-87978285D01*
X24020213Y-88311619D01*
X24020213Y-88168761D01*
X24067832Y-88073523D01*
X24115451Y-88025904D01*
X24210689Y-87978285D01*
X24448784Y-87978285D01*
X24544022Y-88025904D01*
X24591641Y-88073523D01*
X24639260Y-88168761D01*
X24639260Y-88454476D01*
X24591641Y-88549714D01*
X24544022Y-88597333D01*
X28154333Y-89860380D02*
X27821000Y-89384190D01*
X27582904Y-89860380D02*
X27582904Y-88860380D01*
X27963857Y-88860380D01*
X28059095Y-88908000D01*
X28106714Y-88955619D01*
X28154333Y-89050857D01*
X28154333Y-89193714D01*
X28106714Y-89288952D01*
X28059095Y-89336571D01*
X27963857Y-89384190D01*
X27582904Y-89384190D01*
X29011476Y-89193714D02*
X29011476Y-89860380D01*
X28773380Y-88812761D02*
X28535285Y-89527047D01*
X29154333Y-89527047D01*
X26757333Y-77033380D02*
X26424000Y-76557190D01*
X26185904Y-77033380D02*
X26185904Y-76033380D01*
X26566857Y-76033380D01*
X26662095Y-76081000D01*
X26709714Y-76128619D01*
X26757333Y-76223857D01*
X26757333Y-76366714D01*
X26709714Y-76461952D01*
X26662095Y-76509571D01*
X26566857Y-76557190D01*
X26185904Y-76557190D01*
X27662095Y-76033380D02*
X27185904Y-76033380D01*
X27138285Y-76509571D01*
X27185904Y-76461952D01*
X27281142Y-76414333D01*
X27519238Y-76414333D01*
X27614476Y-76461952D01*
X27662095Y-76509571D01*
X27709714Y-76604809D01*
X27709714Y-76842904D01*
X27662095Y-76938142D01*
X27614476Y-76985761D01*
X27519238Y-77033380D01*
X27281142Y-77033380D01*
X27185904Y-76985761D01*
X27138285Y-76938142D01*
X26757333Y-75572880D02*
X26424000Y-75096690D01*
X26185904Y-75572880D02*
X26185904Y-74572880D01*
X26566857Y-74572880D01*
X26662095Y-74620500D01*
X26709714Y-74668119D01*
X26757333Y-74763357D01*
X26757333Y-74906214D01*
X26709714Y-75001452D01*
X26662095Y-75049071D01*
X26566857Y-75096690D01*
X26185904Y-75096690D01*
X27614476Y-74572880D02*
X27424000Y-74572880D01*
X27328761Y-74620500D01*
X27281142Y-74668119D01*
X27185904Y-74810976D01*
X27138285Y-75001452D01*
X27138285Y-75382404D01*
X27185904Y-75477642D01*
X27233523Y-75525261D01*
X27328761Y-75572880D01*
X27519238Y-75572880D01*
X27614476Y-75525261D01*
X27662095Y-75477642D01*
X27709714Y-75382404D01*
X27709714Y-75144309D01*
X27662095Y-75049071D01*
X27614476Y-75001452D01*
X27519238Y-74953833D01*
X27328761Y-74953833D01*
X27233523Y-75001452D01*
X27185904Y-75049071D01*
X27138285Y-75144309D01*
X36314142Y-108529380D02*
X35980809Y-108053190D01*
X35742714Y-108529380D02*
X35742714Y-107529380D01*
X36123666Y-107529380D01*
X36218904Y-107577000D01*
X36266523Y-107624619D01*
X36314142Y-107719857D01*
X36314142Y-107862714D01*
X36266523Y-107957952D01*
X36218904Y-108005571D01*
X36123666Y-108053190D01*
X35742714Y-108053190D01*
X37266523Y-108529380D02*
X36695095Y-108529380D01*
X36980809Y-108529380D02*
X36980809Y-107529380D01*
X36885571Y-107672238D01*
X36790333Y-107767476D01*
X36695095Y-107815095D01*
X38123666Y-107529380D02*
X37933190Y-107529380D01*
X37837952Y-107577000D01*
X37790333Y-107624619D01*
X37695095Y-107767476D01*
X37647476Y-107957952D01*
X37647476Y-108338904D01*
X37695095Y-108434142D01*
X37742714Y-108481761D01*
X37837952Y-108529380D01*
X38028428Y-108529380D01*
X38123666Y-108481761D01*
X38171285Y-108434142D01*
X38218904Y-108338904D01*
X38218904Y-108100809D01*
X38171285Y-108005571D01*
X38123666Y-107957952D01*
X38028428Y-107910333D01*
X37837952Y-107910333D01*
X37742714Y-107957952D01*
X37695095Y-108005571D01*
X37647476Y-108100809D01*
X37790380Y-104147857D02*
X37314190Y-104481190D01*
X37790380Y-104719285D02*
X36790380Y-104719285D01*
X36790380Y-104338333D01*
X36838000Y-104243095D01*
X36885619Y-104195476D01*
X36980857Y-104147857D01*
X37123714Y-104147857D01*
X37218952Y-104195476D01*
X37266571Y-104243095D01*
X37314190Y-104338333D01*
X37314190Y-104719285D01*
X37790380Y-103195476D02*
X37790380Y-103766904D01*
X37790380Y-103481190D02*
X36790380Y-103481190D01*
X36933238Y-103576428D01*
X37028476Y-103671666D01*
X37076095Y-103766904D01*
X36790380Y-102862142D02*
X36790380Y-102195476D01*
X37790380Y-102624047D01*
X27392380Y-83652824D02*
X28201904Y-83652824D01*
X28297142Y-83605205D01*
X28344761Y-83557586D01*
X28392380Y-83462348D01*
X28392380Y-83271872D01*
X28344761Y-83176634D01*
X28297142Y-83129015D01*
X28201904Y-83081396D01*
X27392380Y-83081396D01*
X27392380Y-82700443D02*
X27392380Y-82081396D01*
X27773333Y-82414729D01*
X27773333Y-82271872D01*
X27820952Y-82176634D01*
X27868571Y-82129015D01*
X27963809Y-82081396D01*
X28201904Y-82081396D01*
X28297142Y-82129015D01*
X28344761Y-82176634D01*
X28392380Y-82271872D01*
X28392380Y-82557586D01*
X28344761Y-82652824D01*
X28297142Y-82700443D01*
X26285866Y-99030571D02*
X25952533Y-99030571D01*
X25952533Y-99554380D02*
X25952533Y-98554380D01*
X26428723Y-98554380D01*
X26762057Y-98649619D02*
X26809676Y-98602000D01*
X26904914Y-98554380D01*
X27143009Y-98554380D01*
X27238247Y-98602000D01*
X27285866Y-98649619D01*
X27333485Y-98744857D01*
X27333485Y-98840095D01*
X27285866Y-98982952D01*
X26714438Y-99554380D01*
X27333485Y-99554380D01*
X35581371Y-99277433D02*
X35581371Y-99610766D01*
X36105180Y-99610766D02*
X35105180Y-99610766D01*
X35105180Y-99134576D01*
X35105180Y-98848861D02*
X35105180Y-98229814D01*
X35486133Y-98563147D01*
X35486133Y-98420290D01*
X35533752Y-98325052D01*
X35581371Y-98277433D01*
X35676609Y-98229814D01*
X35914704Y-98229814D01*
X36009942Y-98277433D01*
X36057561Y-98325052D01*
X36105180Y-98420290D01*
X36105180Y-98706004D01*
X36057561Y-98801242D01*
X36009942Y-98848861D01*
X25296880Y-130698833D02*
X26011166Y-130698833D01*
X26154023Y-130746452D01*
X26249261Y-130841690D01*
X26296880Y-130984547D01*
X26296880Y-131079785D01*
X26296880Y-129698833D02*
X26296880Y-130270261D01*
X26296880Y-129984547D02*
X25296880Y-129984547D01*
X25439738Y-130079785D01*
X25534976Y-130175023D01*
X25582595Y-130270261D01*
X34028142Y-87447380D02*
X33694809Y-86971190D01*
X33456714Y-87447380D02*
X33456714Y-86447380D01*
X33837666Y-86447380D01*
X33932904Y-86495000D01*
X33980523Y-86542619D01*
X34028142Y-86637857D01*
X34028142Y-86780714D01*
X33980523Y-86875952D01*
X33932904Y-86923571D01*
X33837666Y-86971190D01*
X33456714Y-86971190D01*
X34361476Y-86447380D02*
X34980523Y-86447380D01*
X34647190Y-86828333D01*
X34790047Y-86828333D01*
X34885285Y-86875952D01*
X34932904Y-86923571D01*
X34980523Y-87018809D01*
X34980523Y-87256904D01*
X34932904Y-87352142D01*
X34885285Y-87399761D01*
X34790047Y-87447380D01*
X34504333Y-87447380D01*
X34409095Y-87399761D01*
X34361476Y-87352142D01*
X35313857Y-86447380D02*
X35932904Y-86447380D01*
X35599571Y-86828333D01*
X35742428Y-86828333D01*
X35837666Y-86875952D01*
X35885285Y-86923571D01*
X35932904Y-87018809D01*
X35932904Y-87256904D01*
X35885285Y-87352142D01*
X35837666Y-87399761D01*
X35742428Y-87447380D01*
X35456714Y-87447380D01*
X35361476Y-87399761D01*
X35313857Y-87352142D01*
X37790380Y-88526857D02*
X37314190Y-88860190D01*
X37790380Y-89098285D02*
X36790380Y-89098285D01*
X36790380Y-88717333D01*
X36838000Y-88622095D01*
X36885619Y-88574476D01*
X36980857Y-88526857D01*
X37123714Y-88526857D01*
X37218952Y-88574476D01*
X37266571Y-88622095D01*
X37314190Y-88717333D01*
X37314190Y-89098285D01*
X36790380Y-88193523D02*
X36790380Y-87574476D01*
X37171333Y-87907809D01*
X37171333Y-87764952D01*
X37218952Y-87669714D01*
X37266571Y-87622095D01*
X37361809Y-87574476D01*
X37599904Y-87574476D01*
X37695142Y-87622095D01*
X37742761Y-87669714D01*
X37790380Y-87764952D01*
X37790380Y-88050666D01*
X37742761Y-88145904D01*
X37695142Y-88193523D01*
X37123714Y-86717333D02*
X37790380Y-86717333D01*
X36742761Y-86955428D02*
X37457047Y-87193523D01*
X37457047Y-86574476D01*
X44759642Y-133548380D02*
X44426309Y-133072190D01*
X44188214Y-133548380D02*
X44188214Y-132548380D01*
X44569166Y-132548380D01*
X44664404Y-132596000D01*
X44712023Y-132643619D01*
X44759642Y-132738857D01*
X44759642Y-132881714D01*
X44712023Y-132976952D01*
X44664404Y-133024571D01*
X44569166Y-133072190D01*
X44188214Y-133072190D01*
X45092976Y-132548380D02*
X45712023Y-132548380D01*
X45378690Y-132929333D01*
X45521547Y-132929333D01*
X45616785Y-132976952D01*
X45664404Y-133024571D01*
X45712023Y-133119809D01*
X45712023Y-133357904D01*
X45664404Y-133453142D01*
X45616785Y-133500761D01*
X45521547Y-133548380D01*
X45235833Y-133548380D01*
X45140595Y-133500761D01*
X45092976Y-133453142D01*
X46616785Y-132548380D02*
X46140595Y-132548380D01*
X46092976Y-133024571D01*
X46140595Y-132976952D01*
X46235833Y-132929333D01*
X46473928Y-132929333D01*
X46569166Y-132976952D01*
X46616785Y-133024571D01*
X46664404Y-133119809D01*
X46664404Y-133357904D01*
X46616785Y-133453142D01*
X46569166Y-133500761D01*
X46473928Y-133548380D01*
X46235833Y-133548380D01*
X46140595Y-133500761D01*
X46092976Y-133453142D01*
X104878142Y-126499857D02*
X104925761Y-126547476D01*
X104973380Y-126690333D01*
X104973380Y-126785571D01*
X104925761Y-126928428D01*
X104830523Y-127023666D01*
X104735285Y-127071285D01*
X104544809Y-127118904D01*
X104401952Y-127118904D01*
X104211476Y-127071285D01*
X104116238Y-127023666D01*
X104021000Y-126928428D01*
X103973380Y-126785571D01*
X103973380Y-126690333D01*
X104021000Y-126547476D01*
X104068619Y-126499857D01*
X104068619Y-126118904D02*
X104021000Y-126071285D01*
X103973380Y-125976047D01*
X103973380Y-125737952D01*
X104021000Y-125642714D01*
X104068619Y-125595095D01*
X104163857Y-125547476D01*
X104259095Y-125547476D01*
X104401952Y-125595095D01*
X104973380Y-126166523D01*
X104973380Y-125547476D01*
X104973380Y-124595095D02*
X104973380Y-125166523D01*
X104973380Y-124880809D02*
X103973380Y-124880809D01*
X104116238Y-124976047D01*
X104211476Y-125071285D01*
X104259095Y-125166523D01*
X38582782Y-119453897D02*
X38630401Y-119501516D01*
X38678020Y-119644373D01*
X38678020Y-119739611D01*
X38630401Y-119882468D01*
X38535163Y-119977706D01*
X38439925Y-120025325D01*
X38249449Y-120072944D01*
X38106592Y-120072944D01*
X37916116Y-120025325D01*
X37820878Y-119977706D01*
X37725640Y-119882468D01*
X37678020Y-119739611D01*
X37678020Y-119644373D01*
X37725640Y-119501516D01*
X37773259Y-119453897D01*
X37773259Y-119072944D02*
X37725640Y-119025325D01*
X37678020Y-118930087D01*
X37678020Y-118691992D01*
X37725640Y-118596754D01*
X37773259Y-118549135D01*
X37868497Y-118501516D01*
X37963735Y-118501516D01*
X38106592Y-118549135D01*
X38678020Y-119120563D01*
X38678020Y-118501516D01*
X37773259Y-118120563D02*
X37725640Y-118072944D01*
X37678020Y-117977706D01*
X37678020Y-117739611D01*
X37725640Y-117644373D01*
X37773259Y-117596754D01*
X37868497Y-117549135D01*
X37963735Y-117549135D01*
X38106592Y-117596754D01*
X38678020Y-118168182D01*
X38678020Y-117549135D01*
X105005142Y-98940857D02*
X105052761Y-98988476D01*
X105100380Y-99131333D01*
X105100380Y-99226571D01*
X105052761Y-99369428D01*
X104957523Y-99464666D01*
X104862285Y-99512285D01*
X104671809Y-99559904D01*
X104528952Y-99559904D01*
X104338476Y-99512285D01*
X104243238Y-99464666D01*
X104148000Y-99369428D01*
X104100380Y-99226571D01*
X104100380Y-99131333D01*
X104148000Y-98988476D01*
X104195619Y-98940857D01*
X104195619Y-98559904D02*
X104148000Y-98512285D01*
X104100380Y-98417047D01*
X104100380Y-98178952D01*
X104148000Y-98083714D01*
X104195619Y-98036095D01*
X104290857Y-97988476D01*
X104386095Y-97988476D01*
X104528952Y-98036095D01*
X105100380Y-98607523D01*
X105100380Y-97988476D01*
X104100380Y-97083714D02*
X104100380Y-97559904D01*
X104576571Y-97607523D01*
X104528952Y-97559904D01*
X104481333Y-97464666D01*
X104481333Y-97226571D01*
X104528952Y-97131333D01*
X104576571Y-97083714D01*
X104671809Y-97036095D01*
X104909904Y-97036095D01*
X105005142Y-97083714D01*
X105052761Y-97131333D01*
X105100380Y-97226571D01*
X105100380Y-97464666D01*
X105052761Y-97559904D01*
X105005142Y-97607523D01*
X40743142Y-87764857D02*
X40790761Y-87812476D01*
X40838380Y-87955333D01*
X40838380Y-88050571D01*
X40790761Y-88193428D01*
X40695523Y-88288666D01*
X40600285Y-88336285D01*
X40409809Y-88383904D01*
X40266952Y-88383904D01*
X40076476Y-88336285D01*
X39981238Y-88288666D01*
X39886000Y-88193428D01*
X39838380Y-88050571D01*
X39838380Y-87955333D01*
X39886000Y-87812476D01*
X39933619Y-87764857D01*
X39933619Y-87383904D02*
X39886000Y-87336285D01*
X39838380Y-87241047D01*
X39838380Y-87002952D01*
X39886000Y-86907714D01*
X39933619Y-86860095D01*
X40028857Y-86812476D01*
X40124095Y-86812476D01*
X40266952Y-86860095D01*
X40838380Y-87431523D01*
X40838380Y-86812476D01*
X39838380Y-85955333D02*
X39838380Y-86145809D01*
X39886000Y-86241047D01*
X39933619Y-86288666D01*
X40076476Y-86383904D01*
X40266952Y-86431523D01*
X40647904Y-86431523D01*
X40743142Y-86383904D01*
X40790761Y-86336285D01*
X40838380Y-86241047D01*
X40838380Y-86050571D01*
X40790761Y-85955333D01*
X40743142Y-85907714D01*
X40647904Y-85860095D01*
X40409809Y-85860095D01*
X40314571Y-85907714D01*
X40266952Y-85955333D01*
X40219333Y-86050571D01*
X40219333Y-86241047D01*
X40266952Y-86336285D01*
X40314571Y-86383904D01*
X40409809Y-86431523D01*
X72921880Y-77390523D02*
X73636166Y-77390523D01*
X73779023Y-77438142D01*
X73874261Y-77533380D01*
X73921880Y-77676238D01*
X73921880Y-77771476D01*
X73921880Y-76390523D02*
X73921880Y-76961952D01*
X73921880Y-76676238D02*
X72921880Y-76676238D01*
X73064738Y-76771476D01*
X73159976Y-76866714D01*
X73207595Y-76961952D01*
X72921880Y-75771476D02*
X72921880Y-75676238D01*
X72969500Y-75581000D01*
X73017119Y-75533380D01*
X73112357Y-75485761D01*
X73302833Y-75438142D01*
X73540928Y-75438142D01*
X73731404Y-75485761D01*
X73826642Y-75533380D01*
X73874261Y-75581000D01*
X73921880Y-75676238D01*
X73921880Y-75771476D01*
X73874261Y-75866714D01*
X73826642Y-75914333D01*
X73731404Y-75961952D01*
X73540928Y-76009571D01*
X73302833Y-76009571D01*
X73112357Y-75961952D01*
X73017119Y-75914333D01*
X72969500Y-75866714D01*
X72921880Y-75771476D01*
X77879676Y-136294880D02*
X77879676Y-137009166D01*
X77832057Y-137152023D01*
X77736819Y-137247261D01*
X77593961Y-137294880D01*
X77498723Y-137294880D01*
X78879676Y-137294880D02*
X78308247Y-137294880D01*
X78593961Y-137294880D02*
X78593961Y-136294880D01*
X78498723Y-136437738D01*
X78403485Y-136532976D01*
X78308247Y-136580595D01*
X79832057Y-137294880D02*
X79260628Y-137294880D01*
X79546342Y-137294880D02*
X79546342Y-136294880D01*
X79451104Y-136437738D01*
X79355866Y-136532976D01*
X79260628Y-136580595D01*
X34028142Y-75128380D02*
X33694809Y-74652190D01*
X33456714Y-75128380D02*
X33456714Y-74128380D01*
X33837666Y-74128380D01*
X33932904Y-74176000D01*
X33980523Y-74223619D01*
X34028142Y-74318857D01*
X34028142Y-74461714D01*
X33980523Y-74556952D01*
X33932904Y-74604571D01*
X33837666Y-74652190D01*
X33456714Y-74652190D01*
X34361476Y-74128380D02*
X34980523Y-74128380D01*
X34647190Y-74509333D01*
X34790047Y-74509333D01*
X34885285Y-74556952D01*
X34932904Y-74604571D01*
X34980523Y-74699809D01*
X34980523Y-74937904D01*
X34932904Y-75033142D01*
X34885285Y-75080761D01*
X34790047Y-75128380D01*
X34504333Y-75128380D01*
X34409095Y-75080761D01*
X34361476Y-75033142D01*
X35837666Y-74128380D02*
X35647190Y-74128380D01*
X35551952Y-74176000D01*
X35504333Y-74223619D01*
X35409095Y-74366476D01*
X35361476Y-74556952D01*
X35361476Y-74937904D01*
X35409095Y-75033142D01*
X35456714Y-75080761D01*
X35551952Y-75128380D01*
X35742428Y-75128380D01*
X35837666Y-75080761D01*
X35885285Y-75033142D01*
X35932904Y-74937904D01*
X35932904Y-74699809D01*
X35885285Y-74604571D01*
X35837666Y-74556952D01*
X35742428Y-74509333D01*
X35551952Y-74509333D01*
X35456714Y-74556952D01*
X35409095Y-74604571D01*
X35361476Y-74699809D01*
X38726100Y-112783857D02*
X38249910Y-113117190D01*
X38726100Y-113355285D02*
X37726100Y-113355285D01*
X37726100Y-112974333D01*
X37773720Y-112879095D01*
X37821339Y-112831476D01*
X37916577Y-112783857D01*
X38059434Y-112783857D01*
X38154672Y-112831476D01*
X38202291Y-112879095D01*
X38249910Y-112974333D01*
X38249910Y-113355285D01*
X37726100Y-112450523D02*
X37726100Y-111831476D01*
X38107053Y-112164809D01*
X38107053Y-112021952D01*
X38154672Y-111926714D01*
X38202291Y-111879095D01*
X38297529Y-111831476D01*
X38535624Y-111831476D01*
X38630862Y-111879095D01*
X38678481Y-111926714D01*
X38726100Y-112021952D01*
X38726100Y-112307666D01*
X38678481Y-112402904D01*
X38630862Y-112450523D01*
X37726100Y-111498142D02*
X37726100Y-110831476D01*
X38726100Y-111260047D01*
X50635066Y-132879961D02*
X50777923Y-132927580D01*
X51016019Y-132927580D01*
X51111257Y-132879961D01*
X51158876Y-132832342D01*
X51206495Y-132737104D01*
X51206495Y-132641866D01*
X51158876Y-132546628D01*
X51111257Y-132499009D01*
X51016019Y-132451390D01*
X50825542Y-132403771D01*
X50730304Y-132356152D01*
X50682685Y-132308533D01*
X50635066Y-132213295D01*
X50635066Y-132118057D01*
X50682685Y-132022819D01*
X50730304Y-131975200D01*
X50825542Y-131927580D01*
X51063638Y-131927580D01*
X51206495Y-131975200D01*
X51539828Y-131927580D02*
X51777923Y-132927580D01*
X51968400Y-132213295D01*
X52158876Y-132927580D01*
X52396971Y-131927580D01*
X53301733Y-132927580D02*
X52730304Y-132927580D01*
X53016019Y-132927580D02*
X53016019Y-131927580D01*
X52920780Y-132070438D01*
X52825542Y-132165676D01*
X52730304Y-132213295D01*
X97028095Y-128801880D02*
X97028095Y-129611404D01*
X97075714Y-129706642D01*
X97123333Y-129754261D01*
X97218571Y-129801880D01*
X97409047Y-129801880D01*
X97504285Y-129754261D01*
X97551904Y-129706642D01*
X97599523Y-129611404D01*
X97599523Y-128801880D01*
X98599523Y-129801880D02*
X98028095Y-129801880D01*
X98313809Y-129801880D02*
X98313809Y-128801880D01*
X98218571Y-128944738D01*
X98123333Y-129039976D01*
X98028095Y-129087595D01*
X47498095Y-110323380D02*
X47498095Y-111132904D01*
X47545714Y-111228142D01*
X47593333Y-111275761D01*
X47688571Y-111323380D01*
X47879047Y-111323380D01*
X47974285Y-111275761D01*
X48021904Y-111228142D01*
X48069523Y-111132904D01*
X48069523Y-110323380D01*
X48974285Y-110656714D02*
X48974285Y-111323380D01*
X48736190Y-110275761D02*
X48498095Y-110990047D01*
X49117142Y-110990047D01*
X47371095Y-83272380D02*
X47371095Y-84081904D01*
X47418714Y-84177142D01*
X47466333Y-84224761D01*
X47561571Y-84272380D01*
X47752047Y-84272380D01*
X47847285Y-84224761D01*
X47894904Y-84177142D01*
X47942523Y-84081904D01*
X47942523Y-83272380D01*
X48894904Y-83272380D02*
X48418714Y-83272380D01*
X48371095Y-83748571D01*
X48418714Y-83700952D01*
X48513952Y-83653333D01*
X48752047Y-83653333D01*
X48847285Y-83700952D01*
X48894904Y-83748571D01*
X48942523Y-83843809D01*
X48942523Y-84081904D01*
X48894904Y-84177142D01*
X48847285Y-84224761D01*
X48752047Y-84272380D01*
X48513952Y-84272380D01*
X48418714Y-84224761D01*
X48371095Y-84177142D01*
X32289904Y-93051380D02*
X32289904Y-93860904D01*
X32337523Y-93956142D01*
X32385142Y-94003761D01*
X32480380Y-94051380D01*
X32670857Y-94051380D01*
X32766095Y-94003761D01*
X32813714Y-93956142D01*
X32861333Y-93860904D01*
X32861333Y-93051380D01*
X33861333Y-94051380D02*
X33289904Y-94051380D01*
X33575619Y-94051380D02*
X33575619Y-93051380D01*
X33480380Y-93194238D01*
X33385142Y-93289476D01*
X33289904Y-93337095D01*
X34813714Y-94051380D02*
X34242285Y-94051380D01*
X34528000Y-94051380D02*
X34528000Y-93051380D01*
X34432761Y-93194238D01*
X34337523Y-93289476D01*
X34242285Y-93337095D01*
X35736280Y-112072324D02*
X36545804Y-112072324D01*
X36641042Y-112024705D01*
X36688661Y-111977086D01*
X36736280Y-111881848D01*
X36736280Y-111691372D01*
X36688661Y-111596134D01*
X36641042Y-111548515D01*
X36545804Y-111500896D01*
X35736280Y-111500896D01*
X35736280Y-111119943D02*
X35736280Y-110453277D01*
X36736280Y-110881848D01*
M02*
