M48
; DRILL file {KiCad (5.1.4)-1} date 3/1/2020 10:40:12 PM
; FORMAT={-:-/ absolute / inch / decimal}
; #@! TF.CreationDate,2020-03-01T22:40:12-05:00
; #@! TF.GenerationSoftware,Kicad,Pcbnew,(5.1.4)-1
; #@! TF.FileFunction,Plated,1,4,PTH
FMAT,2
INCH
T1C0.0079
T2C0.0157
T3C0.0197
T4C0.0394
T5C0.0984
T6C0.1772
%
G90
G05
T1
X1.2546Y-4.3524
X1.2546Y-4.4036
X1.294Y-4.3524
X1.294Y-4.4036
X1.3334Y-4.3524
X1.3334Y-4.4036
T2
X0.9326Y-4.3483
X0.9422Y-4.5684
X0.9955Y-4.562
X1.0175Y-4.0527
X1.0178Y-3.1016
X1.0184Y-3.5894
X1.0197Y-4.7335
X1.0288Y-3.6872
X1.0604Y-3.0604
X1.07Y-4.755
X1.109Y-3.7487
X1.137Y-4.76
X1.1589Y-3.6555
X1.1652Y-4.6606
X1.1673Y-3.7694
X1.1738Y-3.5294
X1.1758Y-3.8446
X1.2057Y-3.6717
X1.2746Y-2.9832
X1.2758Y-3.0844
X1.2886Y-3.6974
X1.2932Y-3.7572
X1.3332Y-3.5937
X1.3772Y-3.7564
X1.3808Y-4.9226
X1.3845Y-3.6938
X1.431Y-4.272
X1.4435Y-4.4665
X1.4701Y-3.6802
X1.5634Y-3.2548
X1.5752Y-4.5274
X1.5844Y-3.3234
X1.5848Y-3.7412
X1.7223Y-5.302
X1.76Y-4.6
X1.764Y-4.429
X1.7665Y-3.3245
X1.769Y-4.3474
X1.77Y-4.03
X1.7703Y-3.9357
X1.7785Y-5.0215
X1.7815Y-3.6045
X1.7825Y-3.666
X1.7825Y-4.9255
X1.789Y-4.6915
X1.789Y-4.752
X1.7924Y-4.2744
X1.801Y-5.1156
X1.8045Y-3.226
X1.8215Y-3.8557
X1.8344Y-3.4212
X1.837Y-3.1174
X1.845Y-3.667
X1.845Y-4.7235
X1.8552Y-3.7833
X1.8557Y-5.0784
X1.8878Y-4.1666
X1.9486Y-4.9862
X1.9675Y-2.9806
X1.9986Y-4.4236
X2.0096Y-3.9552
X2.028Y-3.4538
X2.0402Y-3.218
X2.0579Y-3.6885
X2.0584Y-4.5592
X2.1101Y-4.1479
X2.1618Y-2.9773
X2.2068Y-4.3578
X2.209Y-3.5108
X2.21Y-4.555
X2.2662Y-3.687
X2.2682Y-4.388
X2.2766Y-4.7322
X2.3024Y-3.2601
X2.3046Y-4.9822
X2.3086Y-4.5522
X2.324Y-3.496
X2.3422Y-4.1732
X2.3426Y-4.7322
X2.3534Y-3.6918
X2.3542Y-3.986
X2.3577Y-2.9798
X2.363Y-3.0706
X2.3646Y-4.9642
X2.3668Y-2.9404
X2.373Y-4.54
X2.3822Y-3.9232
X2.4386Y-4.9002
X2.446Y-3.0734
X2.449Y-3.2765
X2.4596Y-3.853
X2.538Y-3.316
X2.538Y-4.318
X2.5565Y-2.9727
X2.631Y-3.069
X2.668Y-3.142
X2.6732Y-3.6075
X2.686Y-3.291
X2.695Y-2.965
X2.6968Y-3.0697
X2.7Y-4.253
X2.7204Y-4.6704
X2.7302Y-3.7092
X2.745Y-3.142
X2.75Y-3.478
X2.7935Y-3.6943
X2.819Y-4.756
X2.825Y-4.7
X2.8685Y-4.605
X2.875Y-3.71
X2.891Y-2.9525
X2.9053Y-3.0722
X2.933Y-4.66
X2.938Y-3.668
X2.9768Y-5.2296
X2.9997Y-4.0255
X3.0027Y-4.8189
X3.0053Y-4.1182
X3.0116Y-5.1087
X3.045Y-3.8325
X3.0738Y-5.1797
X3.09Y-2.965
X3.09Y-3.065
X3.1511Y-5.1341
X3.185Y-5.015
X3.215Y-4.045
X3.2164Y-5.2239
X3.251Y-4.44
X3.269Y-3.453
X3.324Y-4.325
X3.3325Y-4.105
X3.339Y-3.613
X3.342Y-3.361
X3.3466Y-4.6072
X3.3475Y-5.0325
X3.352Y-4.677
X3.3802Y-4.7816
X3.394Y-3.948
X3.411Y-4.602
X3.4115Y-3.692
X3.428Y-4.453
X3.439Y-3.618
X3.446Y-5.172
X3.453Y-3.443
X3.461Y-4.118
X3.4707Y-4.9593
X3.4927Y-3.9567
X3.642Y-3.597
X3.6435Y-4.082
X3.6488Y-3.8182
X3.6506Y-4.7668
X3.672Y-4.359
X3.6774Y-4.8992
X3.6815Y-3.7515
X3.6968Y-4.6732
X3.702Y-3.361
X3.7225Y-4.3255
X3.7295Y-3.858
X3.73Y-3.726
X3.754Y-3.3065
X3.7585Y-3.5075
X3.76Y-3.9455
X3.765Y-4.785
X3.8405Y-3.574
X3.842Y-4.5845
X3.8665Y-4.977
X3.869Y-4.8815
X3.886Y-4.7015
X3.8982Y-3.6233
X3.8999Y-3.7034
X3.924Y-4.7685
X3.9461Y-3.6646
X3.948Y-4.852
X3.9505Y-3.7682
X3.952Y-4.587
X3.9615Y-4.7015
X3.9647Y-4.9371
X4.0275Y-3.1875
X4.109Y-4.0575
X4.11Y-3.954
X4.1314Y-4.3379
T3
X1.501Y-5.315
X1.5226Y-5.2628
X1.5226Y-5.3672
X1.5748Y-5.2411
X1.5748Y-5.3888
X1.627Y-5.2628
X1.627Y-5.3672
X1.6486Y-5.315
X3.4301Y-5.315
X3.4517Y-5.2628
X3.4517Y-5.3672
X3.5039Y-5.2411
X3.5039Y-5.3888
X3.5561Y-5.2628
X3.5561Y-5.3672
X3.5778Y-5.315
X1.501Y-3.0315
X1.5226Y-2.9793
X1.5226Y-3.0837
X1.5748Y-2.9577
X1.5748Y-3.1053
X1.627Y-2.9793
X1.627Y-3.0837
X1.6486Y-3.0315
X3.4301Y-3.0315
X3.4517Y-2.9793
X3.4517Y-3.0837
X3.5039Y-2.9577
X3.5039Y-3.1053
X3.5561Y-2.9793
X3.5561Y-3.0837
X3.5778Y-3.0315
T4
X2.792Y-5.302
X2.792Y-5.402
X2.582Y-5.3
X2.582Y-5.4
X2.352Y-5.301
X2.352Y-5.401
T5
X3.5039Y-5.315
X3.5039Y-3.0315
X1.5748Y-5.315
X1.5748Y-3.0315
T6
X1.14Y-5.0065
X1.14Y-5.29
T0
M30
