G04 #@! TF.GenerationSoftware,KiCad,Pcbnew,(5.1.4)-1*
G04 #@! TF.CreationDate,2020-03-01T22:40:11-05:00*
G04 #@! TF.ProjectId,FPVRaceTimer,46505652-6163-4655-9469-6d65722e6b69,rev?*
G04 #@! TF.SameCoordinates,Original*
G04 #@! TF.FileFunction,Legend,Bot*
G04 #@! TF.FilePolarity,Positive*
%FSLAX46Y46*%
G04 Gerber Fmt 4.6, Leading zero omitted, Abs format (unit mm)*
G04 Created by KiCad (PCBNEW (5.1.4)-1) date 2020-03-01 22:40:11*
%MOMM*%
%LPD*%
G04 APERTURE LIST*
%ADD10C,0.120000*%
%ADD11C,0.150000*%
G04 APERTURE END LIST*
D10*
X103530635Y-108407200D02*
G75*
G03X103530635Y-108407200I-343135J0D01*
G01*
X104323047Y-82550000D02*
G75*
G03X104323047Y-82550000I-310047J0D01*
G01*
X48366847Y-85839300D02*
G75*
G03X48366847Y-85839300I-310047J0D01*
G01*
X47092129Y-113842800D02*
G75*
G03X47092129Y-113842800I-305329J0D01*
G01*
X59319160Y-105597960D02*
X59319160Y-101497960D01*
X51719160Y-105597960D02*
X59319160Y-105597960D01*
X51699160Y-101406960D02*
X51699160Y-105506960D01*
X59299160Y-101406960D02*
X51699160Y-101406960D01*
X58028840Y-131932680D02*
X58028840Y-127832680D01*
X50428840Y-131932680D02*
X58028840Y-131932680D01*
X50408840Y-127741680D02*
X50408840Y-131841680D01*
X58008840Y-127741680D02*
X50408840Y-127741680D01*
X85457400Y-105156000D02*
X85457400Y-109256000D01*
X93057400Y-105156000D02*
X85457400Y-105156000D01*
X93077400Y-109347000D02*
X93077400Y-105247000D01*
X85477400Y-109347000D02*
X93077400Y-109347000D01*
X85775800Y-79908400D02*
X85775800Y-84008400D01*
X93375800Y-79908400D02*
X85775800Y-79908400D01*
X93395800Y-84099400D02*
X93395800Y-79999400D01*
X85795800Y-84099400D02*
X93395800Y-84099400D01*
X57877640Y-108439958D02*
X57877640Y-107922802D01*
X59297640Y-108439958D02*
X59297640Y-107922802D01*
X59458661Y-125073480D02*
X59975817Y-125073480D01*
X59458661Y-123653480D02*
X59975817Y-123653480D01*
X59858840Y-108439958D02*
X59858840Y-107922802D01*
X61278840Y-108439958D02*
X61278840Y-107922802D01*
X60768300Y-80550278D02*
X60768300Y-80033122D01*
X59348300Y-80550278D02*
X59348300Y-80033122D01*
X60066422Y-97135880D02*
X60583578Y-97135880D01*
X60066422Y-98555880D02*
X60583578Y-98555880D01*
X62851100Y-80573138D02*
X62851100Y-80055982D01*
X61431100Y-80573138D02*
X61431100Y-80055982D01*
X89330600Y-128773422D02*
X89330600Y-129290578D01*
X87910600Y-128773422D02*
X87910600Y-129290578D01*
X85046078Y-112015200D02*
X84528922Y-112015200D01*
X85046078Y-113435200D02*
X84528922Y-113435200D01*
X85878600Y-128745722D02*
X85878600Y-129262878D01*
X87298600Y-128745722D02*
X87298600Y-129262878D01*
X88291600Y-102306622D02*
X88291600Y-102823778D01*
X89711600Y-102306622D02*
X89711600Y-102823778D01*
X85828878Y-88340000D02*
X85311722Y-88340000D01*
X85828878Y-86920000D02*
X85311722Y-86920000D01*
X87679600Y-102306622D02*
X87679600Y-102823778D01*
X86259600Y-102306622D02*
X86259600Y-102823778D01*
X57049928Y-76394380D02*
X57572432Y-76394380D01*
X57049928Y-74974380D02*
X57572432Y-74974380D01*
X52554772Y-76396920D02*
X52032268Y-76396920D01*
X52554772Y-74976920D02*
X52032268Y-74976920D01*
X27702252Y-118466800D02*
X27179748Y-118466800D01*
X27702252Y-119886800D02*
X27179748Y-119886800D01*
X27651452Y-117905600D02*
X27128948Y-117905600D01*
X27651452Y-116485600D02*
X27128948Y-116485600D01*
X66463388Y-117913080D02*
X66985892Y-117913080D01*
X66463388Y-119333080D02*
X66985892Y-119333080D01*
X50009692Y-115525480D02*
X49487188Y-115525480D01*
X50009692Y-116945480D02*
X49487188Y-116945480D01*
X62303292Y-110394680D02*
X61780788Y-110394680D01*
X62303292Y-111814680D02*
X61780788Y-111814680D01*
X50009692Y-118977480D02*
X49487188Y-118977480D01*
X50009692Y-117557480D02*
X49487188Y-117557480D01*
X55845640Y-108479332D02*
X55845640Y-107956828D01*
X57265640Y-108479332D02*
X57265640Y-107956828D01*
X66956148Y-93851800D02*
X67478652Y-93851800D01*
X66956148Y-92431800D02*
X67478652Y-92431800D01*
X50769152Y-90549800D02*
X50246648Y-90549800D01*
X50769152Y-89129800D02*
X50246648Y-89129800D01*
X62380652Y-85215800D02*
X61858148Y-85215800D01*
X62380652Y-83795800D02*
X61858148Y-83795800D01*
X50778152Y-91288800D02*
X50255648Y-91288800D01*
X50778152Y-92708800D02*
X50255648Y-92708800D01*
X58609300Y-80410952D02*
X58609300Y-79888448D01*
X57189300Y-80410952D02*
X57189300Y-79888448D01*
X77512812Y-117638760D02*
X76990308Y-117638760D01*
X77512812Y-119058760D02*
X76990308Y-119058760D01*
X95924628Y-125865960D02*
X96447132Y-125865960D01*
X95924628Y-124445960D02*
X96447132Y-124445960D01*
X82872948Y-126998800D02*
X83395452Y-126998800D01*
X82872948Y-125578800D02*
X83395452Y-125578800D01*
X95974268Y-122256480D02*
X96496772Y-122256480D01*
X95974268Y-123676480D02*
X96496772Y-123676480D01*
X91565800Y-128719948D02*
X91565800Y-129242452D01*
X90145800Y-128719948D02*
X90145800Y-129242452D01*
X77375652Y-92508000D02*
X76853148Y-92508000D01*
X77375652Y-93928000D02*
X76853148Y-93928000D01*
X98112948Y-103808600D02*
X98635452Y-103808600D01*
X98112948Y-102388600D02*
X98635452Y-102388600D01*
X83406348Y-100585200D02*
X83928852Y-100585200D01*
X83406348Y-102005200D02*
X83928852Y-102005200D01*
X98071148Y-99683500D02*
X98593652Y-99683500D01*
X98071148Y-101103500D02*
X98593652Y-101103500D01*
X90323600Y-102312948D02*
X90323600Y-102835452D01*
X91743600Y-102312948D02*
X91743600Y-102835452D01*
X68317640Y-122173480D02*
G75*
G03X68317640Y-122173480I-1200000J0D01*
G01*
X68317640Y-125173480D02*
G75*
G03X68317640Y-125173480I-1200000J0D01*
G01*
X68489400Y-96510800D02*
G75*
G03X68489400Y-96510800I-1200000J0D01*
G01*
X68489400Y-99510800D02*
G75*
G03X68489400Y-99510800I-1200000J0D01*
G01*
X79274600Y-114978400D02*
G75*
G03X79274600Y-114978400I-1200000J0D01*
G01*
X79274600Y-111978400D02*
G75*
G03X79274600Y-111978400I-1200000J0D01*
G01*
X79385600Y-90093200D02*
G75*
G03X79385600Y-90093200I-1200000J0D01*
G01*
X79385600Y-87093200D02*
G75*
G03X79385600Y-87093200I-1200000J0D01*
G01*
D11*
X61942239Y-121428479D02*
X61717239Y-121428479D01*
X61942239Y-114178479D02*
X61617239Y-114178479D01*
X54692239Y-114178479D02*
X55017239Y-114178479D01*
X54692239Y-121428479D02*
X55017239Y-121428479D01*
X61942239Y-121428479D02*
X61942239Y-121103479D01*
X54692239Y-121428479D02*
X54692239Y-121103479D01*
X54692239Y-114178479D02*
X54692239Y-114503479D01*
X61942239Y-114178479D02*
X61942239Y-114503479D01*
X61717239Y-121428479D02*
X61717239Y-122853479D01*
X62091399Y-94961679D02*
X62091399Y-96386679D01*
X62316399Y-87711679D02*
X62316399Y-88036679D01*
X55066399Y-87711679D02*
X55066399Y-88036679D01*
X55066399Y-94961679D02*
X55066399Y-94636679D01*
X62316399Y-94961679D02*
X62316399Y-94636679D01*
X55066399Y-94961679D02*
X55391399Y-94961679D01*
X55066399Y-87711679D02*
X55391399Y-87711679D01*
X62316399Y-87711679D02*
X61991399Y-87711679D01*
X62316399Y-94961679D02*
X62091399Y-94961679D01*
X82531401Y-115584001D02*
X82756401Y-115584001D01*
X82531401Y-122834001D02*
X82856401Y-122834001D01*
X89781401Y-122834001D02*
X89456401Y-122834001D01*
X89781401Y-115584001D02*
X89456401Y-115584001D01*
X82531401Y-115584001D02*
X82531401Y-115909001D01*
X89781401Y-115584001D02*
X89781401Y-115909001D01*
X89781401Y-122834001D02*
X89781401Y-122509001D01*
X82531401Y-122834001D02*
X82531401Y-122509001D01*
X82756401Y-115584001D02*
X82756401Y-114159001D01*
X83315600Y-90558200D02*
X83315600Y-89133200D01*
X83090600Y-97808200D02*
X83090600Y-97483200D01*
X90340600Y-97808200D02*
X90340600Y-97483200D01*
X90340600Y-90558200D02*
X90340600Y-90883200D01*
X83090600Y-90558200D02*
X83090600Y-90883200D01*
X90340600Y-90558200D02*
X90015600Y-90558200D01*
X90340600Y-97808200D02*
X90015600Y-97808200D01*
X83090600Y-97808200D02*
X83415600Y-97808200D01*
X83090600Y-90558200D02*
X83315600Y-90558200D01*
D10*
X37400000Y-131460000D02*
X42600000Y-131460000D01*
X42600000Y-131460000D02*
X42600000Y-130890000D01*
X42600000Y-129370000D02*
X42600000Y-128350000D01*
X42600000Y-126830000D02*
X42600000Y-125810000D01*
X42600000Y-124290000D02*
X42600000Y-123270000D01*
X42600000Y-121750000D02*
X42600000Y-120730000D01*
X42600000Y-119210000D02*
X42600000Y-118190000D01*
X42600000Y-116670000D02*
X42600000Y-115650000D01*
X42600000Y-114130000D02*
X42600000Y-113110000D01*
X42600000Y-111590000D02*
X42600000Y-110570000D01*
X42600000Y-109050000D02*
X42600000Y-108030000D01*
X42600000Y-106510000D02*
X42600000Y-105490000D01*
X42600000Y-103970000D02*
X42600000Y-102950000D01*
X42600000Y-101430000D02*
X42600000Y-100410000D01*
X42600000Y-98890000D02*
X42600000Y-97870000D01*
X42600000Y-96350000D02*
X42600000Y-95330000D01*
X42600000Y-93810000D02*
X42600000Y-92790000D01*
X42600000Y-91270000D02*
X42600000Y-90250000D01*
X42600000Y-88730000D02*
X42600000Y-87710000D01*
X42600000Y-86190000D02*
X42600000Y-85170000D01*
X42600000Y-83650000D02*
X42600000Y-82630000D01*
X42600000Y-81110000D02*
X42600000Y-80540000D01*
X37400000Y-80540000D02*
X42600000Y-80540000D01*
X37400000Y-131460000D02*
X37400000Y-130890000D01*
X37400000Y-129370000D02*
X37400000Y-128350000D01*
X37400000Y-126830000D02*
X37400000Y-125810000D01*
X37400000Y-124290000D02*
X37400000Y-123270000D01*
X37400000Y-121750000D02*
X37400000Y-120730000D01*
X37400000Y-119210000D02*
X37400000Y-118190000D01*
X37400000Y-116670000D02*
X37400000Y-115650000D01*
X37400000Y-114130000D02*
X37400000Y-113110000D01*
X37400000Y-111590000D02*
X37400000Y-110570000D01*
X37400000Y-109050000D02*
X37400000Y-108030000D01*
X37400000Y-106510000D02*
X37400000Y-105490000D01*
X37400000Y-103970000D02*
X37400000Y-102950000D01*
X37400000Y-101430000D02*
X37400000Y-100410000D01*
X37400000Y-98890000D02*
X37400000Y-97870000D01*
X37400000Y-96350000D02*
X37400000Y-95330000D01*
X37400000Y-93810000D02*
X37400000Y-92790000D01*
X37400000Y-91270000D02*
X37400000Y-90250000D01*
X37400000Y-88730000D02*
X37400000Y-87710000D01*
X37400000Y-86190000D02*
X37400000Y-85170000D01*
X37400000Y-83650000D02*
X37400000Y-82630000D01*
X37400000Y-81110000D02*
X37400000Y-80540000D01*
X42600000Y-130890000D02*
X43960000Y-130890000D01*
X62778272Y-76351200D02*
X62255768Y-76351200D01*
X62778272Y-74931200D02*
X62255768Y-74931200D01*
X67466688Y-110354180D02*
X67989192Y-110354180D01*
X67466688Y-108934180D02*
X67989192Y-108934180D01*
X67499488Y-110889980D02*
X68021992Y-110889980D01*
X67499488Y-112309980D02*
X68021992Y-112309980D01*
X67492088Y-114278480D02*
X68014592Y-114278480D01*
X67492088Y-112858480D02*
X68014592Y-112858480D01*
X67268348Y-84595900D02*
X67790852Y-84595900D01*
X67268348Y-86015900D02*
X67790852Y-86015900D01*
X67268348Y-88047900D02*
X67790852Y-88047900D01*
X67268348Y-86627900D02*
X67790852Y-86627900D01*
X67286348Y-88659900D02*
X67808852Y-88659900D01*
X67286348Y-90079900D02*
X67808852Y-90079900D01*
X77502652Y-127387280D02*
X76980148Y-127387280D01*
X77502652Y-128807280D02*
X76980148Y-128807280D01*
X77558532Y-125253680D02*
X77036028Y-125253680D01*
X77558532Y-126673680D02*
X77036028Y-126673680D01*
X77599172Y-123130240D02*
X77076668Y-123130240D01*
X77599172Y-124550240D02*
X77076668Y-124550240D01*
X78594852Y-103834000D02*
X78072348Y-103834000D01*
X78594852Y-102414000D02*
X78072348Y-102414000D01*
X78594852Y-100178800D02*
X78072348Y-100178800D01*
X78594852Y-101598800D02*
X78072348Y-101598800D01*
X78594852Y-99414400D02*
X78072348Y-99414400D01*
X78594852Y-97994400D02*
X78072348Y-97994400D01*
X71317640Y-122173480D02*
G75*
G03X71317640Y-122173480I-1200000J0D01*
G01*
X71489400Y-96510800D02*
G75*
G03X71489400Y-96510800I-1200000J0D01*
G01*
X76274600Y-114978400D02*
G75*
G03X76274600Y-114978400I-1200000J0D01*
G01*
X76385600Y-90093200D02*
G75*
G03X76385600Y-90093200I-1200000J0D01*
G01*
X52406292Y-127308680D02*
X51883788Y-127308680D01*
X52406292Y-125888680D02*
X51883788Y-125888680D01*
X55938788Y-125888680D02*
X56461292Y-125888680D01*
X55938788Y-127308680D02*
X56461292Y-127308680D01*
X53749732Y-99548880D02*
X53227228Y-99548880D01*
X53749732Y-100968880D02*
X53227228Y-100968880D01*
X57213868Y-100968880D02*
X57736372Y-100968880D01*
X57213868Y-99548880D02*
X57736372Y-99548880D01*
X90560148Y-111377800D02*
X91082652Y-111377800D01*
X90560148Y-109957800D02*
X91082652Y-109957800D01*
X87189052Y-111377800D02*
X86666548Y-111377800D01*
X87189052Y-109957800D02*
X86666548Y-109957800D01*
X91238548Y-84659400D02*
X91761052Y-84659400D01*
X91238548Y-86079400D02*
X91761052Y-86079400D01*
X87806052Y-84659400D02*
X87283548Y-84659400D01*
X87806052Y-86079400D02*
X87283548Y-86079400D01*
X76094900Y-74016560D02*
X70894900Y-74016560D01*
X76094900Y-79216560D02*
X70894900Y-79216560D01*
X77534900Y-74586560D02*
X76094900Y-74586560D01*
X76094900Y-74016560D02*
X76094900Y-74586560D01*
X70894900Y-74016560D02*
X70894900Y-74586560D01*
X76094900Y-78646560D02*
X76094900Y-79216560D01*
X70894900Y-78646560D02*
X70894900Y-79216560D01*
X76094900Y-76106560D02*
X76094900Y-77126560D01*
X70894900Y-76106560D02*
X70894900Y-77126560D01*
X53064960Y-109013720D02*
X53064960Y-107993720D01*
X47864960Y-109013720D02*
X47864960Y-107993720D01*
X53064960Y-111553720D02*
X53064960Y-110533720D01*
X47864960Y-111553720D02*
X47864960Y-110533720D01*
X53064960Y-106473720D02*
X53064960Y-105903720D01*
X47864960Y-106473720D02*
X47864960Y-105903720D01*
X53064960Y-113643720D02*
X53064960Y-113073720D01*
X47864960Y-113643720D02*
X47864960Y-113073720D01*
X46424960Y-113073720D02*
X47864960Y-113073720D01*
X47864960Y-105903720D02*
X53064960Y-105903720D01*
X47864960Y-113643720D02*
X53064960Y-113643720D01*
X54314400Y-80951800D02*
X54314400Y-79931800D01*
X49114400Y-80951800D02*
X49114400Y-79931800D01*
X54314400Y-83491800D02*
X54314400Y-82471800D01*
X49114400Y-83491800D02*
X49114400Y-82471800D01*
X54314400Y-78411800D02*
X54314400Y-77841800D01*
X49114400Y-78411800D02*
X49114400Y-77841800D01*
X54314400Y-85581800D02*
X54314400Y-85011800D01*
X49114400Y-85581800D02*
X49114400Y-85011800D01*
X47674400Y-85011800D02*
X49114400Y-85011800D01*
X49114400Y-77841800D02*
X54314400Y-77841800D01*
X49114400Y-85581800D02*
X54314400Y-85581800D01*
X102310000Y-108537700D02*
X97110000Y-108537700D01*
X102310000Y-116277700D02*
X97110000Y-116277700D01*
X103750000Y-109107700D02*
X102310000Y-109107700D01*
X102310000Y-108537700D02*
X102310000Y-109107700D01*
X97110000Y-108537700D02*
X97110000Y-109107700D01*
X102310000Y-115707700D02*
X102310000Y-116277700D01*
X97110000Y-115707700D02*
X97110000Y-116277700D01*
X102310000Y-110627700D02*
X102310000Y-111647700D01*
X97110000Y-110627700D02*
X97110000Y-111647700D01*
X102310000Y-113167700D02*
X102310000Y-114187700D01*
X97110000Y-113167700D02*
X97110000Y-114187700D01*
X102853800Y-82642400D02*
X97653800Y-82642400D01*
X102853800Y-90382400D02*
X97653800Y-90382400D01*
X104293800Y-83212400D02*
X102853800Y-83212400D01*
X102853800Y-82642400D02*
X102853800Y-83212400D01*
X97653800Y-82642400D02*
X97653800Y-83212400D01*
X102853800Y-89812400D02*
X102853800Y-90382400D01*
X97653800Y-89812400D02*
X97653800Y-90382400D01*
X102853800Y-84732400D02*
X102853800Y-85752400D01*
X97653800Y-84732400D02*
X97653800Y-85752400D01*
X102853800Y-87272400D02*
X102853800Y-88292400D01*
X97653800Y-87272400D02*
X97653800Y-88292400D01*
D11*
X55937090Y-102249290D02*
X55937090Y-102725480D01*
X56270423Y-101725480D02*
X55937090Y-102249290D01*
X55603757Y-101725480D01*
X55318042Y-101820719D02*
X55270423Y-101773100D01*
X55175185Y-101725480D01*
X54937090Y-101725480D01*
X54841852Y-101773100D01*
X54794233Y-101820719D01*
X54746614Y-101915957D01*
X54746614Y-102011195D01*
X54794233Y-102154052D01*
X55365661Y-102725480D01*
X54746614Y-102725480D01*
X54616290Y-128462090D02*
X54616290Y-128938280D01*
X54949623Y-127938280D02*
X54616290Y-128462090D01*
X54282957Y-127938280D01*
X53425814Y-128938280D02*
X53997242Y-128938280D01*
X53711528Y-128938280D02*
X53711528Y-127938280D01*
X53806766Y-128081138D01*
X53902004Y-128176376D01*
X53997242Y-128223995D01*
X89820690Y-105894190D02*
X89820690Y-106370380D01*
X90154023Y-105370380D02*
X89820690Y-105894190D01*
X89487357Y-105370380D01*
X89249261Y-105370380D02*
X88630214Y-105370380D01*
X88963547Y-105751333D01*
X88820690Y-105751333D01*
X88725452Y-105798952D01*
X88677833Y-105846571D01*
X88630214Y-105941809D01*
X88630214Y-106179904D01*
X88677833Y-106275142D01*
X88725452Y-106322761D01*
X88820690Y-106370380D01*
X89106404Y-106370380D01*
X89201642Y-106322761D01*
X89249261Y-106275142D01*
X90201690Y-80811690D02*
X90201690Y-81287880D01*
X90535023Y-80287880D02*
X90201690Y-80811690D01*
X89868357Y-80287880D01*
X89106452Y-80621214D02*
X89106452Y-81287880D01*
X89344547Y-80240261D02*
X89582642Y-80954547D01*
X88963595Y-80954547D01*
X64060342Y-105243333D02*
X64107961Y-105195714D01*
X64155580Y-105052857D01*
X64155580Y-104957619D01*
X64107961Y-104814761D01*
X64012723Y-104719523D01*
X63917485Y-104671904D01*
X63727009Y-104624285D01*
X63584152Y-104624285D01*
X63393676Y-104671904D01*
X63298438Y-104719523D01*
X63203200Y-104814761D01*
X63155580Y-104957619D01*
X63155580Y-105052857D01*
X63203200Y-105195714D01*
X63250819Y-105243333D01*
X64155580Y-106195714D02*
X64155580Y-105624285D01*
X64155580Y-105910000D02*
X63155580Y-105910000D01*
X63298438Y-105814761D01*
X63393676Y-105719523D01*
X63441295Y-105624285D01*
X61507666Y-126404642D02*
X61555285Y-126452261D01*
X61698142Y-126499880D01*
X61793380Y-126499880D01*
X61936238Y-126452261D01*
X62031476Y-126357023D01*
X62079095Y-126261785D01*
X62126714Y-126071309D01*
X62126714Y-125928452D01*
X62079095Y-125737976D01*
X62031476Y-125642738D01*
X61936238Y-125547500D01*
X61793380Y-125499880D01*
X61698142Y-125499880D01*
X61555285Y-125547500D01*
X61507666Y-125595119D01*
X61126714Y-125595119D02*
X61079095Y-125547500D01*
X60983857Y-125499880D01*
X60745761Y-125499880D01*
X60650523Y-125547500D01*
X60602904Y-125595119D01*
X60555285Y-125690357D01*
X60555285Y-125785595D01*
X60602904Y-125928452D01*
X61174333Y-126499880D01*
X60555285Y-126499880D01*
X65330342Y-105243333D02*
X65377961Y-105195714D01*
X65425580Y-105052857D01*
X65425580Y-104957619D01*
X65377961Y-104814761D01*
X65282723Y-104719523D01*
X65187485Y-104671904D01*
X64997009Y-104624285D01*
X64854152Y-104624285D01*
X64663676Y-104671904D01*
X64568438Y-104719523D01*
X64473200Y-104814761D01*
X64425580Y-104957619D01*
X64425580Y-105052857D01*
X64473200Y-105195714D01*
X64520819Y-105243333D01*
X64425580Y-105576666D02*
X64425580Y-106195714D01*
X64806533Y-105862380D01*
X64806533Y-106005238D01*
X64854152Y-106100476D01*
X64901771Y-106148095D01*
X64997009Y-106195714D01*
X65235104Y-106195714D01*
X65330342Y-106148095D01*
X65377961Y-106100476D01*
X65425580Y-106005238D01*
X65425580Y-105719523D01*
X65377961Y-105624285D01*
X65330342Y-105576666D01*
X65330342Y-79544942D02*
X65377961Y-79497323D01*
X65425580Y-79354466D01*
X65425580Y-79259228D01*
X65377961Y-79116371D01*
X65282723Y-79021133D01*
X65187485Y-78973514D01*
X64997009Y-78925895D01*
X64854152Y-78925895D01*
X64663676Y-78973514D01*
X64568438Y-79021133D01*
X64473200Y-79116371D01*
X64425580Y-79259228D01*
X64425580Y-79354466D01*
X64473200Y-79497323D01*
X64520819Y-79544942D01*
X65425580Y-80497323D02*
X65425580Y-79925895D01*
X65425580Y-80211609D02*
X64425580Y-80211609D01*
X64568438Y-80116371D01*
X64663676Y-80021133D01*
X64711295Y-79925895D01*
X64425580Y-81116371D02*
X64425580Y-81211609D01*
X64473200Y-81306847D01*
X64520819Y-81354466D01*
X64616057Y-81402085D01*
X64806533Y-81449704D01*
X65044628Y-81449704D01*
X65235104Y-81402085D01*
X65330342Y-81354466D01*
X65377961Y-81306847D01*
X65425580Y-81211609D01*
X65425580Y-81116371D01*
X65377961Y-81021133D01*
X65330342Y-80973514D01*
X65235104Y-80925895D01*
X65044628Y-80878276D01*
X64806533Y-80878276D01*
X64616057Y-80925895D01*
X64520819Y-80973514D01*
X64473200Y-81021133D01*
X64425580Y-81116371D01*
X62822057Y-99853022D02*
X62869676Y-99900641D01*
X63012533Y-99948260D01*
X63107771Y-99948260D01*
X63250628Y-99900641D01*
X63345866Y-99805403D01*
X63393485Y-99710165D01*
X63441104Y-99519689D01*
X63441104Y-99376832D01*
X63393485Y-99186356D01*
X63345866Y-99091118D01*
X63250628Y-98995880D01*
X63107771Y-98948260D01*
X63012533Y-98948260D01*
X62869676Y-98995880D01*
X62822057Y-99043499D01*
X61869676Y-99948260D02*
X62441104Y-99948260D01*
X62155390Y-99948260D02*
X62155390Y-98948260D01*
X62250628Y-99091118D01*
X62345866Y-99186356D01*
X62441104Y-99233975D01*
X60917295Y-99948260D02*
X61488723Y-99948260D01*
X61203009Y-99948260D02*
X61203009Y-98948260D01*
X61298247Y-99091118D01*
X61393485Y-99186356D01*
X61488723Y-99233975D01*
X66549542Y-79519542D02*
X66597161Y-79471923D01*
X66644780Y-79329066D01*
X66644780Y-79233828D01*
X66597161Y-79090971D01*
X66501923Y-78995733D01*
X66406685Y-78948114D01*
X66216209Y-78900495D01*
X66073352Y-78900495D01*
X65882876Y-78948114D01*
X65787638Y-78995733D01*
X65692400Y-79090971D01*
X65644780Y-79233828D01*
X65644780Y-79329066D01*
X65692400Y-79471923D01*
X65740019Y-79519542D01*
X66644780Y-80471923D02*
X66644780Y-79900495D01*
X66644780Y-80186209D02*
X65644780Y-80186209D01*
X65787638Y-80090971D01*
X65882876Y-79995733D01*
X65930495Y-79900495D01*
X65740019Y-80852876D02*
X65692400Y-80900495D01*
X65644780Y-80995733D01*
X65644780Y-81233828D01*
X65692400Y-81329066D01*
X65740019Y-81376685D01*
X65835257Y-81424304D01*
X65930495Y-81424304D01*
X66073352Y-81376685D01*
X66644780Y-80805257D01*
X66644780Y-81424304D01*
X94210142Y-128389142D02*
X94257761Y-128341523D01*
X94305380Y-128198666D01*
X94305380Y-128103428D01*
X94257761Y-127960571D01*
X94162523Y-127865333D01*
X94067285Y-127817714D01*
X93876809Y-127770095D01*
X93733952Y-127770095D01*
X93543476Y-127817714D01*
X93448238Y-127865333D01*
X93353000Y-127960571D01*
X93305380Y-128103428D01*
X93305380Y-128198666D01*
X93353000Y-128341523D01*
X93400619Y-128389142D01*
X94305380Y-129341523D02*
X94305380Y-128770095D01*
X94305380Y-129055809D02*
X93305380Y-129055809D01*
X93448238Y-128960571D01*
X93543476Y-128865333D01*
X93591095Y-128770095D01*
X93305380Y-129674857D02*
X93305380Y-130293904D01*
X93686333Y-129960571D01*
X93686333Y-130103428D01*
X93733952Y-130198666D01*
X93781571Y-130246285D01*
X93876809Y-130293904D01*
X94114904Y-130293904D01*
X94210142Y-130246285D01*
X94257761Y-130198666D01*
X94305380Y-130103428D01*
X94305380Y-129817714D01*
X94257761Y-129722476D01*
X94210142Y-129674857D01*
X84183457Y-111469442D02*
X84231076Y-111517061D01*
X84373933Y-111564680D01*
X84469171Y-111564680D01*
X84612028Y-111517061D01*
X84707266Y-111421823D01*
X84754885Y-111326585D01*
X84802504Y-111136109D01*
X84802504Y-110993252D01*
X84754885Y-110802776D01*
X84707266Y-110707538D01*
X84612028Y-110612300D01*
X84469171Y-110564680D01*
X84373933Y-110564680D01*
X84231076Y-110612300D01*
X84183457Y-110659919D01*
X83231076Y-111564680D02*
X83802504Y-111564680D01*
X83516790Y-111564680D02*
X83516790Y-110564680D01*
X83612028Y-110707538D01*
X83707266Y-110802776D01*
X83802504Y-110850395D01*
X82373933Y-110898014D02*
X82373933Y-111564680D01*
X82612028Y-110517061D02*
X82850123Y-111231347D01*
X82231076Y-111231347D01*
X92940142Y-128389142D02*
X92987761Y-128341523D01*
X93035380Y-128198666D01*
X93035380Y-128103428D01*
X92987761Y-127960571D01*
X92892523Y-127865333D01*
X92797285Y-127817714D01*
X92606809Y-127770095D01*
X92463952Y-127770095D01*
X92273476Y-127817714D01*
X92178238Y-127865333D01*
X92083000Y-127960571D01*
X92035380Y-128103428D01*
X92035380Y-128198666D01*
X92083000Y-128341523D01*
X92130619Y-128389142D01*
X93035380Y-129341523D02*
X93035380Y-128770095D01*
X93035380Y-129055809D02*
X92035380Y-129055809D01*
X92178238Y-128960571D01*
X92273476Y-128865333D01*
X92321095Y-128770095D01*
X92035380Y-130246285D02*
X92035380Y-129770095D01*
X92511571Y-129722476D01*
X92463952Y-129770095D01*
X92416333Y-129865333D01*
X92416333Y-130103428D01*
X92463952Y-130198666D01*
X92511571Y-130246285D01*
X92606809Y-130293904D01*
X92844904Y-130293904D01*
X92940142Y-130246285D01*
X92987761Y-130198666D01*
X93035380Y-130103428D01*
X93035380Y-129865333D01*
X92987761Y-129770095D01*
X92940142Y-129722476D01*
X94337142Y-101211142D02*
X94384761Y-101163523D01*
X94432380Y-101020666D01*
X94432380Y-100925428D01*
X94384761Y-100782571D01*
X94289523Y-100687333D01*
X94194285Y-100639714D01*
X94003809Y-100592095D01*
X93860952Y-100592095D01*
X93670476Y-100639714D01*
X93575238Y-100687333D01*
X93480000Y-100782571D01*
X93432380Y-100925428D01*
X93432380Y-101020666D01*
X93480000Y-101163523D01*
X93527619Y-101211142D01*
X94432380Y-102163523D02*
X94432380Y-101592095D01*
X94432380Y-101877809D02*
X93432380Y-101877809D01*
X93575238Y-101782571D01*
X93670476Y-101687333D01*
X93718095Y-101592095D01*
X93432380Y-103020666D02*
X93432380Y-102830190D01*
X93480000Y-102734952D01*
X93527619Y-102687333D01*
X93670476Y-102592095D01*
X93860952Y-102544476D01*
X94241904Y-102544476D01*
X94337142Y-102592095D01*
X94384761Y-102639714D01*
X94432380Y-102734952D01*
X94432380Y-102925428D01*
X94384761Y-103020666D01*
X94337142Y-103068285D01*
X94241904Y-103115904D01*
X94003809Y-103115904D01*
X93908571Y-103068285D01*
X93860952Y-103020666D01*
X93813333Y-102925428D01*
X93813333Y-102734952D01*
X93860952Y-102639714D01*
X93908571Y-102592095D01*
X94003809Y-102544476D01*
X83478642Y-86796642D02*
X83526261Y-86749023D01*
X83573880Y-86606166D01*
X83573880Y-86510928D01*
X83526261Y-86368071D01*
X83431023Y-86272833D01*
X83335785Y-86225214D01*
X83145309Y-86177595D01*
X83002452Y-86177595D01*
X82811976Y-86225214D01*
X82716738Y-86272833D01*
X82621500Y-86368071D01*
X82573880Y-86510928D01*
X82573880Y-86606166D01*
X82621500Y-86749023D01*
X82669119Y-86796642D01*
X83573880Y-87749023D02*
X83573880Y-87177595D01*
X83573880Y-87463309D02*
X82573880Y-87463309D01*
X82716738Y-87368071D01*
X82811976Y-87272833D01*
X82859595Y-87177595D01*
X82573880Y-88082357D02*
X82573880Y-88749023D01*
X83573880Y-88320452D01*
X93067142Y-101147642D02*
X93114761Y-101100023D01*
X93162380Y-100957166D01*
X93162380Y-100861928D01*
X93114761Y-100719071D01*
X93019523Y-100623833D01*
X92924285Y-100576214D01*
X92733809Y-100528595D01*
X92590952Y-100528595D01*
X92400476Y-100576214D01*
X92305238Y-100623833D01*
X92210000Y-100719071D01*
X92162380Y-100861928D01*
X92162380Y-100957166D01*
X92210000Y-101100023D01*
X92257619Y-101147642D01*
X93162380Y-102100023D02*
X93162380Y-101528595D01*
X93162380Y-101814309D02*
X92162380Y-101814309D01*
X92305238Y-101719071D01*
X92400476Y-101623833D01*
X92448095Y-101528595D01*
X92590952Y-102671452D02*
X92543333Y-102576214D01*
X92495714Y-102528595D01*
X92400476Y-102480976D01*
X92352857Y-102480976D01*
X92257619Y-102528595D01*
X92210000Y-102576214D01*
X92162380Y-102671452D01*
X92162380Y-102861928D01*
X92210000Y-102957166D01*
X92257619Y-103004785D01*
X92352857Y-103052404D01*
X92400476Y-103052404D01*
X92495714Y-103004785D01*
X92543333Y-102957166D01*
X92590952Y-102861928D01*
X92590952Y-102671452D01*
X92638571Y-102576214D01*
X92686190Y-102528595D01*
X92781428Y-102480976D01*
X92971904Y-102480976D01*
X93067142Y-102528595D01*
X93114761Y-102576214D01*
X93162380Y-102671452D01*
X93162380Y-102861928D01*
X93114761Y-102957166D01*
X93067142Y-103004785D01*
X92971904Y-103052404D01*
X92781428Y-103052404D01*
X92686190Y-103004785D01*
X92638571Y-102957166D01*
X92590952Y-102861928D01*
X57477846Y-77786760D02*
X57811180Y-77310570D01*
X58049275Y-77786760D02*
X58049275Y-76786760D01*
X57668322Y-76786760D01*
X57573084Y-76834380D01*
X57525465Y-76881999D01*
X57477846Y-76977237D01*
X57477846Y-77120094D01*
X57525465Y-77215332D01*
X57573084Y-77262951D01*
X57668322Y-77310570D01*
X58049275Y-77310570D01*
X57144513Y-76786760D02*
X56477846Y-76786760D01*
X56906418Y-77786760D01*
X52287466Y-77795380D02*
X52620800Y-77319190D01*
X52858895Y-77795380D02*
X52858895Y-76795380D01*
X52477942Y-76795380D01*
X52382704Y-76843000D01*
X52335085Y-76890619D01*
X52287466Y-76985857D01*
X52287466Y-77128714D01*
X52335085Y-77223952D01*
X52382704Y-77271571D01*
X52477942Y-77319190D01*
X52858895Y-77319190D01*
X51716038Y-77223952D02*
X51811276Y-77176333D01*
X51858895Y-77128714D01*
X51906514Y-77033476D01*
X51906514Y-76985857D01*
X51858895Y-76890619D01*
X51811276Y-76843000D01*
X51716038Y-76795380D01*
X51525561Y-76795380D01*
X51430323Y-76843000D01*
X51382704Y-76890619D01*
X51335085Y-76985857D01*
X51335085Y-77033476D01*
X51382704Y-77128714D01*
X51430323Y-77176333D01*
X51525561Y-77223952D01*
X51716038Y-77223952D01*
X51811276Y-77271571D01*
X51858895Y-77319190D01*
X51906514Y-77414428D01*
X51906514Y-77604904D01*
X51858895Y-77700142D01*
X51811276Y-77747761D01*
X51716038Y-77795380D01*
X51525561Y-77795380D01*
X51430323Y-77747761D01*
X51382704Y-77700142D01*
X51335085Y-77604904D01*
X51335085Y-77414428D01*
X51382704Y-77319190D01*
X51430323Y-77271571D01*
X51525561Y-77223952D01*
X30329166Y-119959380D02*
X30662500Y-119483190D01*
X30900595Y-119959380D02*
X30900595Y-118959380D01*
X30519642Y-118959380D01*
X30424404Y-119007000D01*
X30376785Y-119054619D01*
X30329166Y-119149857D01*
X30329166Y-119292714D01*
X30376785Y-119387952D01*
X30424404Y-119435571D01*
X30519642Y-119483190D01*
X30900595Y-119483190D01*
X29852976Y-119959380D02*
X29662500Y-119959380D01*
X29567261Y-119911761D01*
X29519642Y-119864142D01*
X29424404Y-119721285D01*
X29376785Y-119530809D01*
X29376785Y-119149857D01*
X29424404Y-119054619D01*
X29472023Y-119007000D01*
X29567261Y-118959380D01*
X29757738Y-118959380D01*
X29852976Y-119007000D01*
X29900595Y-119054619D01*
X29948214Y-119149857D01*
X29948214Y-119387952D01*
X29900595Y-119483190D01*
X29852976Y-119530809D01*
X29757738Y-119578428D01*
X29567261Y-119578428D01*
X29472023Y-119530809D01*
X29424404Y-119483190D01*
X29376785Y-119387952D01*
X31249857Y-117546380D02*
X31583190Y-117070190D01*
X31821285Y-117546380D02*
X31821285Y-116546380D01*
X31440333Y-116546380D01*
X31345095Y-116594000D01*
X31297476Y-116641619D01*
X31249857Y-116736857D01*
X31249857Y-116879714D01*
X31297476Y-116974952D01*
X31345095Y-117022571D01*
X31440333Y-117070190D01*
X31821285Y-117070190D01*
X30297476Y-117546380D02*
X30868904Y-117546380D01*
X30583190Y-117546380D02*
X30583190Y-116546380D01*
X30678428Y-116689238D01*
X30773666Y-116784476D01*
X30868904Y-116832095D01*
X29678428Y-116546380D02*
X29583190Y-116546380D01*
X29487952Y-116594000D01*
X29440333Y-116641619D01*
X29392714Y-116736857D01*
X29345095Y-116927333D01*
X29345095Y-117165428D01*
X29392714Y-117355904D01*
X29440333Y-117451142D01*
X29487952Y-117498761D01*
X29583190Y-117546380D01*
X29678428Y-117546380D01*
X29773666Y-117498761D01*
X29821285Y-117451142D01*
X29868904Y-117355904D01*
X29916523Y-117165428D01*
X29916523Y-116927333D01*
X29868904Y-116736857D01*
X29821285Y-116641619D01*
X29773666Y-116594000D01*
X29678428Y-116546380D01*
X67367497Y-120725460D02*
X67700830Y-120249270D01*
X67938925Y-120725460D02*
X67938925Y-119725460D01*
X67557973Y-119725460D01*
X67462735Y-119773080D01*
X67415116Y-119820699D01*
X67367497Y-119915937D01*
X67367497Y-120058794D01*
X67415116Y-120154032D01*
X67462735Y-120201651D01*
X67557973Y-120249270D01*
X67938925Y-120249270D01*
X66415116Y-120725460D02*
X66986544Y-120725460D01*
X66700830Y-120725460D02*
X66700830Y-119725460D01*
X66796068Y-119868318D01*
X66891306Y-119963556D01*
X66986544Y-120011175D01*
X65462735Y-120725460D02*
X66034163Y-120725460D01*
X65748449Y-120725460D02*
X65748449Y-119725460D01*
X65843687Y-119868318D01*
X65938925Y-119963556D01*
X66034163Y-120011175D01*
X47188357Y-116339880D02*
X47521690Y-115863690D01*
X47759785Y-116339880D02*
X47759785Y-115339880D01*
X47378833Y-115339880D01*
X47283595Y-115387500D01*
X47235976Y-115435119D01*
X47188357Y-115530357D01*
X47188357Y-115673214D01*
X47235976Y-115768452D01*
X47283595Y-115816071D01*
X47378833Y-115863690D01*
X47759785Y-115863690D01*
X46235976Y-116339880D02*
X46807404Y-116339880D01*
X46521690Y-116339880D02*
X46521690Y-115339880D01*
X46616928Y-115482738D01*
X46712166Y-115577976D01*
X46807404Y-115625595D01*
X45855023Y-115435119D02*
X45807404Y-115387500D01*
X45712166Y-115339880D01*
X45474071Y-115339880D01*
X45378833Y-115387500D01*
X45331214Y-115435119D01*
X45283595Y-115530357D01*
X45283595Y-115625595D01*
X45331214Y-115768452D01*
X45902642Y-116339880D01*
X45283595Y-116339880D01*
X63584057Y-109773980D02*
X63917390Y-109297790D01*
X64155485Y-109773980D02*
X64155485Y-108773980D01*
X63774533Y-108773980D01*
X63679295Y-108821600D01*
X63631676Y-108869219D01*
X63584057Y-108964457D01*
X63584057Y-109107314D01*
X63631676Y-109202552D01*
X63679295Y-109250171D01*
X63774533Y-109297790D01*
X64155485Y-109297790D01*
X62631676Y-109773980D02*
X63203104Y-109773980D01*
X62917390Y-109773980D02*
X62917390Y-108773980D01*
X63012628Y-108916838D01*
X63107866Y-109012076D01*
X63203104Y-109059695D01*
X62298342Y-108773980D02*
X61679295Y-108773980D01*
X62012628Y-109154933D01*
X61869771Y-109154933D01*
X61774533Y-109202552D01*
X61726914Y-109250171D01*
X61679295Y-109345409D01*
X61679295Y-109583504D01*
X61726914Y-109678742D01*
X61774533Y-109726361D01*
X61869771Y-109773980D01*
X62155485Y-109773980D01*
X62250723Y-109726361D01*
X62298342Y-109678742D01*
X47251857Y-118498880D02*
X47585190Y-118022690D01*
X47823285Y-118498880D02*
X47823285Y-117498880D01*
X47442333Y-117498880D01*
X47347095Y-117546500D01*
X47299476Y-117594119D01*
X47251857Y-117689357D01*
X47251857Y-117832214D01*
X47299476Y-117927452D01*
X47347095Y-117975071D01*
X47442333Y-118022690D01*
X47823285Y-118022690D01*
X46299476Y-118498880D02*
X46870904Y-118498880D01*
X46585190Y-118498880D02*
X46585190Y-117498880D01*
X46680428Y-117641738D01*
X46775666Y-117736976D01*
X46870904Y-117784595D01*
X45442333Y-117832214D02*
X45442333Y-118498880D01*
X45680428Y-117451261D02*
X45918523Y-118165547D01*
X45299476Y-118165547D01*
X62834780Y-105275142D02*
X62358590Y-104941809D01*
X62834780Y-104703714D02*
X61834780Y-104703714D01*
X61834780Y-105084666D01*
X61882400Y-105179904D01*
X61930019Y-105227523D01*
X62025257Y-105275142D01*
X62168114Y-105275142D01*
X62263352Y-105227523D01*
X62310971Y-105179904D01*
X62358590Y-105084666D01*
X62358590Y-104703714D01*
X62834780Y-106227523D02*
X62834780Y-105656095D01*
X62834780Y-105941809D02*
X61834780Y-105941809D01*
X61977638Y-105846571D01*
X62072876Y-105751333D01*
X62120495Y-105656095D01*
X61834780Y-107132285D02*
X61834780Y-106656095D01*
X62310971Y-106608476D01*
X62263352Y-106656095D01*
X62215733Y-106751333D01*
X62215733Y-106989428D01*
X62263352Y-107084666D01*
X62310971Y-107132285D01*
X62406209Y-107179904D01*
X62644304Y-107179904D01*
X62739542Y-107132285D01*
X62787161Y-107084666D01*
X62834780Y-106989428D01*
X62834780Y-106751333D01*
X62787161Y-106656095D01*
X62739542Y-106608476D01*
X66784457Y-91968580D02*
X67117790Y-91492390D01*
X67355885Y-91968580D02*
X67355885Y-90968580D01*
X66974933Y-90968580D01*
X66879695Y-91016200D01*
X66832076Y-91063819D01*
X66784457Y-91159057D01*
X66784457Y-91301914D01*
X66832076Y-91397152D01*
X66879695Y-91444771D01*
X66974933Y-91492390D01*
X67355885Y-91492390D01*
X65832076Y-91968580D02*
X66403504Y-91968580D01*
X66117790Y-91968580D02*
X66117790Y-90968580D01*
X66213028Y-91111438D01*
X66308266Y-91206676D01*
X66403504Y-91254295D01*
X65260647Y-91397152D02*
X65355885Y-91349533D01*
X65403504Y-91301914D01*
X65451123Y-91206676D01*
X65451123Y-91159057D01*
X65403504Y-91063819D01*
X65355885Y-91016200D01*
X65260647Y-90968580D01*
X65070171Y-90968580D01*
X64974933Y-91016200D01*
X64927314Y-91063819D01*
X64879695Y-91159057D01*
X64879695Y-91206676D01*
X64927314Y-91301914D01*
X64974933Y-91349533D01*
X65070171Y-91397152D01*
X65260647Y-91397152D01*
X65355885Y-91444771D01*
X65403504Y-91492390D01*
X65451123Y-91587628D01*
X65451123Y-91778104D01*
X65403504Y-91873342D01*
X65355885Y-91920961D01*
X65260647Y-91968580D01*
X65070171Y-91968580D01*
X64974933Y-91920961D01*
X64927314Y-91873342D01*
X64879695Y-91778104D01*
X64879695Y-91587628D01*
X64927314Y-91492390D01*
X64974933Y-91444771D01*
X65070171Y-91397152D01*
X47912257Y-90063580D02*
X48245590Y-89587390D01*
X48483685Y-90063580D02*
X48483685Y-89063580D01*
X48102733Y-89063580D01*
X48007495Y-89111200D01*
X47959876Y-89158819D01*
X47912257Y-89254057D01*
X47912257Y-89396914D01*
X47959876Y-89492152D01*
X48007495Y-89539771D01*
X48102733Y-89587390D01*
X48483685Y-89587390D01*
X46959876Y-90063580D02*
X47531304Y-90063580D01*
X47245590Y-90063580D02*
X47245590Y-89063580D01*
X47340828Y-89206438D01*
X47436066Y-89301676D01*
X47531304Y-89349295D01*
X46483685Y-90063580D02*
X46293209Y-90063580D01*
X46197971Y-90015961D01*
X46150352Y-89968342D01*
X46055114Y-89825485D01*
X46007495Y-89635009D01*
X46007495Y-89254057D01*
X46055114Y-89158819D01*
X46102733Y-89111200D01*
X46197971Y-89063580D01*
X46388447Y-89063580D01*
X46483685Y-89111200D01*
X46531304Y-89158819D01*
X46578923Y-89254057D01*
X46578923Y-89492152D01*
X46531304Y-89587390D01*
X46483685Y-89635009D01*
X46388447Y-89682628D01*
X46197971Y-89682628D01*
X46102733Y-89635009D01*
X46055114Y-89587390D01*
X46007495Y-89492152D01*
X64600057Y-83332580D02*
X64933390Y-82856390D01*
X65171485Y-83332580D02*
X65171485Y-82332580D01*
X64790533Y-82332580D01*
X64695295Y-82380200D01*
X64647676Y-82427819D01*
X64600057Y-82523057D01*
X64600057Y-82665914D01*
X64647676Y-82761152D01*
X64695295Y-82808771D01*
X64790533Y-82856390D01*
X65171485Y-82856390D01*
X64219104Y-82427819D02*
X64171485Y-82380200D01*
X64076247Y-82332580D01*
X63838152Y-82332580D01*
X63742914Y-82380200D01*
X63695295Y-82427819D01*
X63647676Y-82523057D01*
X63647676Y-82618295D01*
X63695295Y-82761152D01*
X64266723Y-83332580D01*
X63647676Y-83332580D01*
X63028628Y-82332580D02*
X62933390Y-82332580D01*
X62838152Y-82380200D01*
X62790533Y-82427819D01*
X62742914Y-82523057D01*
X62695295Y-82713533D01*
X62695295Y-82951628D01*
X62742914Y-83142104D01*
X62790533Y-83237342D01*
X62838152Y-83284961D01*
X62933390Y-83332580D01*
X63028628Y-83332580D01*
X63123866Y-83284961D01*
X63171485Y-83237342D01*
X63219104Y-83142104D01*
X63266723Y-82951628D01*
X63266723Y-82713533D01*
X63219104Y-82523057D01*
X63171485Y-82427819D01*
X63123866Y-82380200D01*
X63028628Y-82332580D01*
X47912257Y-92095580D02*
X48245590Y-91619390D01*
X48483685Y-92095580D02*
X48483685Y-91095580D01*
X48102733Y-91095580D01*
X48007495Y-91143200D01*
X47959876Y-91190819D01*
X47912257Y-91286057D01*
X47912257Y-91428914D01*
X47959876Y-91524152D01*
X48007495Y-91571771D01*
X48102733Y-91619390D01*
X48483685Y-91619390D01*
X47531304Y-91190819D02*
X47483685Y-91143200D01*
X47388447Y-91095580D01*
X47150352Y-91095580D01*
X47055114Y-91143200D01*
X47007495Y-91190819D01*
X46959876Y-91286057D01*
X46959876Y-91381295D01*
X47007495Y-91524152D01*
X47578923Y-92095580D01*
X46959876Y-92095580D01*
X46007495Y-92095580D02*
X46578923Y-92095580D01*
X46293209Y-92095580D02*
X46293209Y-91095580D01*
X46388447Y-91238438D01*
X46483685Y-91333676D01*
X46578923Y-91381295D01*
X64282580Y-79646542D02*
X63806390Y-79313209D01*
X64282580Y-79075114D02*
X63282580Y-79075114D01*
X63282580Y-79456066D01*
X63330200Y-79551304D01*
X63377819Y-79598923D01*
X63473057Y-79646542D01*
X63615914Y-79646542D01*
X63711152Y-79598923D01*
X63758771Y-79551304D01*
X63806390Y-79456066D01*
X63806390Y-79075114D01*
X63377819Y-80027495D02*
X63330200Y-80075114D01*
X63282580Y-80170352D01*
X63282580Y-80408447D01*
X63330200Y-80503685D01*
X63377819Y-80551304D01*
X63473057Y-80598923D01*
X63568295Y-80598923D01*
X63711152Y-80551304D01*
X64282580Y-79979876D01*
X64282580Y-80598923D01*
X63377819Y-80979876D02*
X63330200Y-81027495D01*
X63282580Y-81122733D01*
X63282580Y-81360828D01*
X63330200Y-81456066D01*
X63377819Y-81503685D01*
X63473057Y-81551304D01*
X63568295Y-81551304D01*
X63711152Y-81503685D01*
X64282580Y-80932257D01*
X64282580Y-81551304D01*
X77287357Y-120467380D02*
X77620690Y-119991190D01*
X77858785Y-120467380D02*
X77858785Y-119467380D01*
X77477833Y-119467380D01*
X77382595Y-119515000D01*
X77334976Y-119562619D01*
X77287357Y-119657857D01*
X77287357Y-119800714D01*
X77334976Y-119895952D01*
X77382595Y-119943571D01*
X77477833Y-119991190D01*
X77858785Y-119991190D01*
X76906404Y-119562619D02*
X76858785Y-119515000D01*
X76763547Y-119467380D01*
X76525452Y-119467380D01*
X76430214Y-119515000D01*
X76382595Y-119562619D01*
X76334976Y-119657857D01*
X76334976Y-119753095D01*
X76382595Y-119895952D01*
X76954023Y-120467380D01*
X76334976Y-120467380D01*
X76001642Y-119467380D02*
X75382595Y-119467380D01*
X75715928Y-119848333D01*
X75573071Y-119848333D01*
X75477833Y-119895952D01*
X75430214Y-119943571D01*
X75382595Y-120038809D01*
X75382595Y-120276904D01*
X75430214Y-120372142D01*
X75477833Y-120419761D01*
X75573071Y-120467380D01*
X75858785Y-120467380D01*
X75954023Y-120419761D01*
X76001642Y-120372142D01*
X93543357Y-125610880D02*
X93876690Y-125134690D01*
X94114785Y-125610880D02*
X94114785Y-124610880D01*
X93733833Y-124610880D01*
X93638595Y-124658500D01*
X93590976Y-124706119D01*
X93543357Y-124801357D01*
X93543357Y-124944214D01*
X93590976Y-125039452D01*
X93638595Y-125087071D01*
X93733833Y-125134690D01*
X94114785Y-125134690D01*
X93162404Y-124706119D02*
X93114785Y-124658500D01*
X93019547Y-124610880D01*
X92781452Y-124610880D01*
X92686214Y-124658500D01*
X92638595Y-124706119D01*
X92590976Y-124801357D01*
X92590976Y-124896595D01*
X92638595Y-125039452D01*
X93210023Y-125610880D01*
X92590976Y-125610880D01*
X91733833Y-124944214D02*
X91733833Y-125610880D01*
X91971928Y-124563261D02*
X92210023Y-125277547D01*
X91590976Y-125277547D01*
X83777057Y-128391180D02*
X84110390Y-127914990D01*
X84348485Y-128391180D02*
X84348485Y-127391180D01*
X83967533Y-127391180D01*
X83872295Y-127438800D01*
X83824676Y-127486419D01*
X83777057Y-127581657D01*
X83777057Y-127724514D01*
X83824676Y-127819752D01*
X83872295Y-127867371D01*
X83967533Y-127914990D01*
X84348485Y-127914990D01*
X83396104Y-127486419D02*
X83348485Y-127438800D01*
X83253247Y-127391180D01*
X83015152Y-127391180D01*
X82919914Y-127438800D01*
X82872295Y-127486419D01*
X82824676Y-127581657D01*
X82824676Y-127676895D01*
X82872295Y-127819752D01*
X83443723Y-128391180D01*
X82824676Y-128391180D01*
X81919914Y-127391180D02*
X82396104Y-127391180D01*
X82443723Y-127867371D01*
X82396104Y-127819752D01*
X82300866Y-127772133D01*
X82062771Y-127772133D01*
X81967533Y-127819752D01*
X81919914Y-127867371D01*
X81872295Y-127962609D01*
X81872295Y-128200704D01*
X81919914Y-128295942D01*
X81967533Y-128343561D01*
X82062771Y-128391180D01*
X82300866Y-128391180D01*
X82396104Y-128343561D01*
X82443723Y-128295942D01*
X93606857Y-123578880D02*
X93940190Y-123102690D01*
X94178285Y-123578880D02*
X94178285Y-122578880D01*
X93797333Y-122578880D01*
X93702095Y-122626500D01*
X93654476Y-122674119D01*
X93606857Y-122769357D01*
X93606857Y-122912214D01*
X93654476Y-123007452D01*
X93702095Y-123055071D01*
X93797333Y-123102690D01*
X94178285Y-123102690D01*
X93225904Y-122674119D02*
X93178285Y-122626500D01*
X93083047Y-122578880D01*
X92844952Y-122578880D01*
X92749714Y-122626500D01*
X92702095Y-122674119D01*
X92654476Y-122769357D01*
X92654476Y-122864595D01*
X92702095Y-123007452D01*
X93273523Y-123578880D01*
X92654476Y-123578880D01*
X91797333Y-122578880D02*
X91987809Y-122578880D01*
X92083047Y-122626500D01*
X92130666Y-122674119D01*
X92225904Y-122816976D01*
X92273523Y-123007452D01*
X92273523Y-123388404D01*
X92225904Y-123483642D01*
X92178285Y-123531261D01*
X92083047Y-123578880D01*
X91892571Y-123578880D01*
X91797333Y-123531261D01*
X91749714Y-123483642D01*
X91702095Y-123388404D01*
X91702095Y-123150309D01*
X91749714Y-123055071D01*
X91797333Y-123007452D01*
X91892571Y-122959833D01*
X92083047Y-122959833D01*
X92178285Y-123007452D01*
X92225904Y-123055071D01*
X92273523Y-123150309D01*
X95702380Y-128389142D02*
X95226190Y-128055809D01*
X95702380Y-127817714D02*
X94702380Y-127817714D01*
X94702380Y-128198666D01*
X94750000Y-128293904D01*
X94797619Y-128341523D01*
X94892857Y-128389142D01*
X95035714Y-128389142D01*
X95130952Y-128341523D01*
X95178571Y-128293904D01*
X95226190Y-128198666D01*
X95226190Y-127817714D01*
X94797619Y-128770095D02*
X94750000Y-128817714D01*
X94702380Y-128912952D01*
X94702380Y-129151047D01*
X94750000Y-129246285D01*
X94797619Y-129293904D01*
X94892857Y-129341523D01*
X94988095Y-129341523D01*
X95130952Y-129293904D01*
X95702380Y-128722476D01*
X95702380Y-129341523D01*
X94702380Y-129674857D02*
X94702380Y-130341523D01*
X95702380Y-129912952D01*
X77795357Y-95321380D02*
X78128690Y-94845190D01*
X78366785Y-95321380D02*
X78366785Y-94321380D01*
X77985833Y-94321380D01*
X77890595Y-94369000D01*
X77842976Y-94416619D01*
X77795357Y-94511857D01*
X77795357Y-94654714D01*
X77842976Y-94749952D01*
X77890595Y-94797571D01*
X77985833Y-94845190D01*
X78366785Y-94845190D01*
X77414404Y-94416619D02*
X77366785Y-94369000D01*
X77271547Y-94321380D01*
X77033452Y-94321380D01*
X76938214Y-94369000D01*
X76890595Y-94416619D01*
X76842976Y-94511857D01*
X76842976Y-94607095D01*
X76890595Y-94749952D01*
X77462023Y-95321380D01*
X76842976Y-95321380D01*
X76271547Y-94749952D02*
X76366785Y-94702333D01*
X76414404Y-94654714D01*
X76462023Y-94559476D01*
X76462023Y-94511857D01*
X76414404Y-94416619D01*
X76366785Y-94369000D01*
X76271547Y-94321380D01*
X76081071Y-94321380D01*
X75985833Y-94369000D01*
X75938214Y-94416619D01*
X75890595Y-94511857D01*
X75890595Y-94559476D01*
X75938214Y-94654714D01*
X75985833Y-94702333D01*
X76081071Y-94749952D01*
X76271547Y-94749952D01*
X76366785Y-94797571D01*
X76414404Y-94845190D01*
X76462023Y-94940428D01*
X76462023Y-95130904D01*
X76414404Y-95226142D01*
X76366785Y-95273761D01*
X76271547Y-95321380D01*
X76081071Y-95321380D01*
X75985833Y-95273761D01*
X75938214Y-95226142D01*
X75890595Y-95130904D01*
X75890595Y-94940428D01*
X75938214Y-94845190D01*
X75985833Y-94797571D01*
X76081071Y-94749952D01*
X102306357Y-103512880D02*
X102639690Y-103036690D01*
X102877785Y-103512880D02*
X102877785Y-102512880D01*
X102496833Y-102512880D01*
X102401595Y-102560500D01*
X102353976Y-102608119D01*
X102306357Y-102703357D01*
X102306357Y-102846214D01*
X102353976Y-102941452D01*
X102401595Y-102989071D01*
X102496833Y-103036690D01*
X102877785Y-103036690D01*
X101925404Y-102608119D02*
X101877785Y-102560500D01*
X101782547Y-102512880D01*
X101544452Y-102512880D01*
X101449214Y-102560500D01*
X101401595Y-102608119D01*
X101353976Y-102703357D01*
X101353976Y-102798595D01*
X101401595Y-102941452D01*
X101973023Y-103512880D01*
X101353976Y-103512880D01*
X100877785Y-103512880D02*
X100687309Y-103512880D01*
X100592071Y-103465261D01*
X100544452Y-103417642D01*
X100449214Y-103274785D01*
X100401595Y-103084309D01*
X100401595Y-102703357D01*
X100449214Y-102608119D01*
X100496833Y-102560500D01*
X100592071Y-102512880D01*
X100782547Y-102512880D01*
X100877785Y-102560500D01*
X100925404Y-102608119D01*
X100973023Y-102703357D01*
X100973023Y-102941452D01*
X100925404Y-103036690D01*
X100877785Y-103084309D01*
X100782547Y-103131928D01*
X100592071Y-103131928D01*
X100496833Y-103084309D01*
X100449214Y-103036690D01*
X100401595Y-102941452D01*
X83954857Y-103397580D02*
X84288190Y-102921390D01*
X84526285Y-103397580D02*
X84526285Y-102397580D01*
X84145333Y-102397580D01*
X84050095Y-102445200D01*
X84002476Y-102492819D01*
X83954857Y-102588057D01*
X83954857Y-102730914D01*
X84002476Y-102826152D01*
X84050095Y-102873771D01*
X84145333Y-102921390D01*
X84526285Y-102921390D01*
X83621523Y-102397580D02*
X83002476Y-102397580D01*
X83335809Y-102778533D01*
X83192952Y-102778533D01*
X83097714Y-102826152D01*
X83050095Y-102873771D01*
X83002476Y-102969009D01*
X83002476Y-103207104D01*
X83050095Y-103302342D01*
X83097714Y-103349961D01*
X83192952Y-103397580D01*
X83478666Y-103397580D01*
X83573904Y-103349961D01*
X83621523Y-103302342D01*
X82383428Y-102397580D02*
X82288190Y-102397580D01*
X82192952Y-102445200D01*
X82145333Y-102492819D01*
X82097714Y-102588057D01*
X82050095Y-102778533D01*
X82050095Y-103016628D01*
X82097714Y-103207104D01*
X82145333Y-103302342D01*
X82192952Y-103349961D01*
X82288190Y-103397580D01*
X82383428Y-103397580D01*
X82478666Y-103349961D01*
X82526285Y-103302342D01*
X82573904Y-103207104D01*
X82621523Y-103016628D01*
X82621523Y-102778533D01*
X82573904Y-102588057D01*
X82526285Y-102492819D01*
X82478666Y-102445200D01*
X82383428Y-102397580D01*
X102306357Y-100845880D02*
X102639690Y-100369690D01*
X102877785Y-100845880D02*
X102877785Y-99845880D01*
X102496833Y-99845880D01*
X102401595Y-99893500D01*
X102353976Y-99941119D01*
X102306357Y-100036357D01*
X102306357Y-100179214D01*
X102353976Y-100274452D01*
X102401595Y-100322071D01*
X102496833Y-100369690D01*
X102877785Y-100369690D01*
X101973023Y-99845880D02*
X101353976Y-99845880D01*
X101687309Y-100226833D01*
X101544452Y-100226833D01*
X101449214Y-100274452D01*
X101401595Y-100322071D01*
X101353976Y-100417309D01*
X101353976Y-100655404D01*
X101401595Y-100750642D01*
X101449214Y-100798261D01*
X101544452Y-100845880D01*
X101830166Y-100845880D01*
X101925404Y-100798261D01*
X101973023Y-100750642D01*
X100401595Y-100845880D02*
X100973023Y-100845880D01*
X100687309Y-100845880D02*
X100687309Y-99845880D01*
X100782547Y-99988738D01*
X100877785Y-100083976D01*
X100973023Y-100131595D01*
X95702380Y-101274642D02*
X95226190Y-100941309D01*
X95702380Y-100703214D02*
X94702380Y-100703214D01*
X94702380Y-101084166D01*
X94750000Y-101179404D01*
X94797619Y-101227023D01*
X94892857Y-101274642D01*
X95035714Y-101274642D01*
X95130952Y-101227023D01*
X95178571Y-101179404D01*
X95226190Y-101084166D01*
X95226190Y-100703214D01*
X94702380Y-101607976D02*
X94702380Y-102227023D01*
X95083333Y-101893690D01*
X95083333Y-102036547D01*
X95130952Y-102131785D01*
X95178571Y-102179404D01*
X95273809Y-102227023D01*
X95511904Y-102227023D01*
X95607142Y-102179404D01*
X95654761Y-102131785D01*
X95702380Y-102036547D01*
X95702380Y-101750833D01*
X95654761Y-101655595D01*
X95607142Y-101607976D01*
X94797619Y-102607976D02*
X94750000Y-102655595D01*
X94702380Y-102750833D01*
X94702380Y-102988928D01*
X94750000Y-103084166D01*
X94797619Y-103131785D01*
X94892857Y-103179404D01*
X94988095Y-103179404D01*
X95130952Y-103131785D01*
X95702380Y-102560357D01*
X95702380Y-103179404D01*
X57808880Y-117041574D02*
X58618404Y-117041574D01*
X58713642Y-117089193D01*
X58761261Y-117136812D01*
X58808880Y-117232050D01*
X58808880Y-117422526D01*
X58761261Y-117517764D01*
X58713642Y-117565383D01*
X58618404Y-117613002D01*
X57808880Y-117613002D01*
X57808880Y-118517764D02*
X57808880Y-118327288D01*
X57856500Y-118232050D01*
X57904119Y-118184431D01*
X58046976Y-118089193D01*
X58237452Y-118041574D01*
X58618404Y-118041574D01*
X58713642Y-118089193D01*
X58761261Y-118136812D01*
X58808880Y-118232050D01*
X58808880Y-118422526D01*
X58761261Y-118517764D01*
X58713642Y-118565383D01*
X58618404Y-118613002D01*
X58380309Y-118613002D01*
X58285071Y-118565383D01*
X58237452Y-118517764D01*
X58189833Y-118422526D01*
X58189833Y-118232050D01*
X58237452Y-118136812D01*
X58285071Y-118089193D01*
X58380309Y-118041574D01*
X58177180Y-90627295D02*
X58986704Y-90627295D01*
X59081942Y-90674914D01*
X59129561Y-90722533D01*
X59177180Y-90817771D01*
X59177180Y-91008247D01*
X59129561Y-91103485D01*
X59081942Y-91151104D01*
X58986704Y-91198723D01*
X58177180Y-91198723D01*
X58605752Y-91817771D02*
X58558133Y-91722533D01*
X58510514Y-91674914D01*
X58415276Y-91627295D01*
X58367657Y-91627295D01*
X58272419Y-91674914D01*
X58224800Y-91722533D01*
X58177180Y-91817771D01*
X58177180Y-92008247D01*
X58224800Y-92103485D01*
X58272419Y-92151104D01*
X58367657Y-92198723D01*
X58415276Y-92198723D01*
X58510514Y-92151104D01*
X58558133Y-92103485D01*
X58605752Y-92008247D01*
X58605752Y-91817771D01*
X58653371Y-91722533D01*
X58700990Y-91674914D01*
X58796228Y-91627295D01*
X58986704Y-91627295D01*
X59081942Y-91674914D01*
X59129561Y-91722533D01*
X59177180Y-91817771D01*
X59177180Y-92008247D01*
X59129561Y-92103485D01*
X59081942Y-92151104D01*
X58986704Y-92198723D01*
X58796228Y-92198723D01*
X58700990Y-92151104D01*
X58653371Y-92103485D01*
X58605752Y-92008247D01*
X85685380Y-118427595D02*
X86494904Y-118427595D01*
X86590142Y-118475214D01*
X86637761Y-118522833D01*
X86685380Y-118618071D01*
X86685380Y-118808547D01*
X86637761Y-118903785D01*
X86590142Y-118951404D01*
X86494904Y-118999023D01*
X85685380Y-118999023D01*
X86685380Y-119522833D02*
X86685380Y-119713309D01*
X86637761Y-119808547D01*
X86590142Y-119856166D01*
X86447285Y-119951404D01*
X86256809Y-119999023D01*
X85875857Y-119999023D01*
X85780619Y-119951404D01*
X85733000Y-119903785D01*
X85685380Y-119808547D01*
X85685380Y-119618071D01*
X85733000Y-119522833D01*
X85780619Y-119475214D01*
X85875857Y-119427595D01*
X86113952Y-119427595D01*
X86209190Y-119475214D01*
X86256809Y-119522833D01*
X86304428Y-119618071D01*
X86304428Y-119808547D01*
X86256809Y-119903785D01*
X86209190Y-119951404D01*
X86113952Y-119999023D01*
X86193380Y-92945104D02*
X87002904Y-92945104D01*
X87098142Y-92992723D01*
X87145761Y-93040342D01*
X87193380Y-93135580D01*
X87193380Y-93326057D01*
X87145761Y-93421295D01*
X87098142Y-93468914D01*
X87002904Y-93516533D01*
X86193380Y-93516533D01*
X87193380Y-94516533D02*
X87193380Y-93945104D01*
X87193380Y-94230819D02*
X86193380Y-94230819D01*
X86336238Y-94135580D01*
X86431476Y-94040342D01*
X86479095Y-93945104D01*
X86193380Y-95135580D02*
X86193380Y-95230819D01*
X86241000Y-95326057D01*
X86288619Y-95373676D01*
X86383857Y-95421295D01*
X86574333Y-95468914D01*
X86812428Y-95468914D01*
X87002904Y-95421295D01*
X87098142Y-95373676D01*
X87145761Y-95326057D01*
X87193380Y-95230819D01*
X87193380Y-95135580D01*
X87145761Y-95040342D01*
X87098142Y-94992723D01*
X87002904Y-94945104D01*
X86812428Y-94897485D01*
X86574333Y-94897485D01*
X86383857Y-94945104D01*
X86288619Y-94992723D01*
X86241000Y-95040342D01*
X86193380Y-95135580D01*
X39508180Y-122323266D02*
X40222466Y-122323266D01*
X40365323Y-122275647D01*
X40460561Y-122180409D01*
X40508180Y-122037552D01*
X40508180Y-121942314D01*
X39603419Y-122751838D02*
X39555800Y-122799457D01*
X39508180Y-122894695D01*
X39508180Y-123132790D01*
X39555800Y-123228028D01*
X39603419Y-123275647D01*
X39698657Y-123323266D01*
X39793895Y-123323266D01*
X39936752Y-123275647D01*
X40508180Y-122704219D01*
X40508180Y-123323266D01*
X62999857Y-77719180D02*
X63333190Y-77242990D01*
X63571285Y-77719180D02*
X63571285Y-76719180D01*
X63190333Y-76719180D01*
X63095095Y-76766800D01*
X63047476Y-76814419D01*
X62999857Y-76909657D01*
X62999857Y-77052514D01*
X63047476Y-77147752D01*
X63095095Y-77195371D01*
X63190333Y-77242990D01*
X63571285Y-77242990D01*
X62666523Y-76719180D02*
X62047476Y-76719180D01*
X62380809Y-77100133D01*
X62237952Y-77100133D01*
X62142714Y-77147752D01*
X62095095Y-77195371D01*
X62047476Y-77290609D01*
X62047476Y-77528704D01*
X62095095Y-77623942D01*
X62142714Y-77671561D01*
X62237952Y-77719180D01*
X62523666Y-77719180D01*
X62618904Y-77671561D01*
X62666523Y-77623942D01*
X61476047Y-77147752D02*
X61571285Y-77100133D01*
X61618904Y-77052514D01*
X61666523Y-76957276D01*
X61666523Y-76909657D01*
X61618904Y-76814419D01*
X61571285Y-76766800D01*
X61476047Y-76719180D01*
X61285571Y-76719180D01*
X61190333Y-76766800D01*
X61142714Y-76814419D01*
X61095095Y-76909657D01*
X61095095Y-76957276D01*
X61142714Y-77052514D01*
X61190333Y-77100133D01*
X61285571Y-77147752D01*
X61476047Y-77147752D01*
X61571285Y-77195371D01*
X61618904Y-77242990D01*
X61666523Y-77338228D01*
X61666523Y-77528704D01*
X61618904Y-77623942D01*
X61571285Y-77671561D01*
X61476047Y-77719180D01*
X61285571Y-77719180D01*
X61190333Y-77671561D01*
X61142714Y-77623942D01*
X61095095Y-77528704D01*
X61095095Y-77338228D01*
X61142714Y-77242990D01*
X61190333Y-77195371D01*
X61285571Y-77147752D01*
X71699357Y-110180380D02*
X72032690Y-109704190D01*
X72270785Y-110180380D02*
X72270785Y-109180380D01*
X71889833Y-109180380D01*
X71794595Y-109228000D01*
X71746976Y-109275619D01*
X71699357Y-109370857D01*
X71699357Y-109513714D01*
X71746976Y-109608952D01*
X71794595Y-109656571D01*
X71889833Y-109704190D01*
X72270785Y-109704190D01*
X71366023Y-109180380D02*
X70746976Y-109180380D01*
X71080309Y-109561333D01*
X70937452Y-109561333D01*
X70842214Y-109608952D01*
X70794595Y-109656571D01*
X70746976Y-109751809D01*
X70746976Y-109989904D01*
X70794595Y-110085142D01*
X70842214Y-110132761D01*
X70937452Y-110180380D01*
X71223166Y-110180380D01*
X71318404Y-110132761D01*
X71366023Y-110085142D01*
X70270785Y-110180380D02*
X70080309Y-110180380D01*
X69985071Y-110132761D01*
X69937452Y-110085142D01*
X69842214Y-109942285D01*
X69794595Y-109751809D01*
X69794595Y-109370857D01*
X69842214Y-109275619D01*
X69889833Y-109228000D01*
X69985071Y-109180380D01*
X70175547Y-109180380D01*
X70270785Y-109228000D01*
X70318404Y-109275619D01*
X70366023Y-109370857D01*
X70366023Y-109608952D01*
X70318404Y-109704190D01*
X70270785Y-109751809D01*
X70175547Y-109799428D01*
X69985071Y-109799428D01*
X69889833Y-109751809D01*
X69842214Y-109704190D01*
X69794595Y-109608952D01*
X71699357Y-112212380D02*
X72032690Y-111736190D01*
X72270785Y-112212380D02*
X72270785Y-111212380D01*
X71889833Y-111212380D01*
X71794595Y-111260000D01*
X71746976Y-111307619D01*
X71699357Y-111402857D01*
X71699357Y-111545714D01*
X71746976Y-111640952D01*
X71794595Y-111688571D01*
X71889833Y-111736190D01*
X72270785Y-111736190D01*
X70842214Y-111545714D02*
X70842214Y-112212380D01*
X71080309Y-111164761D02*
X71318404Y-111879047D01*
X70699357Y-111879047D01*
X70127928Y-111212380D02*
X70032690Y-111212380D01*
X69937452Y-111260000D01*
X69889833Y-111307619D01*
X69842214Y-111402857D01*
X69794595Y-111593333D01*
X69794595Y-111831428D01*
X69842214Y-112021904D01*
X69889833Y-112117142D01*
X69937452Y-112164761D01*
X70032690Y-112212380D01*
X70127928Y-112212380D01*
X70223166Y-112164761D01*
X70270785Y-112117142D01*
X70318404Y-112021904D01*
X70366023Y-111831428D01*
X70366023Y-111593333D01*
X70318404Y-111402857D01*
X70270785Y-111307619D01*
X70223166Y-111260000D01*
X70127928Y-111212380D01*
X71699357Y-114117380D02*
X72032690Y-113641190D01*
X72270785Y-114117380D02*
X72270785Y-113117380D01*
X71889833Y-113117380D01*
X71794595Y-113165000D01*
X71746976Y-113212619D01*
X71699357Y-113307857D01*
X71699357Y-113450714D01*
X71746976Y-113545952D01*
X71794595Y-113593571D01*
X71889833Y-113641190D01*
X72270785Y-113641190D01*
X70842214Y-113450714D02*
X70842214Y-114117380D01*
X71080309Y-113069761D02*
X71318404Y-113784047D01*
X70699357Y-113784047D01*
X69794595Y-114117380D02*
X70366023Y-114117380D01*
X70080309Y-114117380D02*
X70080309Y-113117380D01*
X70175547Y-113260238D01*
X70270785Y-113355476D01*
X70366023Y-113403095D01*
X71508857Y-85796380D02*
X71842190Y-85320190D01*
X72080285Y-85796380D02*
X72080285Y-84796380D01*
X71699333Y-84796380D01*
X71604095Y-84844000D01*
X71556476Y-84891619D01*
X71508857Y-84986857D01*
X71508857Y-85129714D01*
X71556476Y-85224952D01*
X71604095Y-85272571D01*
X71699333Y-85320190D01*
X72080285Y-85320190D01*
X70651714Y-85129714D02*
X70651714Y-85796380D01*
X70889809Y-84748761D02*
X71127904Y-85463047D01*
X70508857Y-85463047D01*
X70175523Y-84891619D02*
X70127904Y-84844000D01*
X70032666Y-84796380D01*
X69794571Y-84796380D01*
X69699333Y-84844000D01*
X69651714Y-84891619D01*
X69604095Y-84986857D01*
X69604095Y-85082095D01*
X69651714Y-85224952D01*
X70223142Y-85796380D01*
X69604095Y-85796380D01*
X71458057Y-87828380D02*
X71791390Y-87352190D01*
X72029485Y-87828380D02*
X72029485Y-86828380D01*
X71648533Y-86828380D01*
X71553295Y-86876000D01*
X71505676Y-86923619D01*
X71458057Y-87018857D01*
X71458057Y-87161714D01*
X71505676Y-87256952D01*
X71553295Y-87304571D01*
X71648533Y-87352190D01*
X72029485Y-87352190D01*
X70600914Y-87161714D02*
X70600914Y-87828380D01*
X70839009Y-86780761D02*
X71077104Y-87495047D01*
X70458057Y-87495047D01*
X70172342Y-86828380D02*
X69553295Y-86828380D01*
X69886628Y-87209333D01*
X69743771Y-87209333D01*
X69648533Y-87256952D01*
X69600914Y-87304571D01*
X69553295Y-87399809D01*
X69553295Y-87637904D01*
X69600914Y-87733142D01*
X69648533Y-87780761D01*
X69743771Y-87828380D01*
X70029485Y-87828380D01*
X70124723Y-87780761D01*
X70172342Y-87733142D01*
X71508857Y-89911180D02*
X71842190Y-89434990D01*
X72080285Y-89911180D02*
X72080285Y-88911180D01*
X71699333Y-88911180D01*
X71604095Y-88958800D01*
X71556476Y-89006419D01*
X71508857Y-89101657D01*
X71508857Y-89244514D01*
X71556476Y-89339752D01*
X71604095Y-89387371D01*
X71699333Y-89434990D01*
X72080285Y-89434990D01*
X70651714Y-89244514D02*
X70651714Y-89911180D01*
X70889809Y-88863561D02*
X71127904Y-89577847D01*
X70508857Y-89577847D01*
X69699333Y-89244514D02*
X69699333Y-89911180D01*
X69937428Y-88863561D02*
X70175523Y-89577847D01*
X69556476Y-89577847D01*
X74683857Y-128595380D02*
X75017190Y-128119190D01*
X75255285Y-128595380D02*
X75255285Y-127595380D01*
X74874333Y-127595380D01*
X74779095Y-127643000D01*
X74731476Y-127690619D01*
X74683857Y-127785857D01*
X74683857Y-127928714D01*
X74731476Y-128023952D01*
X74779095Y-128071571D01*
X74874333Y-128119190D01*
X75255285Y-128119190D01*
X73826714Y-127928714D02*
X73826714Y-128595380D01*
X74064809Y-127547761D02*
X74302904Y-128262047D01*
X73683857Y-128262047D01*
X72826714Y-127595380D02*
X73302904Y-127595380D01*
X73350523Y-128071571D01*
X73302904Y-128023952D01*
X73207666Y-127976333D01*
X72969571Y-127976333D01*
X72874333Y-128023952D01*
X72826714Y-128071571D01*
X72779095Y-128166809D01*
X72779095Y-128404904D01*
X72826714Y-128500142D01*
X72874333Y-128547761D01*
X72969571Y-128595380D01*
X73207666Y-128595380D01*
X73302904Y-128547761D01*
X73350523Y-128500142D01*
X74747357Y-126499880D02*
X75080690Y-126023690D01*
X75318785Y-126499880D02*
X75318785Y-125499880D01*
X74937833Y-125499880D01*
X74842595Y-125547500D01*
X74794976Y-125595119D01*
X74747357Y-125690357D01*
X74747357Y-125833214D01*
X74794976Y-125928452D01*
X74842595Y-125976071D01*
X74937833Y-126023690D01*
X75318785Y-126023690D01*
X73890214Y-125833214D02*
X73890214Y-126499880D01*
X74128309Y-125452261D02*
X74366404Y-126166547D01*
X73747357Y-126166547D01*
X72937833Y-125499880D02*
X73128309Y-125499880D01*
X73223547Y-125547500D01*
X73271166Y-125595119D01*
X73366404Y-125737976D01*
X73414023Y-125928452D01*
X73414023Y-126309404D01*
X73366404Y-126404642D01*
X73318785Y-126452261D01*
X73223547Y-126499880D01*
X73033071Y-126499880D01*
X72937833Y-126452261D01*
X72890214Y-126404642D01*
X72842595Y-126309404D01*
X72842595Y-126071309D01*
X72890214Y-125976071D01*
X72937833Y-125928452D01*
X73033071Y-125880833D01*
X73223547Y-125880833D01*
X73318785Y-125928452D01*
X73366404Y-125976071D01*
X73414023Y-126071309D01*
X74810857Y-124277380D02*
X75144190Y-123801190D01*
X75382285Y-124277380D02*
X75382285Y-123277380D01*
X75001333Y-123277380D01*
X74906095Y-123325000D01*
X74858476Y-123372619D01*
X74810857Y-123467857D01*
X74810857Y-123610714D01*
X74858476Y-123705952D01*
X74906095Y-123753571D01*
X75001333Y-123801190D01*
X75382285Y-123801190D01*
X73953714Y-123610714D02*
X73953714Y-124277380D01*
X74191809Y-123229761D02*
X74429904Y-123944047D01*
X73810857Y-123944047D01*
X73525142Y-123277380D02*
X72858476Y-123277380D01*
X73287047Y-124277380D01*
X75763357Y-103766880D02*
X76096690Y-103290690D01*
X76334785Y-103766880D02*
X76334785Y-102766880D01*
X75953833Y-102766880D01*
X75858595Y-102814500D01*
X75810976Y-102862119D01*
X75763357Y-102957357D01*
X75763357Y-103100214D01*
X75810976Y-103195452D01*
X75858595Y-103243071D01*
X75953833Y-103290690D01*
X76334785Y-103290690D01*
X74906214Y-103100214D02*
X74906214Y-103766880D01*
X75144309Y-102719261D02*
X75382404Y-103433547D01*
X74763357Y-103433547D01*
X74239547Y-103195452D02*
X74334785Y-103147833D01*
X74382404Y-103100214D01*
X74430023Y-103004976D01*
X74430023Y-102957357D01*
X74382404Y-102862119D01*
X74334785Y-102814500D01*
X74239547Y-102766880D01*
X74049071Y-102766880D01*
X73953833Y-102814500D01*
X73906214Y-102862119D01*
X73858595Y-102957357D01*
X73858595Y-103004976D01*
X73906214Y-103100214D01*
X73953833Y-103147833D01*
X74049071Y-103195452D01*
X74239547Y-103195452D01*
X74334785Y-103243071D01*
X74382404Y-103290690D01*
X74430023Y-103385928D01*
X74430023Y-103576404D01*
X74382404Y-103671642D01*
X74334785Y-103719261D01*
X74239547Y-103766880D01*
X74049071Y-103766880D01*
X73953833Y-103719261D01*
X73906214Y-103671642D01*
X73858595Y-103576404D01*
X73858595Y-103385928D01*
X73906214Y-103290690D01*
X73953833Y-103243071D01*
X74049071Y-103195452D01*
X75763357Y-101417380D02*
X76096690Y-100941190D01*
X76334785Y-101417380D02*
X76334785Y-100417380D01*
X75953833Y-100417380D01*
X75858595Y-100465000D01*
X75810976Y-100512619D01*
X75763357Y-100607857D01*
X75763357Y-100750714D01*
X75810976Y-100845952D01*
X75858595Y-100893571D01*
X75953833Y-100941190D01*
X76334785Y-100941190D01*
X74906214Y-100750714D02*
X74906214Y-101417380D01*
X75144309Y-100369761D02*
X75382404Y-101084047D01*
X74763357Y-101084047D01*
X74334785Y-101417380D02*
X74144309Y-101417380D01*
X74049071Y-101369761D01*
X74001452Y-101322142D01*
X73906214Y-101179285D01*
X73858595Y-100988809D01*
X73858595Y-100607857D01*
X73906214Y-100512619D01*
X73953833Y-100465000D01*
X74049071Y-100417380D01*
X74239547Y-100417380D01*
X74334785Y-100465000D01*
X74382404Y-100512619D01*
X74430023Y-100607857D01*
X74430023Y-100845952D01*
X74382404Y-100941190D01*
X74334785Y-100988809D01*
X74239547Y-101036428D01*
X74049071Y-101036428D01*
X73953833Y-100988809D01*
X73906214Y-100941190D01*
X73858595Y-100845952D01*
X75763357Y-99194880D02*
X76096690Y-98718690D01*
X76334785Y-99194880D02*
X76334785Y-98194880D01*
X75953833Y-98194880D01*
X75858595Y-98242500D01*
X75810976Y-98290119D01*
X75763357Y-98385357D01*
X75763357Y-98528214D01*
X75810976Y-98623452D01*
X75858595Y-98671071D01*
X75953833Y-98718690D01*
X76334785Y-98718690D01*
X74858595Y-98194880D02*
X75334785Y-98194880D01*
X75382404Y-98671071D01*
X75334785Y-98623452D01*
X75239547Y-98575833D01*
X75001452Y-98575833D01*
X74906214Y-98623452D01*
X74858595Y-98671071D01*
X74810976Y-98766309D01*
X74810976Y-99004404D01*
X74858595Y-99099642D01*
X74906214Y-99147261D01*
X75001452Y-99194880D01*
X75239547Y-99194880D01*
X75334785Y-99147261D01*
X75382404Y-99099642D01*
X74191928Y-98194880D02*
X74096690Y-98194880D01*
X74001452Y-98242500D01*
X73953833Y-98290119D01*
X73906214Y-98385357D01*
X73858595Y-98575833D01*
X73858595Y-98813928D01*
X73906214Y-99004404D01*
X73953833Y-99099642D01*
X74001452Y-99147261D01*
X74096690Y-99194880D01*
X74191928Y-99194880D01*
X74287166Y-99147261D01*
X74334785Y-99099642D01*
X74382404Y-99004404D01*
X74430023Y-98813928D01*
X74430023Y-98575833D01*
X74382404Y-98385357D01*
X74334785Y-98290119D01*
X74287166Y-98242500D01*
X74191928Y-98194880D01*
X49601357Y-128246142D02*
X49648976Y-128293761D01*
X49791833Y-128341380D01*
X49887071Y-128341380D01*
X50029928Y-128293761D01*
X50125166Y-128198523D01*
X50172785Y-128103285D01*
X50220404Y-127912809D01*
X50220404Y-127769952D01*
X50172785Y-127579476D01*
X50125166Y-127484238D01*
X50029928Y-127389000D01*
X49887071Y-127341380D01*
X49791833Y-127341380D01*
X49648976Y-127389000D01*
X49601357Y-127436619D01*
X49220404Y-127436619D02*
X49172785Y-127389000D01*
X49077547Y-127341380D01*
X48839452Y-127341380D01*
X48744214Y-127389000D01*
X48696595Y-127436619D01*
X48648976Y-127531857D01*
X48648976Y-127627095D01*
X48696595Y-127769952D01*
X49268023Y-128341380D01*
X48648976Y-128341380D01*
X48315642Y-127341380D02*
X47648976Y-127341380D01*
X48077547Y-128341380D01*
X60269357Y-127992142D02*
X60316976Y-128039761D01*
X60459833Y-128087380D01*
X60555071Y-128087380D01*
X60697928Y-128039761D01*
X60793166Y-127944523D01*
X60840785Y-127849285D01*
X60888404Y-127658809D01*
X60888404Y-127515952D01*
X60840785Y-127325476D01*
X60793166Y-127230238D01*
X60697928Y-127135000D01*
X60555071Y-127087380D01*
X60459833Y-127087380D01*
X60316976Y-127135000D01*
X60269357Y-127182619D01*
X59888404Y-127182619D02*
X59840785Y-127135000D01*
X59745547Y-127087380D01*
X59507452Y-127087380D01*
X59412214Y-127135000D01*
X59364595Y-127182619D01*
X59316976Y-127277857D01*
X59316976Y-127373095D01*
X59364595Y-127515952D01*
X59936023Y-128087380D01*
X59316976Y-128087380D01*
X58745547Y-127515952D02*
X58840785Y-127468333D01*
X58888404Y-127420714D01*
X58936023Y-127325476D01*
X58936023Y-127277857D01*
X58888404Y-127182619D01*
X58840785Y-127135000D01*
X58745547Y-127087380D01*
X58555071Y-127087380D01*
X58459833Y-127135000D01*
X58412214Y-127182619D01*
X58364595Y-127277857D01*
X58364595Y-127325476D01*
X58412214Y-127420714D01*
X58459833Y-127468333D01*
X58555071Y-127515952D01*
X58745547Y-127515952D01*
X58840785Y-127563571D01*
X58888404Y-127611190D01*
X58936023Y-127706428D01*
X58936023Y-127896904D01*
X58888404Y-127992142D01*
X58840785Y-128039761D01*
X58745547Y-128087380D01*
X58555071Y-128087380D01*
X58459833Y-128039761D01*
X58412214Y-127992142D01*
X58364595Y-127896904D01*
X58364595Y-127706428D01*
X58412214Y-127611190D01*
X58459833Y-127563571D01*
X58555071Y-127515952D01*
X50833257Y-102261942D02*
X50880876Y-102309561D01*
X51023733Y-102357180D01*
X51118971Y-102357180D01*
X51261828Y-102309561D01*
X51357066Y-102214323D01*
X51404685Y-102119085D01*
X51452304Y-101928609D01*
X51452304Y-101785752D01*
X51404685Y-101595276D01*
X51357066Y-101500038D01*
X51261828Y-101404800D01*
X51118971Y-101357180D01*
X51023733Y-101357180D01*
X50880876Y-101404800D01*
X50833257Y-101452419D01*
X50452304Y-101452419D02*
X50404685Y-101404800D01*
X50309447Y-101357180D01*
X50071352Y-101357180D01*
X49976114Y-101404800D01*
X49928495Y-101452419D01*
X49880876Y-101547657D01*
X49880876Y-101642895D01*
X49928495Y-101785752D01*
X50499923Y-102357180D01*
X49880876Y-102357180D01*
X49404685Y-102357180D02*
X49214209Y-102357180D01*
X49118971Y-102309561D01*
X49071352Y-102261942D01*
X48976114Y-102119085D01*
X48928495Y-101928609D01*
X48928495Y-101547657D01*
X48976114Y-101452419D01*
X49023733Y-101404800D01*
X49118971Y-101357180D01*
X49309447Y-101357180D01*
X49404685Y-101404800D01*
X49452304Y-101452419D01*
X49499923Y-101547657D01*
X49499923Y-101785752D01*
X49452304Y-101880990D01*
X49404685Y-101928609D01*
X49309447Y-101976228D01*
X49118971Y-101976228D01*
X49023733Y-101928609D01*
X48976114Y-101880990D01*
X48928495Y-101785752D01*
X61501257Y-102617542D02*
X61548876Y-102665161D01*
X61691733Y-102712780D01*
X61786971Y-102712780D01*
X61929828Y-102665161D01*
X62025066Y-102569923D01*
X62072685Y-102474685D01*
X62120304Y-102284209D01*
X62120304Y-102141352D01*
X62072685Y-101950876D01*
X62025066Y-101855638D01*
X61929828Y-101760400D01*
X61786971Y-101712780D01*
X61691733Y-101712780D01*
X61548876Y-101760400D01*
X61501257Y-101808019D01*
X61167923Y-101712780D02*
X60548876Y-101712780D01*
X60882209Y-102093733D01*
X60739352Y-102093733D01*
X60644114Y-102141352D01*
X60596495Y-102188971D01*
X60548876Y-102284209D01*
X60548876Y-102522304D01*
X60596495Y-102617542D01*
X60644114Y-102665161D01*
X60739352Y-102712780D01*
X61025066Y-102712780D01*
X61120304Y-102665161D01*
X61167923Y-102617542D01*
X59929828Y-101712780D02*
X59834590Y-101712780D01*
X59739352Y-101760400D01*
X59691733Y-101808019D01*
X59644114Y-101903257D01*
X59596495Y-102093733D01*
X59596495Y-102331828D01*
X59644114Y-102522304D01*
X59691733Y-102617542D01*
X59739352Y-102665161D01*
X59834590Y-102712780D01*
X59929828Y-102712780D01*
X60025066Y-102665161D01*
X60072685Y-102617542D01*
X60120304Y-102522304D01*
X60167923Y-102331828D01*
X60167923Y-102093733D01*
X60120304Y-101903257D01*
X60072685Y-101808019D01*
X60025066Y-101760400D01*
X59929828Y-101712780D01*
X91464257Y-112674942D02*
X91511876Y-112722561D01*
X91654733Y-112770180D01*
X91749971Y-112770180D01*
X91892828Y-112722561D01*
X91988066Y-112627323D01*
X92035685Y-112532085D01*
X92083304Y-112341609D01*
X92083304Y-112198752D01*
X92035685Y-112008276D01*
X91988066Y-111913038D01*
X91892828Y-111817800D01*
X91749971Y-111770180D01*
X91654733Y-111770180D01*
X91511876Y-111817800D01*
X91464257Y-111865419D01*
X91130923Y-111770180D02*
X90511876Y-111770180D01*
X90845209Y-112151133D01*
X90702352Y-112151133D01*
X90607114Y-112198752D01*
X90559495Y-112246371D01*
X90511876Y-112341609D01*
X90511876Y-112579704D01*
X90559495Y-112674942D01*
X90607114Y-112722561D01*
X90702352Y-112770180D01*
X90988066Y-112770180D01*
X91083304Y-112722561D01*
X91130923Y-112674942D01*
X89559495Y-112770180D02*
X90130923Y-112770180D01*
X89845209Y-112770180D02*
X89845209Y-111770180D01*
X89940447Y-111913038D01*
X90035685Y-112008276D01*
X90130923Y-112055895D01*
X88399857Y-112714042D02*
X88447476Y-112761661D01*
X88590333Y-112809280D01*
X88685571Y-112809280D01*
X88828428Y-112761661D01*
X88923666Y-112666423D01*
X88971285Y-112571185D01*
X89018904Y-112380709D01*
X89018904Y-112237852D01*
X88971285Y-112047376D01*
X88923666Y-111952138D01*
X88828428Y-111856900D01*
X88685571Y-111809280D01*
X88590333Y-111809280D01*
X88447476Y-111856900D01*
X88399857Y-111904519D01*
X88066523Y-111809280D02*
X87447476Y-111809280D01*
X87780809Y-112190233D01*
X87637952Y-112190233D01*
X87542714Y-112237852D01*
X87495095Y-112285471D01*
X87447476Y-112380709D01*
X87447476Y-112618804D01*
X87495095Y-112714042D01*
X87542714Y-112761661D01*
X87637952Y-112809280D01*
X87923666Y-112809280D01*
X88018904Y-112761661D01*
X88066523Y-112714042D01*
X87066523Y-111904519D02*
X87018904Y-111856900D01*
X86923666Y-111809280D01*
X86685571Y-111809280D01*
X86590333Y-111856900D01*
X86542714Y-111904519D01*
X86495095Y-111999757D01*
X86495095Y-112094995D01*
X86542714Y-112237852D01*
X87114142Y-112809280D01*
X86495095Y-112809280D01*
X93035357Y-87669642D02*
X93082976Y-87717261D01*
X93225833Y-87764880D01*
X93321071Y-87764880D01*
X93463928Y-87717261D01*
X93559166Y-87622023D01*
X93606785Y-87526785D01*
X93654404Y-87336309D01*
X93654404Y-87193452D01*
X93606785Y-87002976D01*
X93559166Y-86907738D01*
X93463928Y-86812500D01*
X93321071Y-86764880D01*
X93225833Y-86764880D01*
X93082976Y-86812500D01*
X93035357Y-86860119D01*
X92702023Y-86764880D02*
X92082976Y-86764880D01*
X92416309Y-87145833D01*
X92273452Y-87145833D01*
X92178214Y-87193452D01*
X92130595Y-87241071D01*
X92082976Y-87336309D01*
X92082976Y-87574404D01*
X92130595Y-87669642D01*
X92178214Y-87717261D01*
X92273452Y-87764880D01*
X92559166Y-87764880D01*
X92654404Y-87717261D01*
X92702023Y-87669642D01*
X91749642Y-86764880D02*
X91130595Y-86764880D01*
X91463928Y-87145833D01*
X91321071Y-87145833D01*
X91225833Y-87193452D01*
X91178214Y-87241071D01*
X91130595Y-87336309D01*
X91130595Y-87574404D01*
X91178214Y-87669642D01*
X91225833Y-87717261D01*
X91321071Y-87764880D01*
X91606785Y-87764880D01*
X91702023Y-87717261D01*
X91749642Y-87669642D01*
X89923857Y-87606142D02*
X89971476Y-87653761D01*
X90114333Y-87701380D01*
X90209571Y-87701380D01*
X90352428Y-87653761D01*
X90447666Y-87558523D01*
X90495285Y-87463285D01*
X90542904Y-87272809D01*
X90542904Y-87129952D01*
X90495285Y-86939476D01*
X90447666Y-86844238D01*
X90352428Y-86749000D01*
X90209571Y-86701380D01*
X90114333Y-86701380D01*
X89971476Y-86749000D01*
X89923857Y-86796619D01*
X89590523Y-86701380D02*
X88971476Y-86701380D01*
X89304809Y-87082333D01*
X89161952Y-87082333D01*
X89066714Y-87129952D01*
X89019095Y-87177571D01*
X88971476Y-87272809D01*
X88971476Y-87510904D01*
X89019095Y-87606142D01*
X89066714Y-87653761D01*
X89161952Y-87701380D01*
X89447666Y-87701380D01*
X89542904Y-87653761D01*
X89590523Y-87606142D01*
X88114333Y-87034714D02*
X88114333Y-87701380D01*
X88352428Y-86653761D02*
X88590523Y-87368047D01*
X87971476Y-87368047D01*
X72985380Y-75834976D02*
X73699666Y-75834976D01*
X73842523Y-75787357D01*
X73937761Y-75692119D01*
X73985380Y-75549261D01*
X73985380Y-75454023D01*
X73985380Y-76834976D02*
X73985380Y-76263547D01*
X73985380Y-76549261D02*
X72985380Y-76549261D01*
X73128238Y-76454023D01*
X73223476Y-76358785D01*
X73271095Y-76263547D01*
X73080619Y-77215928D02*
X73033000Y-77263547D01*
X72985380Y-77358785D01*
X72985380Y-77596880D01*
X73033000Y-77692119D01*
X73080619Y-77739738D01*
X73175857Y-77787357D01*
X73271095Y-77787357D01*
X73413952Y-77739738D01*
X73985380Y-77168309D01*
X73985380Y-77787357D01*
X49998380Y-109521666D02*
X50712666Y-109521666D01*
X50855523Y-109474047D01*
X50950761Y-109378809D01*
X50998380Y-109235952D01*
X50998380Y-109140714D01*
X49998380Y-110426428D02*
X49998380Y-110235952D01*
X50046000Y-110140714D01*
X50093619Y-110093095D01*
X50236476Y-109997857D01*
X50426952Y-109950238D01*
X50807904Y-109950238D01*
X50903142Y-109997857D01*
X50950761Y-110045476D01*
X50998380Y-110140714D01*
X50998380Y-110331190D01*
X50950761Y-110426428D01*
X50903142Y-110474047D01*
X50807904Y-110521666D01*
X50569809Y-110521666D01*
X50474571Y-110474047D01*
X50426952Y-110426428D01*
X50379333Y-110331190D01*
X50379333Y-110140714D01*
X50426952Y-110045476D01*
X50474571Y-109997857D01*
X50569809Y-109950238D01*
X51192180Y-83207266D02*
X51906466Y-83207266D01*
X52049323Y-83159647D01*
X52144561Y-83064409D01*
X52192180Y-82921552D01*
X52192180Y-82826314D01*
X51192180Y-83588219D02*
X51192180Y-84254885D01*
X52192180Y-83826314D01*
X99162380Y-112125166D02*
X99876666Y-112125166D01*
X100019523Y-112077547D01*
X100114761Y-111982309D01*
X100162380Y-111839452D01*
X100162380Y-111744214D01*
X99590952Y-112744214D02*
X99543333Y-112648976D01*
X99495714Y-112601357D01*
X99400476Y-112553738D01*
X99352857Y-112553738D01*
X99257619Y-112601357D01*
X99210000Y-112648976D01*
X99162380Y-112744214D01*
X99162380Y-112934690D01*
X99210000Y-113029928D01*
X99257619Y-113077547D01*
X99352857Y-113125166D01*
X99400476Y-113125166D01*
X99495714Y-113077547D01*
X99543333Y-113029928D01*
X99590952Y-112934690D01*
X99590952Y-112744214D01*
X99638571Y-112648976D01*
X99686190Y-112601357D01*
X99781428Y-112553738D01*
X99971904Y-112553738D01*
X100067142Y-112601357D01*
X100114761Y-112648976D01*
X100162380Y-112744214D01*
X100162380Y-112934690D01*
X100114761Y-113029928D01*
X100067142Y-113077547D01*
X99971904Y-113125166D01*
X99781428Y-113125166D01*
X99686190Y-113077547D01*
X99638571Y-113029928D01*
X99590952Y-112934690D01*
X100587133Y-81094780D02*
X100587133Y-81809066D01*
X100634752Y-81951923D01*
X100729990Y-82047161D01*
X100872847Y-82094780D01*
X100968085Y-82094780D01*
X100063323Y-82094780D02*
X99872847Y-82094780D01*
X99777609Y-82047161D01*
X99729990Y-81999542D01*
X99634752Y-81856685D01*
X99587133Y-81666209D01*
X99587133Y-81285257D01*
X99634752Y-81190019D01*
X99682371Y-81142400D01*
X99777609Y-81094780D01*
X99968085Y-81094780D01*
X100063323Y-81142400D01*
X100110942Y-81190019D01*
X100158561Y-81285257D01*
X100158561Y-81523352D01*
X100110942Y-81618590D01*
X100063323Y-81666209D01*
X99968085Y-81713828D01*
X99777609Y-81713828D01*
X99682371Y-81666209D01*
X99634752Y-81618590D01*
X99587133Y-81523352D01*
M02*
