G04 #@! TF.GenerationSoftware,KiCad,Pcbnew,(5.1.4)-1*
G04 #@! TF.CreationDate,2020-03-01T22:40:11-05:00*
G04 #@! TF.ProjectId,FPVRaceTimer,46505652-6163-4655-9469-6d65722e6b69,rev?*
G04 #@! TF.SameCoordinates,Original*
G04 #@! TF.FileFunction,Soldermask,Bot*
G04 #@! TF.FilePolarity,Negative*
%FSLAX46Y46*%
G04 Gerber Fmt 4.6, Leading zero omitted, Abs format (unit mm)*
G04 Created by KiCad (PCBNEW (5.1.4)-1) date 2020-03-01 22:40:11*
%MOMM*%
%LPD*%
G04 APERTURE LIST*
%ADD10C,0.100000*%
G04 APERTURE END LIST*
D10*
G36*
X71817800Y-138111800D02*
G01*
X70015800Y-138111800D01*
X70015800Y-136309800D01*
X71817800Y-136309800D01*
X71817800Y-138111800D01*
X71817800Y-138111800D01*
G37*
G36*
X60641800Y-138086400D02*
G01*
X58839800Y-138086400D01*
X58839800Y-136284400D01*
X60641800Y-136284400D01*
X60641800Y-138086400D01*
X60641800Y-138086400D01*
G37*
G36*
X66483800Y-138061000D02*
G01*
X64681800Y-138061000D01*
X64681800Y-136259000D01*
X66483800Y-136259000D01*
X66483800Y-138061000D01*
X66483800Y-138061000D01*
G37*
G36*
X40744098Y-132547033D02*
G01*
X41208350Y-132739332D01*
X41208352Y-132739333D01*
X41626168Y-133018509D01*
X41981491Y-133373832D01*
X42255261Y-133783558D01*
X42260668Y-133791650D01*
X42452967Y-134255902D01*
X42551000Y-134748747D01*
X42551000Y-135251253D01*
X42452967Y-135744098D01*
X42331093Y-136038329D01*
X42260667Y-136208352D01*
X41981491Y-136626168D01*
X41626168Y-136981491D01*
X41208352Y-137260667D01*
X41208351Y-137260668D01*
X41208350Y-137260668D01*
X40744098Y-137452967D01*
X40251253Y-137551000D01*
X39748747Y-137551000D01*
X39255902Y-137452967D01*
X38791650Y-137260668D01*
X38791649Y-137260668D01*
X38791648Y-137260667D01*
X38373832Y-136981491D01*
X38018509Y-136626168D01*
X37739333Y-136208352D01*
X37668907Y-136038329D01*
X37547033Y-135744098D01*
X37449000Y-135251253D01*
X37449000Y-134748747D01*
X37547033Y-134255902D01*
X37739332Y-133791650D01*
X37744739Y-133783558D01*
X38018509Y-133373832D01*
X38373832Y-133018509D01*
X38791648Y-132739333D01*
X38791650Y-132739332D01*
X39255902Y-132547033D01*
X39748747Y-132449000D01*
X40251253Y-132449000D01*
X40744098Y-132547033D01*
X40744098Y-132547033D01*
G37*
G36*
X89744098Y-132547033D02*
G01*
X90208350Y-132739332D01*
X90208352Y-132739333D01*
X90626168Y-133018509D01*
X90981491Y-133373832D01*
X91255261Y-133783558D01*
X91260668Y-133791650D01*
X91452967Y-134255902D01*
X91551000Y-134748747D01*
X91551000Y-135251253D01*
X91452967Y-135744098D01*
X91331093Y-136038329D01*
X91260667Y-136208352D01*
X90981491Y-136626168D01*
X90626168Y-136981491D01*
X90208352Y-137260667D01*
X90208351Y-137260668D01*
X90208350Y-137260668D01*
X89744098Y-137452967D01*
X89251253Y-137551000D01*
X88748747Y-137551000D01*
X88255902Y-137452967D01*
X87791650Y-137260668D01*
X87791649Y-137260668D01*
X87791648Y-137260667D01*
X87373832Y-136981491D01*
X87018509Y-136626168D01*
X86739333Y-136208352D01*
X86668907Y-136038329D01*
X86547033Y-135744098D01*
X86449000Y-135251253D01*
X86449000Y-134748747D01*
X86547033Y-134255902D01*
X86739332Y-133791650D01*
X86744739Y-133783558D01*
X87018509Y-133373832D01*
X87373832Y-133018509D01*
X87791648Y-132739333D01*
X87791650Y-132739332D01*
X88255902Y-132547033D01*
X88748747Y-132449000D01*
X89251253Y-132449000D01*
X89744098Y-132547033D01*
X89744098Y-132547033D01*
G37*
G36*
X30829297Y-131343704D02*
G01*
X31103637Y-131426924D01*
X31356462Y-131562062D01*
X31578070Y-131743930D01*
X31759938Y-131965538D01*
X31895076Y-132218363D01*
X31978296Y-132492703D01*
X32007000Y-132784140D01*
X32007000Y-135947860D01*
X31978296Y-136239297D01*
X31895076Y-136513637D01*
X31759938Y-136766462D01*
X31578070Y-136988070D01*
X31356462Y-137169938D01*
X31103637Y-137305076D01*
X30829297Y-137388296D01*
X30537860Y-137417000D01*
X27374140Y-137417000D01*
X27082703Y-137388296D01*
X26808363Y-137305076D01*
X26555538Y-137169938D01*
X26333930Y-136988070D01*
X26152062Y-136766462D01*
X26016924Y-136513637D01*
X25933704Y-136239297D01*
X25905000Y-135947860D01*
X25905000Y-132784140D01*
X25933704Y-132492703D01*
X26016924Y-132218363D01*
X26152062Y-131965538D01*
X26333930Y-131743930D01*
X26555538Y-131562062D01*
X26808363Y-131426924D01*
X27082703Y-131343704D01*
X27374140Y-131315000D01*
X30537860Y-131315000D01*
X30829297Y-131343704D01*
X30829297Y-131343704D01*
G37*
G36*
X71027243Y-133776319D02*
G01*
X71093427Y-133782837D01*
X71263266Y-133834357D01*
X71419791Y-133918022D01*
X71455529Y-133947352D01*
X71556986Y-134030614D01*
X71620365Y-134107843D01*
X71669578Y-134167809D01*
X71753243Y-134324334D01*
X71804763Y-134494173D01*
X71822159Y-134670800D01*
X71804763Y-134847427D01*
X71753243Y-135017266D01*
X71669578Y-135173791D01*
X71640248Y-135209529D01*
X71556986Y-135310986D01*
X71455529Y-135394248D01*
X71419791Y-135423578D01*
X71263266Y-135507243D01*
X71093427Y-135558763D01*
X71027243Y-135565281D01*
X70961060Y-135571800D01*
X70872540Y-135571800D01*
X70806357Y-135565281D01*
X70740173Y-135558763D01*
X70570334Y-135507243D01*
X70413809Y-135423578D01*
X70378071Y-135394248D01*
X70276614Y-135310986D01*
X70193352Y-135209529D01*
X70164022Y-135173791D01*
X70080357Y-135017266D01*
X70028837Y-134847427D01*
X70011441Y-134670800D01*
X70028837Y-134494173D01*
X70080357Y-134324334D01*
X70164022Y-134167809D01*
X70213235Y-134107843D01*
X70276614Y-134030614D01*
X70378071Y-133947352D01*
X70413809Y-133918022D01*
X70570334Y-133834357D01*
X70740173Y-133782837D01*
X70806357Y-133776319D01*
X70872540Y-133769800D01*
X70961060Y-133769800D01*
X71027243Y-133776319D01*
X71027243Y-133776319D01*
G37*
G36*
X59851242Y-133750918D02*
G01*
X59917427Y-133757437D01*
X60087266Y-133808957D01*
X60243791Y-133892622D01*
X60274741Y-133918022D01*
X60380986Y-134005214D01*
X60464248Y-134106671D01*
X60493578Y-134142409D01*
X60577243Y-134298934D01*
X60628763Y-134468773D01*
X60646159Y-134645400D01*
X60628763Y-134822027D01*
X60577243Y-134991866D01*
X60493578Y-135148391D01*
X60464248Y-135184129D01*
X60380986Y-135285586D01*
X60279529Y-135368848D01*
X60243791Y-135398178D01*
X60087266Y-135481843D01*
X59917427Y-135533363D01*
X59851242Y-135539882D01*
X59785060Y-135546400D01*
X59696540Y-135546400D01*
X59630358Y-135539882D01*
X59564173Y-135533363D01*
X59394334Y-135481843D01*
X59237809Y-135398178D01*
X59202071Y-135368848D01*
X59100614Y-135285586D01*
X59017352Y-135184129D01*
X58988022Y-135148391D01*
X58904357Y-134991866D01*
X58852837Y-134822027D01*
X58835441Y-134645400D01*
X58852837Y-134468773D01*
X58904357Y-134298934D01*
X58988022Y-134142409D01*
X59017352Y-134106671D01*
X59100614Y-134005214D01*
X59206859Y-133918022D01*
X59237809Y-133892622D01*
X59394334Y-133808957D01*
X59564173Y-133757437D01*
X59630358Y-133750918D01*
X59696540Y-133744400D01*
X59785060Y-133744400D01*
X59851242Y-133750918D01*
X59851242Y-133750918D01*
G37*
G36*
X65693243Y-133725519D02*
G01*
X65759427Y-133732037D01*
X65929266Y-133783557D01*
X66085791Y-133867222D01*
X66116741Y-133892622D01*
X66222986Y-133979814D01*
X66300155Y-134073846D01*
X66335578Y-134117009D01*
X66419243Y-134273534D01*
X66470763Y-134443373D01*
X66488159Y-134620000D01*
X66470763Y-134796627D01*
X66419243Y-134966466D01*
X66335578Y-135122991D01*
X66306248Y-135158729D01*
X66222986Y-135260186D01*
X66121529Y-135343448D01*
X66085791Y-135372778D01*
X65929266Y-135456443D01*
X65759427Y-135507963D01*
X65693243Y-135514481D01*
X65627060Y-135521000D01*
X65538540Y-135521000D01*
X65472357Y-135514481D01*
X65406173Y-135507963D01*
X65236334Y-135456443D01*
X65079809Y-135372778D01*
X65044071Y-135343448D01*
X64942614Y-135260186D01*
X64859352Y-135158729D01*
X64830022Y-135122991D01*
X64746357Y-134966466D01*
X64694837Y-134796627D01*
X64677441Y-134620000D01*
X64694837Y-134443373D01*
X64746357Y-134273534D01*
X64830022Y-134117009D01*
X64865445Y-134073846D01*
X64942614Y-133979814D01*
X65048859Y-133892622D01*
X65079809Y-133867222D01*
X65236334Y-133783557D01*
X65406173Y-133732037D01*
X65472357Y-133725519D01*
X65538540Y-133719000D01*
X65627060Y-133719000D01*
X65693243Y-133725519D01*
X65693243Y-133725519D01*
G37*
G36*
X39031000Y-130681000D02*
G01*
X35929000Y-130681000D01*
X35929000Y-129579000D01*
X39031000Y-129579000D01*
X39031000Y-130681000D01*
X39031000Y-130681000D01*
G37*
G36*
X44071000Y-130681000D02*
G01*
X40969000Y-130681000D01*
X40969000Y-129579000D01*
X44071000Y-129579000D01*
X44071000Y-130681000D01*
X44071000Y-130681000D01*
G37*
G36*
X91444474Y-129384665D02*
G01*
X91482167Y-129396099D01*
X91516903Y-129414666D01*
X91547348Y-129439652D01*
X91572334Y-129470097D01*
X91590901Y-129504833D01*
X91602335Y-129542526D01*
X91606800Y-129587861D01*
X91606800Y-130424539D01*
X91602335Y-130469874D01*
X91590901Y-130507567D01*
X91572334Y-130542303D01*
X91547348Y-130572748D01*
X91516903Y-130597734D01*
X91482167Y-130616301D01*
X91444474Y-130627735D01*
X91399139Y-130632200D01*
X90312461Y-130632200D01*
X90267126Y-130627735D01*
X90229433Y-130616301D01*
X90194697Y-130597734D01*
X90164252Y-130572748D01*
X90139266Y-130542303D01*
X90120699Y-130507567D01*
X90109265Y-130469874D01*
X90104800Y-130424539D01*
X90104800Y-129587861D01*
X90109265Y-129542526D01*
X90120699Y-129504833D01*
X90139266Y-129470097D01*
X90164252Y-129439652D01*
X90194697Y-129414666D01*
X90229433Y-129396099D01*
X90267126Y-129384665D01*
X90312461Y-129380200D01*
X91399139Y-129380200D01*
X91444474Y-129384665D01*
X91444474Y-129384665D01*
G37*
G36*
X89205068Y-129435565D02*
G01*
X89243738Y-129447296D01*
X89279377Y-129466346D01*
X89310617Y-129491983D01*
X89336254Y-129523223D01*
X89355304Y-129558862D01*
X89367035Y-129597532D01*
X89371600Y-129643888D01*
X89371600Y-130295112D01*
X89367035Y-130341468D01*
X89355304Y-130380138D01*
X89336254Y-130415777D01*
X89310617Y-130447017D01*
X89279377Y-130472654D01*
X89243738Y-130491704D01*
X89205068Y-130503435D01*
X89158712Y-130508000D01*
X88082488Y-130508000D01*
X88036132Y-130503435D01*
X87997462Y-130491704D01*
X87961823Y-130472654D01*
X87930583Y-130447017D01*
X87904946Y-130415777D01*
X87885896Y-130380138D01*
X87874165Y-130341468D01*
X87869600Y-130295112D01*
X87869600Y-129643888D01*
X87874165Y-129597532D01*
X87885896Y-129558862D01*
X87904946Y-129523223D01*
X87930583Y-129491983D01*
X87961823Y-129466346D01*
X87997462Y-129447296D01*
X88036132Y-129435565D01*
X88082488Y-129431000D01*
X89158712Y-129431000D01*
X89205068Y-129435565D01*
X89205068Y-129435565D01*
G37*
G36*
X87173068Y-129407865D02*
G01*
X87211738Y-129419596D01*
X87247377Y-129438646D01*
X87278617Y-129464283D01*
X87304254Y-129495523D01*
X87323304Y-129531162D01*
X87335035Y-129569832D01*
X87339600Y-129616188D01*
X87339600Y-130267412D01*
X87335035Y-130313768D01*
X87323304Y-130352438D01*
X87304254Y-130388077D01*
X87278617Y-130419317D01*
X87247377Y-130444954D01*
X87211738Y-130464004D01*
X87173068Y-130475735D01*
X87126712Y-130480300D01*
X86050488Y-130480300D01*
X86004132Y-130475735D01*
X85965462Y-130464004D01*
X85929823Y-130444954D01*
X85898583Y-130419317D01*
X85872946Y-130388077D01*
X85853896Y-130352438D01*
X85842165Y-130313768D01*
X85837600Y-130267412D01*
X85837600Y-129616188D01*
X85842165Y-129569832D01*
X85853896Y-129531162D01*
X85872946Y-129495523D01*
X85898583Y-129464283D01*
X85929823Y-129438646D01*
X85965462Y-129419596D01*
X86004132Y-129407865D01*
X86050488Y-129403300D01*
X87126712Y-129403300D01*
X87173068Y-129407865D01*
X87173068Y-129407865D01*
G37*
G36*
X58686840Y-130424680D02*
G01*
X55084840Y-130424680D01*
X55084840Y-129122680D01*
X58686840Y-129122680D01*
X58686840Y-130424680D01*
X58686840Y-130424680D01*
G37*
G36*
X53186840Y-130424680D02*
G01*
X49584840Y-130424680D01*
X49584840Y-129122680D01*
X53186840Y-129122680D01*
X53186840Y-130424680D01*
X53186840Y-130424680D01*
G37*
G36*
X29845943Y-124232248D02*
G01*
X30401189Y-124462238D01*
X30643335Y-124624035D01*
X30900899Y-124796134D01*
X31325866Y-125221101D01*
X31493948Y-125472653D01*
X31659762Y-125720811D01*
X31889752Y-126276057D01*
X32007000Y-126865501D01*
X32007000Y-127466499D01*
X31889752Y-128055943D01*
X31659762Y-128611189D01*
X31584620Y-128723647D01*
X31325866Y-129110899D01*
X30900899Y-129535866D01*
X30739233Y-129643888D01*
X30401189Y-129869762D01*
X29845943Y-130099752D01*
X29256499Y-130217000D01*
X28655501Y-130217000D01*
X28066057Y-130099752D01*
X27510811Y-129869762D01*
X27172767Y-129643888D01*
X27011101Y-129535866D01*
X26586134Y-129110899D01*
X26327380Y-128723647D01*
X26252238Y-128611189D01*
X26022248Y-128055943D01*
X25905000Y-127466499D01*
X25905000Y-126865501D01*
X26022248Y-126276057D01*
X26252238Y-125720811D01*
X26418052Y-125472653D01*
X26586134Y-125221101D01*
X27011101Y-124796134D01*
X27268665Y-124624035D01*
X27510811Y-124462238D01*
X28066057Y-124232248D01*
X28655501Y-124115000D01*
X29256499Y-124115000D01*
X29845943Y-124232248D01*
X29845943Y-124232248D01*
G37*
G36*
X78730074Y-127350745D02*
G01*
X78767767Y-127362179D01*
X78802503Y-127380746D01*
X78832948Y-127405732D01*
X78857934Y-127436177D01*
X78876501Y-127470913D01*
X78887935Y-127508606D01*
X78892400Y-127553941D01*
X78892400Y-128640619D01*
X78887935Y-128685954D01*
X78876501Y-128723647D01*
X78857934Y-128758383D01*
X78832948Y-128788828D01*
X78802503Y-128813814D01*
X78767767Y-128832381D01*
X78730074Y-128843815D01*
X78684739Y-128848280D01*
X77848061Y-128848280D01*
X77802726Y-128843815D01*
X77765033Y-128832381D01*
X77730297Y-128813814D01*
X77699852Y-128788828D01*
X77674866Y-128758383D01*
X77656299Y-128723647D01*
X77644865Y-128685954D01*
X77640400Y-128640619D01*
X77640400Y-127553941D01*
X77644865Y-127508606D01*
X77656299Y-127470913D01*
X77674866Y-127436177D01*
X77699852Y-127405732D01*
X77730297Y-127380746D01*
X77765033Y-127362179D01*
X77802726Y-127350745D01*
X77848061Y-127346280D01*
X78684739Y-127346280D01*
X78730074Y-127350745D01*
X78730074Y-127350745D01*
G37*
G36*
X76680074Y-127350745D02*
G01*
X76717767Y-127362179D01*
X76752503Y-127380746D01*
X76782948Y-127405732D01*
X76807934Y-127436177D01*
X76826501Y-127470913D01*
X76837935Y-127508606D01*
X76842400Y-127553941D01*
X76842400Y-128640619D01*
X76837935Y-128685954D01*
X76826501Y-128723647D01*
X76807934Y-128758383D01*
X76782948Y-128788828D01*
X76752503Y-128813814D01*
X76717767Y-128832381D01*
X76680074Y-128843815D01*
X76634739Y-128848280D01*
X75798061Y-128848280D01*
X75752726Y-128843815D01*
X75715033Y-128832381D01*
X75680297Y-128813814D01*
X75649852Y-128788828D01*
X75624866Y-128758383D01*
X75606299Y-128723647D01*
X75594865Y-128685954D01*
X75590400Y-128640619D01*
X75590400Y-127553941D01*
X75594865Y-127508606D01*
X75606299Y-127470913D01*
X75624866Y-127436177D01*
X75649852Y-127405732D01*
X75680297Y-127380746D01*
X75715033Y-127362179D01*
X75752726Y-127350745D01*
X75798061Y-127346280D01*
X76634739Y-127346280D01*
X76680074Y-127350745D01*
X76680074Y-127350745D01*
G37*
G36*
X89205068Y-127560565D02*
G01*
X89243738Y-127572296D01*
X89279377Y-127591346D01*
X89310617Y-127616983D01*
X89336254Y-127648223D01*
X89355304Y-127683862D01*
X89367035Y-127722532D01*
X89371600Y-127768888D01*
X89371600Y-128420112D01*
X89367035Y-128466468D01*
X89355304Y-128505138D01*
X89336254Y-128540777D01*
X89310617Y-128572017D01*
X89279377Y-128597654D01*
X89243738Y-128616704D01*
X89205068Y-128628435D01*
X89158712Y-128633000D01*
X88082488Y-128633000D01*
X88036132Y-128628435D01*
X87997462Y-128616704D01*
X87961823Y-128597654D01*
X87930583Y-128572017D01*
X87904946Y-128540777D01*
X87885896Y-128505138D01*
X87874165Y-128466468D01*
X87869600Y-128420112D01*
X87869600Y-127768888D01*
X87874165Y-127722532D01*
X87885896Y-127683862D01*
X87904946Y-127648223D01*
X87930583Y-127616983D01*
X87961823Y-127591346D01*
X87997462Y-127572296D01*
X88036132Y-127560565D01*
X88082488Y-127556000D01*
X89158712Y-127556000D01*
X89205068Y-127560565D01*
X89205068Y-127560565D01*
G37*
G36*
X87173068Y-127532865D02*
G01*
X87211738Y-127544596D01*
X87247377Y-127563646D01*
X87278617Y-127589283D01*
X87304254Y-127620523D01*
X87323304Y-127656162D01*
X87335035Y-127694832D01*
X87339600Y-127741188D01*
X87339600Y-128392412D01*
X87335035Y-128438768D01*
X87323304Y-128477438D01*
X87304254Y-128513077D01*
X87278617Y-128544317D01*
X87247377Y-128569954D01*
X87211738Y-128589004D01*
X87173068Y-128600735D01*
X87126712Y-128605300D01*
X86050488Y-128605300D01*
X86004132Y-128600735D01*
X85965462Y-128589004D01*
X85929823Y-128569954D01*
X85898583Y-128544317D01*
X85872946Y-128513077D01*
X85853896Y-128477438D01*
X85842165Y-128438768D01*
X85837600Y-128392412D01*
X85837600Y-127741188D01*
X85842165Y-127694832D01*
X85853896Y-127656162D01*
X85872946Y-127620523D01*
X85898583Y-127589283D01*
X85929823Y-127563646D01*
X85965462Y-127544596D01*
X86004132Y-127532865D01*
X86050488Y-127528300D01*
X87126712Y-127528300D01*
X87173068Y-127532865D01*
X87173068Y-127532865D01*
G37*
G36*
X91444474Y-127334665D02*
G01*
X91482167Y-127346099D01*
X91516903Y-127364666D01*
X91547348Y-127389652D01*
X91572334Y-127420097D01*
X91590901Y-127454833D01*
X91602335Y-127492526D01*
X91606800Y-127537861D01*
X91606800Y-128374539D01*
X91602335Y-128419874D01*
X91590901Y-128457567D01*
X91572334Y-128492303D01*
X91547348Y-128522748D01*
X91516903Y-128547734D01*
X91482167Y-128566301D01*
X91444474Y-128577735D01*
X91399139Y-128582200D01*
X90312461Y-128582200D01*
X90267126Y-128577735D01*
X90229433Y-128566301D01*
X90194697Y-128547734D01*
X90164252Y-128522748D01*
X90139266Y-128492303D01*
X90120699Y-128457567D01*
X90109265Y-128419874D01*
X90104800Y-128374539D01*
X90104800Y-127537861D01*
X90109265Y-127492526D01*
X90120699Y-127454833D01*
X90139266Y-127420097D01*
X90164252Y-127389652D01*
X90194697Y-127364666D01*
X90229433Y-127346099D01*
X90267126Y-127334665D01*
X90312461Y-127330200D01*
X91399139Y-127330200D01*
X91444474Y-127334665D01*
X91444474Y-127334665D01*
G37*
G36*
X39031000Y-128141000D02*
G01*
X35929000Y-128141000D01*
X35929000Y-127039000D01*
X39031000Y-127039000D01*
X39031000Y-128141000D01*
X39031000Y-128141000D01*
G37*
G36*
X44071000Y-128141000D02*
G01*
X40969000Y-128141000D01*
X40969000Y-127039000D01*
X44071000Y-127039000D01*
X44071000Y-128141000D01*
X44071000Y-128141000D01*
G37*
G36*
X55638714Y-125852145D02*
G01*
X55676407Y-125863579D01*
X55711143Y-125882146D01*
X55741588Y-125907132D01*
X55766574Y-125937577D01*
X55785141Y-125972313D01*
X55796575Y-126010006D01*
X55801040Y-126055341D01*
X55801040Y-127142019D01*
X55796575Y-127187354D01*
X55785141Y-127225047D01*
X55766574Y-127259783D01*
X55741588Y-127290228D01*
X55711143Y-127315214D01*
X55676407Y-127333781D01*
X55638714Y-127345215D01*
X55593379Y-127349680D01*
X54756701Y-127349680D01*
X54711366Y-127345215D01*
X54673673Y-127333781D01*
X54638937Y-127315214D01*
X54608492Y-127290228D01*
X54583506Y-127259783D01*
X54564939Y-127225047D01*
X54553505Y-127187354D01*
X54549040Y-127142019D01*
X54549040Y-126055341D01*
X54553505Y-126010006D01*
X54564939Y-125972313D01*
X54583506Y-125937577D01*
X54608492Y-125907132D01*
X54638937Y-125882146D01*
X54673673Y-125863579D01*
X54711366Y-125852145D01*
X54756701Y-125847680D01*
X55593379Y-125847680D01*
X55638714Y-125852145D01*
X55638714Y-125852145D01*
G37*
G36*
X51583714Y-125852145D02*
G01*
X51621407Y-125863579D01*
X51656143Y-125882146D01*
X51686588Y-125907132D01*
X51711574Y-125937577D01*
X51730141Y-125972313D01*
X51741575Y-126010006D01*
X51746040Y-126055341D01*
X51746040Y-127142019D01*
X51741575Y-127187354D01*
X51730141Y-127225047D01*
X51711574Y-127259783D01*
X51686588Y-127290228D01*
X51656143Y-127315214D01*
X51621407Y-127333781D01*
X51583714Y-127345215D01*
X51538379Y-127349680D01*
X50701701Y-127349680D01*
X50656366Y-127345215D01*
X50618673Y-127333781D01*
X50583937Y-127315214D01*
X50553492Y-127290228D01*
X50528506Y-127259783D01*
X50509939Y-127225047D01*
X50498505Y-127187354D01*
X50494040Y-127142019D01*
X50494040Y-126055341D01*
X50498505Y-126010006D01*
X50509939Y-125972313D01*
X50528506Y-125937577D01*
X50553492Y-125907132D01*
X50583937Y-125882146D01*
X50618673Y-125863579D01*
X50656366Y-125852145D01*
X50701701Y-125847680D01*
X51538379Y-125847680D01*
X51583714Y-125852145D01*
X51583714Y-125852145D01*
G37*
G36*
X53633714Y-125852145D02*
G01*
X53671407Y-125863579D01*
X53706143Y-125882146D01*
X53736588Y-125907132D01*
X53761574Y-125937577D01*
X53780141Y-125972313D01*
X53791575Y-126010006D01*
X53796040Y-126055341D01*
X53796040Y-127142019D01*
X53791575Y-127187354D01*
X53780141Y-127225047D01*
X53761574Y-127259783D01*
X53736588Y-127290228D01*
X53706143Y-127315214D01*
X53671407Y-127333781D01*
X53633714Y-127345215D01*
X53588379Y-127349680D01*
X52751701Y-127349680D01*
X52706366Y-127345215D01*
X52668673Y-127333781D01*
X52633937Y-127315214D01*
X52603492Y-127290228D01*
X52578506Y-127259783D01*
X52559939Y-127225047D01*
X52548505Y-127187354D01*
X52544040Y-127142019D01*
X52544040Y-126055341D01*
X52548505Y-126010006D01*
X52559939Y-125972313D01*
X52578506Y-125937577D01*
X52603492Y-125907132D01*
X52633937Y-125882146D01*
X52668673Y-125863579D01*
X52706366Y-125852145D01*
X52751701Y-125847680D01*
X53588379Y-125847680D01*
X53633714Y-125852145D01*
X53633714Y-125852145D01*
G37*
G36*
X57688714Y-125852145D02*
G01*
X57726407Y-125863579D01*
X57761143Y-125882146D01*
X57791588Y-125907132D01*
X57816574Y-125937577D01*
X57835141Y-125972313D01*
X57846575Y-126010006D01*
X57851040Y-126055341D01*
X57851040Y-127142019D01*
X57846575Y-127187354D01*
X57835141Y-127225047D01*
X57816574Y-127259783D01*
X57791588Y-127290228D01*
X57761143Y-127315214D01*
X57726407Y-127333781D01*
X57688714Y-127345215D01*
X57643379Y-127349680D01*
X56806701Y-127349680D01*
X56761366Y-127345215D01*
X56723673Y-127333781D01*
X56688937Y-127315214D01*
X56658492Y-127290228D01*
X56633506Y-127259783D01*
X56614939Y-127225047D01*
X56603505Y-127187354D01*
X56599040Y-127142019D01*
X56599040Y-126055341D01*
X56603505Y-126010006D01*
X56614939Y-125972313D01*
X56633506Y-125937577D01*
X56658492Y-125907132D01*
X56688937Y-125882146D01*
X56723673Y-125863579D01*
X56761366Y-125852145D01*
X56806701Y-125847680D01*
X57643379Y-125847680D01*
X57688714Y-125852145D01*
X57688714Y-125852145D01*
G37*
G36*
X84622874Y-125542265D02*
G01*
X84660567Y-125553699D01*
X84695303Y-125572266D01*
X84725748Y-125597252D01*
X84750734Y-125627697D01*
X84769301Y-125662433D01*
X84780735Y-125700126D01*
X84785200Y-125745461D01*
X84785200Y-126832139D01*
X84780735Y-126877474D01*
X84769301Y-126915167D01*
X84750734Y-126949903D01*
X84725748Y-126980348D01*
X84695303Y-127005334D01*
X84660567Y-127023901D01*
X84622874Y-127035335D01*
X84577539Y-127039800D01*
X83740861Y-127039800D01*
X83695526Y-127035335D01*
X83657833Y-127023901D01*
X83623097Y-127005334D01*
X83592652Y-126980348D01*
X83567666Y-126949903D01*
X83549099Y-126915167D01*
X83537665Y-126877474D01*
X83533200Y-126832139D01*
X83533200Y-125745461D01*
X83537665Y-125700126D01*
X83549099Y-125662433D01*
X83567666Y-125627697D01*
X83592652Y-125597252D01*
X83623097Y-125572266D01*
X83657833Y-125553699D01*
X83695526Y-125542265D01*
X83740861Y-125537800D01*
X84577539Y-125537800D01*
X84622874Y-125542265D01*
X84622874Y-125542265D01*
G37*
G36*
X82572874Y-125542265D02*
G01*
X82610567Y-125553699D01*
X82645303Y-125572266D01*
X82675748Y-125597252D01*
X82700734Y-125627697D01*
X82719301Y-125662433D01*
X82730735Y-125700126D01*
X82735200Y-125745461D01*
X82735200Y-126832139D01*
X82730735Y-126877474D01*
X82719301Y-126915167D01*
X82700734Y-126949903D01*
X82675748Y-126980348D01*
X82645303Y-127005334D01*
X82610567Y-127023901D01*
X82572874Y-127035335D01*
X82527539Y-127039800D01*
X81690861Y-127039800D01*
X81645526Y-127035335D01*
X81607833Y-127023901D01*
X81573097Y-127005334D01*
X81542652Y-126980348D01*
X81517666Y-126949903D01*
X81499099Y-126915167D01*
X81487665Y-126877474D01*
X81483200Y-126832139D01*
X81483200Y-125745461D01*
X81487665Y-125700126D01*
X81499099Y-125662433D01*
X81517666Y-125627697D01*
X81542652Y-125597252D01*
X81573097Y-125572266D01*
X81607833Y-125553699D01*
X81645526Y-125542265D01*
X81690861Y-125537800D01*
X82527539Y-125537800D01*
X82572874Y-125542265D01*
X82572874Y-125542265D01*
G37*
G36*
X76735954Y-125217145D02*
G01*
X76773647Y-125228579D01*
X76808383Y-125247146D01*
X76838828Y-125272132D01*
X76863814Y-125302577D01*
X76882381Y-125337313D01*
X76893815Y-125375006D01*
X76898280Y-125420341D01*
X76898280Y-126507019D01*
X76893815Y-126552354D01*
X76882381Y-126590047D01*
X76863814Y-126624783D01*
X76838828Y-126655228D01*
X76808383Y-126680214D01*
X76773647Y-126698781D01*
X76735954Y-126710215D01*
X76690619Y-126714680D01*
X75853941Y-126714680D01*
X75808606Y-126710215D01*
X75770913Y-126698781D01*
X75736177Y-126680214D01*
X75705732Y-126655228D01*
X75680746Y-126624783D01*
X75662179Y-126590047D01*
X75650745Y-126552354D01*
X75646280Y-126507019D01*
X75646280Y-125420341D01*
X75650745Y-125375006D01*
X75662179Y-125337313D01*
X75680746Y-125302577D01*
X75705732Y-125272132D01*
X75736177Y-125247146D01*
X75770913Y-125228579D01*
X75808606Y-125217145D01*
X75853941Y-125212680D01*
X76690619Y-125212680D01*
X76735954Y-125217145D01*
X76735954Y-125217145D01*
G37*
G36*
X78785954Y-125217145D02*
G01*
X78823647Y-125228579D01*
X78858383Y-125247146D01*
X78888828Y-125272132D01*
X78913814Y-125302577D01*
X78932381Y-125337313D01*
X78943815Y-125375006D01*
X78948280Y-125420341D01*
X78948280Y-126507019D01*
X78943815Y-126552354D01*
X78932381Y-126590047D01*
X78913814Y-126624783D01*
X78888828Y-126655228D01*
X78858383Y-126680214D01*
X78823647Y-126698781D01*
X78785954Y-126710215D01*
X78740619Y-126714680D01*
X77903941Y-126714680D01*
X77858606Y-126710215D01*
X77820913Y-126698781D01*
X77786177Y-126680214D01*
X77755732Y-126655228D01*
X77730746Y-126624783D01*
X77712179Y-126590047D01*
X77700745Y-126552354D01*
X77696280Y-126507019D01*
X77696280Y-125420341D01*
X77700745Y-125375006D01*
X77712179Y-125337313D01*
X77730746Y-125302577D01*
X77755732Y-125272132D01*
X77786177Y-125247146D01*
X77820913Y-125228579D01*
X77858606Y-125217145D01*
X77903941Y-125212680D01*
X78740619Y-125212680D01*
X78785954Y-125217145D01*
X78785954Y-125217145D01*
G37*
G36*
X67424204Y-124162869D02*
G01*
X67615473Y-124242095D01*
X67615475Y-124242096D01*
X67787613Y-124357115D01*
X67934005Y-124503507D01*
X68006913Y-124612621D01*
X68049025Y-124675647D01*
X68128251Y-124866916D01*
X68168640Y-125069964D01*
X68168640Y-125276996D01*
X68128251Y-125480044D01*
X68054224Y-125658762D01*
X68049024Y-125671315D01*
X67934005Y-125843453D01*
X67787613Y-125989845D01*
X67615475Y-126104864D01*
X67615474Y-126104865D01*
X67615473Y-126104865D01*
X67424204Y-126184091D01*
X67221156Y-126224480D01*
X67014124Y-126224480D01*
X66811076Y-126184091D01*
X66619807Y-126104865D01*
X66619806Y-126104865D01*
X66619805Y-126104864D01*
X66447667Y-125989845D01*
X66301275Y-125843453D01*
X66186256Y-125671315D01*
X66181056Y-125658762D01*
X66107029Y-125480044D01*
X66066640Y-125276996D01*
X66066640Y-125069964D01*
X66107029Y-124866916D01*
X66186255Y-124675647D01*
X66228368Y-124612621D01*
X66301275Y-124503507D01*
X66447667Y-124357115D01*
X66619805Y-124242096D01*
X66619807Y-124242095D01*
X66811076Y-124162869D01*
X67014124Y-124122480D01*
X67221156Y-124122480D01*
X67424204Y-124162869D01*
X67424204Y-124162869D01*
G37*
G36*
X97674554Y-124409425D02*
G01*
X97712247Y-124420859D01*
X97746983Y-124439426D01*
X97777428Y-124464412D01*
X97802414Y-124494857D01*
X97820981Y-124529593D01*
X97832415Y-124567286D01*
X97836880Y-124612621D01*
X97836880Y-125699299D01*
X97832415Y-125744634D01*
X97820981Y-125782327D01*
X97802414Y-125817063D01*
X97777428Y-125847508D01*
X97746983Y-125872494D01*
X97712247Y-125891061D01*
X97674554Y-125902495D01*
X97629219Y-125906960D01*
X96792541Y-125906960D01*
X96747206Y-125902495D01*
X96709513Y-125891061D01*
X96674777Y-125872494D01*
X96644332Y-125847508D01*
X96619346Y-125817063D01*
X96600779Y-125782327D01*
X96589345Y-125744634D01*
X96584880Y-125699299D01*
X96584880Y-124612621D01*
X96589345Y-124567286D01*
X96600779Y-124529593D01*
X96619346Y-124494857D01*
X96644332Y-124464412D01*
X96674777Y-124439426D01*
X96709513Y-124420859D01*
X96747206Y-124409425D01*
X96792541Y-124404960D01*
X97629219Y-124404960D01*
X97674554Y-124409425D01*
X97674554Y-124409425D01*
G37*
G36*
X95624554Y-124409425D02*
G01*
X95662247Y-124420859D01*
X95696983Y-124439426D01*
X95727428Y-124464412D01*
X95752414Y-124494857D01*
X95770981Y-124529593D01*
X95782415Y-124567286D01*
X95786880Y-124612621D01*
X95786880Y-125699299D01*
X95782415Y-125744634D01*
X95770981Y-125782327D01*
X95752414Y-125817063D01*
X95727428Y-125847508D01*
X95696983Y-125872494D01*
X95662247Y-125891061D01*
X95624554Y-125902495D01*
X95579219Y-125906960D01*
X94742541Y-125906960D01*
X94697206Y-125902495D01*
X94659513Y-125891061D01*
X94624777Y-125872494D01*
X94594332Y-125847508D01*
X94569346Y-125817063D01*
X94550779Y-125782327D01*
X94539345Y-125744634D01*
X94534880Y-125699299D01*
X94534880Y-124612621D01*
X94539345Y-124567286D01*
X94550779Y-124529593D01*
X94569346Y-124494857D01*
X94594332Y-124464412D01*
X94624777Y-124439426D01*
X94659513Y-124420859D01*
X94697206Y-124409425D01*
X94742541Y-124404960D01*
X95579219Y-124404960D01*
X95624554Y-124409425D01*
X95624554Y-124409425D01*
G37*
G36*
X44071000Y-125601000D02*
G01*
X40969000Y-125601000D01*
X40969000Y-124499000D01*
X44071000Y-124499000D01*
X44071000Y-125601000D01*
X44071000Y-125601000D01*
G37*
G36*
X39031000Y-125601000D02*
G01*
X35929000Y-125601000D01*
X35929000Y-124499000D01*
X39031000Y-124499000D01*
X39031000Y-125601000D01*
X39031000Y-125601000D01*
G37*
G36*
X59151707Y-123617045D02*
G01*
X59190377Y-123628776D01*
X59226016Y-123647826D01*
X59257256Y-123673463D01*
X59282893Y-123704703D01*
X59301943Y-123740342D01*
X59313674Y-123779012D01*
X59318239Y-123825368D01*
X59318239Y-124901592D01*
X59313674Y-124947948D01*
X59301943Y-124986618D01*
X59282893Y-125022257D01*
X59257256Y-125053497D01*
X59226016Y-125079134D01*
X59190377Y-125098184D01*
X59151707Y-125109915D01*
X59105351Y-125114480D01*
X58454127Y-125114480D01*
X58407771Y-125109915D01*
X58369101Y-125098184D01*
X58333462Y-125079134D01*
X58302222Y-125053497D01*
X58276585Y-125022257D01*
X58257535Y-124986618D01*
X58245804Y-124947948D01*
X58241239Y-124901592D01*
X58241239Y-123825368D01*
X58245804Y-123779012D01*
X58257535Y-123740342D01*
X58276585Y-123704703D01*
X58302222Y-123673463D01*
X58333462Y-123647826D01*
X58369101Y-123628776D01*
X58407771Y-123617045D01*
X58454127Y-123612480D01*
X59105351Y-123612480D01*
X59151707Y-123617045D01*
X59151707Y-123617045D01*
G37*
G36*
X61026707Y-123617045D02*
G01*
X61065377Y-123628776D01*
X61101016Y-123647826D01*
X61132256Y-123673463D01*
X61157893Y-123704703D01*
X61176943Y-123740342D01*
X61188674Y-123779012D01*
X61193239Y-123825368D01*
X61193239Y-124901592D01*
X61188674Y-124947948D01*
X61176943Y-124986618D01*
X61157893Y-125022257D01*
X61132256Y-125053497D01*
X61101016Y-125079134D01*
X61065377Y-125098184D01*
X61026707Y-125109915D01*
X60980351Y-125114480D01*
X60329127Y-125114480D01*
X60282771Y-125109915D01*
X60244101Y-125098184D01*
X60208462Y-125079134D01*
X60177222Y-125053497D01*
X60151585Y-125022257D01*
X60132535Y-124986618D01*
X60120804Y-124947948D01*
X60116239Y-124901592D01*
X60116239Y-123825368D01*
X60120804Y-123779012D01*
X60132535Y-123740342D01*
X60151585Y-123704703D01*
X60177222Y-123673463D01*
X60208462Y-123647826D01*
X60244101Y-123628776D01*
X60282771Y-123617045D01*
X60329127Y-123612480D01*
X60980351Y-123612480D01*
X61026707Y-123617045D01*
X61026707Y-123617045D01*
G37*
G36*
X76776594Y-123093705D02*
G01*
X76814287Y-123105139D01*
X76849023Y-123123706D01*
X76879468Y-123148692D01*
X76904454Y-123179137D01*
X76923021Y-123213873D01*
X76934455Y-123251566D01*
X76938920Y-123296901D01*
X76938920Y-124383579D01*
X76934455Y-124428914D01*
X76923021Y-124466607D01*
X76904454Y-124501343D01*
X76879468Y-124531788D01*
X76849023Y-124556774D01*
X76814287Y-124575341D01*
X76776594Y-124586775D01*
X76731259Y-124591240D01*
X75894581Y-124591240D01*
X75849246Y-124586775D01*
X75811553Y-124575341D01*
X75776817Y-124556774D01*
X75746372Y-124531788D01*
X75721386Y-124501343D01*
X75702819Y-124466607D01*
X75691385Y-124428914D01*
X75686920Y-124383579D01*
X75686920Y-123296901D01*
X75691385Y-123251566D01*
X75702819Y-123213873D01*
X75721386Y-123179137D01*
X75746372Y-123148692D01*
X75776817Y-123123706D01*
X75811553Y-123105139D01*
X75849246Y-123093705D01*
X75894581Y-123089240D01*
X76731259Y-123089240D01*
X76776594Y-123093705D01*
X76776594Y-123093705D01*
G37*
G36*
X78826594Y-123093705D02*
G01*
X78864287Y-123105139D01*
X78899023Y-123123706D01*
X78929468Y-123148692D01*
X78954454Y-123179137D01*
X78973021Y-123213873D01*
X78984455Y-123251566D01*
X78988920Y-123296901D01*
X78988920Y-124383579D01*
X78984455Y-124428914D01*
X78973021Y-124466607D01*
X78954454Y-124501343D01*
X78929468Y-124531788D01*
X78899023Y-124556774D01*
X78864287Y-124575341D01*
X78826594Y-124586775D01*
X78781259Y-124591240D01*
X77944581Y-124591240D01*
X77899246Y-124586775D01*
X77861553Y-124575341D01*
X77826817Y-124556774D01*
X77796372Y-124531788D01*
X77771386Y-124501343D01*
X77752819Y-124466607D01*
X77741385Y-124428914D01*
X77736920Y-124383579D01*
X77736920Y-123296901D01*
X77741385Y-123251566D01*
X77752819Y-123213873D01*
X77771386Y-123179137D01*
X77796372Y-123148692D01*
X77826817Y-123123706D01*
X77861553Y-123105139D01*
X77899246Y-123093705D01*
X77944581Y-123089240D01*
X78781259Y-123089240D01*
X78826594Y-123093705D01*
X78826594Y-123093705D01*
G37*
G36*
X89282401Y-124310001D02*
G01*
X83030401Y-124310001D01*
X83030401Y-122608001D01*
X89282401Y-122608001D01*
X89282401Y-124310001D01*
X89282401Y-124310001D01*
G37*
G36*
X95674194Y-122219945D02*
G01*
X95711887Y-122231379D01*
X95746623Y-122249946D01*
X95777068Y-122274932D01*
X95802054Y-122305377D01*
X95820621Y-122340113D01*
X95832055Y-122377806D01*
X95836520Y-122423141D01*
X95836520Y-123509819D01*
X95832055Y-123555154D01*
X95820621Y-123592847D01*
X95802054Y-123627583D01*
X95777068Y-123658028D01*
X95746623Y-123683014D01*
X95711887Y-123701581D01*
X95674194Y-123713015D01*
X95628859Y-123717480D01*
X94792181Y-123717480D01*
X94746846Y-123713015D01*
X94709153Y-123701581D01*
X94674417Y-123683014D01*
X94643972Y-123658028D01*
X94618986Y-123627583D01*
X94600419Y-123592847D01*
X94588985Y-123555154D01*
X94584520Y-123509819D01*
X94584520Y-122423141D01*
X94588985Y-122377806D01*
X94600419Y-122340113D01*
X94618986Y-122305377D01*
X94643972Y-122274932D01*
X94674417Y-122249946D01*
X94709153Y-122231379D01*
X94746846Y-122219945D01*
X94792181Y-122215480D01*
X95628859Y-122215480D01*
X95674194Y-122219945D01*
X95674194Y-122219945D01*
G37*
G36*
X97724194Y-122219945D02*
G01*
X97761887Y-122231379D01*
X97796623Y-122249946D01*
X97827068Y-122274932D01*
X97852054Y-122305377D01*
X97870621Y-122340113D01*
X97882055Y-122377806D01*
X97886520Y-122423141D01*
X97886520Y-123509819D01*
X97882055Y-123555154D01*
X97870621Y-123592847D01*
X97852054Y-123627583D01*
X97827068Y-123658028D01*
X97796623Y-123683014D01*
X97761887Y-123701581D01*
X97724194Y-123713015D01*
X97678859Y-123717480D01*
X96842181Y-123717480D01*
X96796846Y-123713015D01*
X96759153Y-123701581D01*
X96724417Y-123683014D01*
X96693972Y-123658028D01*
X96668986Y-123627583D01*
X96650419Y-123592847D01*
X96638985Y-123555154D01*
X96634520Y-123509819D01*
X96634520Y-122423141D01*
X96638985Y-122377806D01*
X96650419Y-122340113D01*
X96668986Y-122305377D01*
X96693972Y-122274932D01*
X96724417Y-122249946D01*
X96759153Y-122231379D01*
X96796846Y-122219945D01*
X96842181Y-122215480D01*
X97678859Y-122215480D01*
X97724194Y-122219945D01*
X97724194Y-122219945D01*
G37*
G36*
X67424204Y-121162869D02*
G01*
X67615473Y-121242095D01*
X67615475Y-121242096D01*
X67787613Y-121357115D01*
X67934005Y-121503507D01*
X68049025Y-121675647D01*
X68128251Y-121866916D01*
X68168640Y-122069964D01*
X68168640Y-122276996D01*
X68128251Y-122480044D01*
X68049025Y-122671313D01*
X68049024Y-122671315D01*
X67934005Y-122843453D01*
X67787613Y-122989845D01*
X67615475Y-123104864D01*
X67615474Y-123104865D01*
X67615473Y-123104865D01*
X67424204Y-123184091D01*
X67221156Y-123224480D01*
X67014124Y-123224480D01*
X66811076Y-123184091D01*
X66619807Y-123104865D01*
X66619806Y-123104865D01*
X66619805Y-123104864D01*
X66447667Y-122989845D01*
X66301275Y-122843453D01*
X66186256Y-122671315D01*
X66186255Y-122671313D01*
X66107029Y-122480044D01*
X66066640Y-122276996D01*
X66066640Y-122069964D01*
X66107029Y-121866916D01*
X66186255Y-121675647D01*
X66301275Y-121503507D01*
X66447667Y-121357115D01*
X66619805Y-121242096D01*
X66619807Y-121242095D01*
X66811076Y-121162869D01*
X67014124Y-121122480D01*
X67221156Y-121122480D01*
X67424204Y-121162869D01*
X67424204Y-121162869D01*
G37*
G36*
X70424204Y-121162869D02*
G01*
X70615473Y-121242095D01*
X70615475Y-121242096D01*
X70787613Y-121357115D01*
X70934005Y-121503507D01*
X71049025Y-121675647D01*
X71128251Y-121866916D01*
X71168640Y-122069964D01*
X71168640Y-122276996D01*
X71128251Y-122480044D01*
X71049025Y-122671313D01*
X71049024Y-122671315D01*
X70934005Y-122843453D01*
X70787613Y-122989845D01*
X70615475Y-123104864D01*
X70615474Y-123104865D01*
X70615473Y-123104865D01*
X70424204Y-123184091D01*
X70221156Y-123224480D01*
X70014124Y-123224480D01*
X69811076Y-123184091D01*
X69619807Y-123104865D01*
X69619806Y-123104865D01*
X69619805Y-123104864D01*
X69447667Y-122989845D01*
X69301275Y-122843453D01*
X69186256Y-122671315D01*
X69186255Y-122671313D01*
X69107029Y-122480044D01*
X69066640Y-122276996D01*
X69066640Y-122069964D01*
X69107029Y-121866916D01*
X69186255Y-121675647D01*
X69301275Y-121503507D01*
X69447667Y-121357115D01*
X69619805Y-121242096D01*
X69619807Y-121242095D01*
X69811076Y-121162869D01*
X70014124Y-121122480D01*
X70221156Y-121122480D01*
X70424204Y-121162869D01*
X70424204Y-121162869D01*
G37*
G36*
X39031000Y-123061000D02*
G01*
X35929000Y-123061000D01*
X35929000Y-121959000D01*
X39031000Y-121959000D01*
X39031000Y-123061000D01*
X39031000Y-123061000D01*
G37*
G36*
X44071000Y-123061000D02*
G01*
X40969000Y-123061000D01*
X40969000Y-121959000D01*
X44071000Y-121959000D01*
X44071000Y-123061000D01*
X44071000Y-123061000D01*
G37*
G36*
X61443239Y-122904479D02*
G01*
X55191239Y-122904479D01*
X55191239Y-121202479D01*
X61443239Y-121202479D01*
X61443239Y-122904479D01*
X61443239Y-122904479D01*
G37*
G36*
X82757401Y-122335001D02*
G01*
X81055401Y-122335001D01*
X81055401Y-116083001D01*
X82757401Y-116083001D01*
X82757401Y-122335001D01*
X82757401Y-122335001D01*
G37*
G36*
X91257401Y-122335001D02*
G01*
X89555401Y-122335001D01*
X89555401Y-116083001D01*
X91257401Y-116083001D01*
X91257401Y-122335001D01*
X91257401Y-122335001D01*
G37*
G36*
X54918239Y-120929479D02*
G01*
X53216239Y-120929479D01*
X53216239Y-114677479D01*
X54918239Y-114677479D01*
X54918239Y-120929479D01*
X54918239Y-120929479D01*
G37*
G36*
X63418239Y-120929479D02*
G01*
X61716239Y-120929479D01*
X61716239Y-114677479D01*
X63418239Y-114677479D01*
X63418239Y-120929479D01*
X63418239Y-120929479D01*
G37*
G36*
X39031000Y-120521000D02*
G01*
X35929000Y-120521000D01*
X35929000Y-119419000D01*
X39031000Y-119419000D01*
X39031000Y-120521000D01*
X39031000Y-120521000D01*
G37*
G36*
X44071000Y-120521000D02*
G01*
X40969000Y-120521000D01*
X40969000Y-119419000D01*
X44071000Y-119419000D01*
X44071000Y-120521000D01*
X44071000Y-120521000D01*
G37*
G36*
X26879674Y-118430265D02*
G01*
X26917367Y-118441699D01*
X26952103Y-118460266D01*
X26982548Y-118485252D01*
X27007534Y-118515697D01*
X27026101Y-118550433D01*
X27037535Y-118588126D01*
X27042000Y-118633461D01*
X27042000Y-119720139D01*
X27037535Y-119765474D01*
X27026101Y-119803167D01*
X27007534Y-119837903D01*
X26982548Y-119868348D01*
X26952103Y-119893334D01*
X26917367Y-119911901D01*
X26879674Y-119923335D01*
X26834339Y-119927800D01*
X25997661Y-119927800D01*
X25952326Y-119923335D01*
X25914633Y-119911901D01*
X25879897Y-119893334D01*
X25849452Y-119868348D01*
X25824466Y-119837903D01*
X25805899Y-119803167D01*
X25794465Y-119765474D01*
X25790000Y-119720139D01*
X25790000Y-118633461D01*
X25794465Y-118588126D01*
X25805899Y-118550433D01*
X25824466Y-118515697D01*
X25849452Y-118485252D01*
X25879897Y-118460266D01*
X25914633Y-118441699D01*
X25952326Y-118430265D01*
X25997661Y-118425800D01*
X26834339Y-118425800D01*
X26879674Y-118430265D01*
X26879674Y-118430265D01*
G37*
G36*
X28929674Y-118430265D02*
G01*
X28967367Y-118441699D01*
X29002103Y-118460266D01*
X29032548Y-118485252D01*
X29057534Y-118515697D01*
X29076101Y-118550433D01*
X29087535Y-118588126D01*
X29092000Y-118633461D01*
X29092000Y-119720139D01*
X29087535Y-119765474D01*
X29076101Y-119803167D01*
X29057534Y-119837903D01*
X29032548Y-119868348D01*
X29002103Y-119893334D01*
X28967367Y-119911901D01*
X28929674Y-119923335D01*
X28884339Y-119927800D01*
X28047661Y-119927800D01*
X28002326Y-119923335D01*
X27964633Y-119911901D01*
X27929897Y-119893334D01*
X27899452Y-119868348D01*
X27874466Y-119837903D01*
X27855899Y-119803167D01*
X27844465Y-119765474D01*
X27840000Y-119720139D01*
X27840000Y-118633461D01*
X27844465Y-118588126D01*
X27855899Y-118550433D01*
X27874466Y-118515697D01*
X27899452Y-118485252D01*
X27929897Y-118460266D01*
X27964633Y-118441699D01*
X28002326Y-118430265D01*
X28047661Y-118425800D01*
X28884339Y-118425800D01*
X28929674Y-118430265D01*
X28929674Y-118430265D01*
G37*
G36*
X66163314Y-117876545D02*
G01*
X66201007Y-117887979D01*
X66235743Y-117906546D01*
X66266188Y-117931532D01*
X66291174Y-117961977D01*
X66309741Y-117996713D01*
X66321175Y-118034406D01*
X66325640Y-118079741D01*
X66325640Y-119166419D01*
X66321175Y-119211754D01*
X66309741Y-119249447D01*
X66291174Y-119284183D01*
X66266188Y-119314628D01*
X66235743Y-119339614D01*
X66201007Y-119358181D01*
X66163314Y-119369615D01*
X66117979Y-119374080D01*
X65281301Y-119374080D01*
X65235966Y-119369615D01*
X65198273Y-119358181D01*
X65163537Y-119339614D01*
X65133092Y-119314628D01*
X65108106Y-119284183D01*
X65089539Y-119249447D01*
X65078105Y-119211754D01*
X65073640Y-119166419D01*
X65073640Y-118079741D01*
X65078105Y-118034406D01*
X65089539Y-117996713D01*
X65108106Y-117961977D01*
X65133092Y-117931532D01*
X65163537Y-117906546D01*
X65198273Y-117887979D01*
X65235966Y-117876545D01*
X65281301Y-117872080D01*
X66117979Y-117872080D01*
X66163314Y-117876545D01*
X66163314Y-117876545D01*
G37*
G36*
X68213314Y-117876545D02*
G01*
X68251007Y-117887979D01*
X68285743Y-117906546D01*
X68316188Y-117931532D01*
X68341174Y-117961977D01*
X68359741Y-117996713D01*
X68371175Y-118034406D01*
X68375640Y-118079741D01*
X68375640Y-119166419D01*
X68371175Y-119211754D01*
X68359741Y-119249447D01*
X68341174Y-119284183D01*
X68316188Y-119314628D01*
X68285743Y-119339614D01*
X68251007Y-119358181D01*
X68213314Y-119369615D01*
X68167979Y-119374080D01*
X67331301Y-119374080D01*
X67285966Y-119369615D01*
X67248273Y-119358181D01*
X67213537Y-119339614D01*
X67183092Y-119314628D01*
X67158106Y-119284183D01*
X67139539Y-119249447D01*
X67128105Y-119211754D01*
X67123640Y-119166419D01*
X67123640Y-118079741D01*
X67128105Y-118034406D01*
X67139539Y-117996713D01*
X67158106Y-117961977D01*
X67183092Y-117931532D01*
X67213537Y-117906546D01*
X67248273Y-117887979D01*
X67285966Y-117876545D01*
X67331301Y-117872080D01*
X68167979Y-117872080D01*
X68213314Y-117876545D01*
X68213314Y-117876545D01*
G37*
G36*
X76690234Y-117602225D02*
G01*
X76727927Y-117613659D01*
X76762663Y-117632226D01*
X76793108Y-117657212D01*
X76818094Y-117687657D01*
X76836661Y-117722393D01*
X76848095Y-117760086D01*
X76852560Y-117805421D01*
X76852560Y-118892099D01*
X76848095Y-118937434D01*
X76836661Y-118975127D01*
X76818094Y-119009863D01*
X76793108Y-119040308D01*
X76762663Y-119065294D01*
X76727927Y-119083861D01*
X76690234Y-119095295D01*
X76644899Y-119099760D01*
X75808221Y-119099760D01*
X75762886Y-119095295D01*
X75725193Y-119083861D01*
X75690457Y-119065294D01*
X75660012Y-119040308D01*
X75635026Y-119009863D01*
X75616459Y-118975127D01*
X75605025Y-118937434D01*
X75600560Y-118892099D01*
X75600560Y-117805421D01*
X75605025Y-117760086D01*
X75616459Y-117722393D01*
X75635026Y-117687657D01*
X75660012Y-117657212D01*
X75690457Y-117632226D01*
X75725193Y-117613659D01*
X75762886Y-117602225D01*
X75808221Y-117597760D01*
X76644899Y-117597760D01*
X76690234Y-117602225D01*
X76690234Y-117602225D01*
G37*
G36*
X78740234Y-117602225D02*
G01*
X78777927Y-117613659D01*
X78812663Y-117632226D01*
X78843108Y-117657212D01*
X78868094Y-117687657D01*
X78886661Y-117722393D01*
X78898095Y-117760086D01*
X78902560Y-117805421D01*
X78902560Y-118892099D01*
X78898095Y-118937434D01*
X78886661Y-118975127D01*
X78868094Y-119009863D01*
X78843108Y-119040308D01*
X78812663Y-119065294D01*
X78777927Y-119083861D01*
X78740234Y-119095295D01*
X78694899Y-119099760D01*
X77858221Y-119099760D01*
X77812886Y-119095295D01*
X77775193Y-119083861D01*
X77740457Y-119065294D01*
X77710012Y-119040308D01*
X77685026Y-119009863D01*
X77666459Y-118975127D01*
X77655025Y-118937434D01*
X77650560Y-118892099D01*
X77650560Y-117805421D01*
X77655025Y-117760086D01*
X77666459Y-117722393D01*
X77685026Y-117687657D01*
X77710012Y-117657212D01*
X77740457Y-117632226D01*
X77775193Y-117613659D01*
X77812886Y-117602225D01*
X77858221Y-117597760D01*
X78694899Y-117597760D01*
X78740234Y-117602225D01*
X78740234Y-117602225D01*
G37*
G36*
X51237114Y-117520945D02*
G01*
X51274807Y-117532379D01*
X51309543Y-117550946D01*
X51339988Y-117575932D01*
X51364974Y-117606377D01*
X51383541Y-117641113D01*
X51394975Y-117678806D01*
X51399440Y-117724141D01*
X51399440Y-118810819D01*
X51394975Y-118856154D01*
X51383541Y-118893847D01*
X51364974Y-118928583D01*
X51339988Y-118959028D01*
X51309543Y-118984014D01*
X51274807Y-119002581D01*
X51237114Y-119014015D01*
X51191779Y-119018480D01*
X50355101Y-119018480D01*
X50309766Y-119014015D01*
X50272073Y-119002581D01*
X50237337Y-118984014D01*
X50206892Y-118959028D01*
X50181906Y-118928583D01*
X50163339Y-118893847D01*
X50151905Y-118856154D01*
X50147440Y-118810819D01*
X50147440Y-117724141D01*
X50151905Y-117678806D01*
X50163339Y-117641113D01*
X50181906Y-117606377D01*
X50206892Y-117575932D01*
X50237337Y-117550946D01*
X50272073Y-117532379D01*
X50309766Y-117520945D01*
X50355101Y-117516480D01*
X51191779Y-117516480D01*
X51237114Y-117520945D01*
X51237114Y-117520945D01*
G37*
G36*
X49187114Y-117520945D02*
G01*
X49224807Y-117532379D01*
X49259543Y-117550946D01*
X49289988Y-117575932D01*
X49314974Y-117606377D01*
X49333541Y-117641113D01*
X49344975Y-117678806D01*
X49349440Y-117724141D01*
X49349440Y-118810819D01*
X49344975Y-118856154D01*
X49333541Y-118893847D01*
X49314974Y-118928583D01*
X49289988Y-118959028D01*
X49259543Y-118984014D01*
X49224807Y-119002581D01*
X49187114Y-119014015D01*
X49141779Y-119018480D01*
X48305101Y-119018480D01*
X48259766Y-119014015D01*
X48222073Y-119002581D01*
X48187337Y-118984014D01*
X48156892Y-118959028D01*
X48131906Y-118928583D01*
X48113339Y-118893847D01*
X48101905Y-118856154D01*
X48097440Y-118810819D01*
X48097440Y-117724141D01*
X48101905Y-117678806D01*
X48113339Y-117641113D01*
X48131906Y-117606377D01*
X48156892Y-117575932D01*
X48187337Y-117550946D01*
X48222073Y-117532379D01*
X48259766Y-117520945D01*
X48305101Y-117516480D01*
X49141779Y-117516480D01*
X49187114Y-117520945D01*
X49187114Y-117520945D01*
G37*
G36*
X39031000Y-117981000D02*
G01*
X35929000Y-117981000D01*
X35929000Y-116879000D01*
X39031000Y-116879000D01*
X39031000Y-117981000D01*
X39031000Y-117981000D01*
G37*
G36*
X44071000Y-117981000D02*
G01*
X40969000Y-117981000D01*
X40969000Y-116879000D01*
X44071000Y-116879000D01*
X44071000Y-117981000D01*
X44071000Y-117981000D01*
G37*
G36*
X26828874Y-116449065D02*
G01*
X26866567Y-116460499D01*
X26901303Y-116479066D01*
X26931748Y-116504052D01*
X26956734Y-116534497D01*
X26975301Y-116569233D01*
X26986735Y-116606926D01*
X26991200Y-116652261D01*
X26991200Y-117738939D01*
X26986735Y-117784274D01*
X26975301Y-117821967D01*
X26956734Y-117856703D01*
X26931748Y-117887148D01*
X26901303Y-117912134D01*
X26866567Y-117930701D01*
X26828874Y-117942135D01*
X26783539Y-117946600D01*
X25946861Y-117946600D01*
X25901526Y-117942135D01*
X25863833Y-117930701D01*
X25829097Y-117912134D01*
X25798652Y-117887148D01*
X25773666Y-117856703D01*
X25755099Y-117821967D01*
X25743665Y-117784274D01*
X25739200Y-117738939D01*
X25739200Y-116652261D01*
X25743665Y-116606926D01*
X25755099Y-116569233D01*
X25773666Y-116534497D01*
X25798652Y-116504052D01*
X25829097Y-116479066D01*
X25863833Y-116460499D01*
X25901526Y-116449065D01*
X25946861Y-116444600D01*
X26783539Y-116444600D01*
X26828874Y-116449065D01*
X26828874Y-116449065D01*
G37*
G36*
X28878874Y-116449065D02*
G01*
X28916567Y-116460499D01*
X28951303Y-116479066D01*
X28981748Y-116504052D01*
X29006734Y-116534497D01*
X29025301Y-116569233D01*
X29036735Y-116606926D01*
X29041200Y-116652261D01*
X29041200Y-117738939D01*
X29036735Y-117784274D01*
X29025301Y-117821967D01*
X29006734Y-117856703D01*
X28981748Y-117887148D01*
X28951303Y-117912134D01*
X28916567Y-117930701D01*
X28878874Y-117942135D01*
X28833539Y-117946600D01*
X27996861Y-117946600D01*
X27951526Y-117942135D01*
X27913833Y-117930701D01*
X27879097Y-117912134D01*
X27848652Y-117887148D01*
X27823666Y-117856703D01*
X27805099Y-117821967D01*
X27793665Y-117784274D01*
X27789200Y-117738939D01*
X27789200Y-116652261D01*
X27793665Y-116606926D01*
X27805099Y-116569233D01*
X27823666Y-116534497D01*
X27848652Y-116504052D01*
X27879097Y-116479066D01*
X27913833Y-116460499D01*
X27951526Y-116449065D01*
X27996861Y-116444600D01*
X28833539Y-116444600D01*
X28878874Y-116449065D01*
X28878874Y-116449065D01*
G37*
G36*
X49187114Y-115488945D02*
G01*
X49224807Y-115500379D01*
X49259543Y-115518946D01*
X49289988Y-115543932D01*
X49314974Y-115574377D01*
X49333541Y-115609113D01*
X49344975Y-115646806D01*
X49349440Y-115692141D01*
X49349440Y-116778819D01*
X49344975Y-116824154D01*
X49333541Y-116861847D01*
X49314974Y-116896583D01*
X49289988Y-116927028D01*
X49259543Y-116952014D01*
X49224807Y-116970581D01*
X49187114Y-116982015D01*
X49141779Y-116986480D01*
X48305101Y-116986480D01*
X48259766Y-116982015D01*
X48222073Y-116970581D01*
X48187337Y-116952014D01*
X48156892Y-116927028D01*
X48131906Y-116896583D01*
X48113339Y-116861847D01*
X48101905Y-116824154D01*
X48097440Y-116778819D01*
X48097440Y-115692141D01*
X48101905Y-115646806D01*
X48113339Y-115609113D01*
X48131906Y-115574377D01*
X48156892Y-115543932D01*
X48187337Y-115518946D01*
X48222073Y-115500379D01*
X48259766Y-115488945D01*
X48305101Y-115484480D01*
X49141779Y-115484480D01*
X49187114Y-115488945D01*
X49187114Y-115488945D01*
G37*
G36*
X51237114Y-115488945D02*
G01*
X51274807Y-115500379D01*
X51309543Y-115518946D01*
X51339988Y-115543932D01*
X51364974Y-115574377D01*
X51383541Y-115609113D01*
X51394975Y-115646806D01*
X51399440Y-115692141D01*
X51399440Y-116778819D01*
X51394975Y-116824154D01*
X51383541Y-116861847D01*
X51364974Y-116896583D01*
X51339988Y-116927028D01*
X51309543Y-116952014D01*
X51274807Y-116970581D01*
X51237114Y-116982015D01*
X51191779Y-116986480D01*
X50355101Y-116986480D01*
X50309766Y-116982015D01*
X50272073Y-116970581D01*
X50237337Y-116952014D01*
X50206892Y-116927028D01*
X50181906Y-116896583D01*
X50163339Y-116861847D01*
X50151905Y-116824154D01*
X50147440Y-116778819D01*
X50147440Y-115692141D01*
X50151905Y-115646806D01*
X50163339Y-115609113D01*
X50181906Y-115574377D01*
X50206892Y-115543932D01*
X50237337Y-115518946D01*
X50272073Y-115500379D01*
X50309766Y-115488945D01*
X50355101Y-115484480D01*
X51191779Y-115484480D01*
X51237114Y-115488945D01*
X51237114Y-115488945D01*
G37*
G36*
X78381164Y-113967789D02*
G01*
X78572433Y-114047015D01*
X78572435Y-114047016D01*
X78652337Y-114100405D01*
X78744573Y-114162035D01*
X78890965Y-114308427D01*
X79005985Y-114480567D01*
X79085211Y-114671836D01*
X79125600Y-114874884D01*
X79125600Y-115081916D01*
X79085211Y-115284964D01*
X79066772Y-115329479D01*
X79005984Y-115476235D01*
X78890965Y-115648373D01*
X78744573Y-115794765D01*
X78572435Y-115909784D01*
X78572434Y-115909785D01*
X78572433Y-115909785D01*
X78381164Y-115989011D01*
X78178116Y-116029400D01*
X77971084Y-116029400D01*
X77768036Y-115989011D01*
X77576767Y-115909785D01*
X77576766Y-115909785D01*
X77576765Y-115909784D01*
X77404627Y-115794765D01*
X77258235Y-115648373D01*
X77143216Y-115476235D01*
X77082428Y-115329479D01*
X77063989Y-115284964D01*
X77023600Y-115081916D01*
X77023600Y-114874884D01*
X77063989Y-114671836D01*
X77143215Y-114480567D01*
X77258235Y-114308427D01*
X77404627Y-114162035D01*
X77496863Y-114100405D01*
X77576765Y-114047016D01*
X77576767Y-114047015D01*
X77768036Y-113967789D01*
X77971084Y-113927400D01*
X78178116Y-113927400D01*
X78381164Y-113967789D01*
X78381164Y-113967789D01*
G37*
G36*
X75381164Y-113967789D02*
G01*
X75572433Y-114047015D01*
X75572435Y-114047016D01*
X75652337Y-114100405D01*
X75744573Y-114162035D01*
X75890965Y-114308427D01*
X76005985Y-114480567D01*
X76085211Y-114671836D01*
X76125600Y-114874884D01*
X76125600Y-115081916D01*
X76085211Y-115284964D01*
X76066772Y-115329479D01*
X76005984Y-115476235D01*
X75890965Y-115648373D01*
X75744573Y-115794765D01*
X75572435Y-115909784D01*
X75572434Y-115909785D01*
X75572433Y-115909785D01*
X75381164Y-115989011D01*
X75178116Y-116029400D01*
X74971084Y-116029400D01*
X74768036Y-115989011D01*
X74576767Y-115909785D01*
X74576766Y-115909785D01*
X74576765Y-115909784D01*
X74404627Y-115794765D01*
X74258235Y-115648373D01*
X74143216Y-115476235D01*
X74082428Y-115329479D01*
X74063989Y-115284964D01*
X74023600Y-115081916D01*
X74023600Y-114874884D01*
X74063989Y-114671836D01*
X74143215Y-114480567D01*
X74258235Y-114308427D01*
X74404627Y-114162035D01*
X74496863Y-114100405D01*
X74576765Y-114047016D01*
X74576767Y-114047015D01*
X74768036Y-113967789D01*
X74971084Y-113927400D01*
X75178116Y-113927400D01*
X75381164Y-113967789D01*
X75381164Y-113967789D01*
G37*
G36*
X89282401Y-115810001D02*
G01*
X83030401Y-115810001D01*
X83030401Y-114108001D01*
X89282401Y-114108001D01*
X89282401Y-115810001D01*
X89282401Y-115810001D01*
G37*
G36*
X103861000Y-115498700D02*
G01*
X100609000Y-115498700D01*
X100609000Y-114396700D01*
X103861000Y-114396700D01*
X103861000Y-115498700D01*
X103861000Y-115498700D01*
G37*
G36*
X98811000Y-115498700D02*
G01*
X95559000Y-115498700D01*
X95559000Y-114396700D01*
X98811000Y-114396700D01*
X98811000Y-115498700D01*
X98811000Y-115498700D01*
G37*
G36*
X44071000Y-115441000D02*
G01*
X40969000Y-115441000D01*
X40969000Y-114339000D01*
X44071000Y-114339000D01*
X44071000Y-115441000D01*
X44071000Y-115441000D01*
G37*
G36*
X39031000Y-115441000D02*
G01*
X35929000Y-115441000D01*
X35929000Y-114339000D01*
X39031000Y-114339000D01*
X39031000Y-115441000D01*
X39031000Y-115441000D01*
G37*
G36*
X61443239Y-114404479D02*
G01*
X55191239Y-114404479D01*
X55191239Y-112702479D01*
X61443239Y-112702479D01*
X61443239Y-114404479D01*
X61443239Y-114404479D01*
G37*
G36*
X67192014Y-112821945D02*
G01*
X67229707Y-112833379D01*
X67264443Y-112851946D01*
X67294888Y-112876932D01*
X67319874Y-112907377D01*
X67338441Y-112942113D01*
X67349875Y-112979806D01*
X67354340Y-113025141D01*
X67354340Y-114111819D01*
X67349875Y-114157154D01*
X67338441Y-114194847D01*
X67319874Y-114229583D01*
X67294888Y-114260028D01*
X67264443Y-114285014D01*
X67229707Y-114303581D01*
X67192014Y-114315015D01*
X67146679Y-114319480D01*
X66310001Y-114319480D01*
X66264666Y-114315015D01*
X66226973Y-114303581D01*
X66192237Y-114285014D01*
X66161792Y-114260028D01*
X66136806Y-114229583D01*
X66118239Y-114194847D01*
X66106805Y-114157154D01*
X66102340Y-114111819D01*
X66102340Y-113025141D01*
X66106805Y-112979806D01*
X66118239Y-112942113D01*
X66136806Y-112907377D01*
X66161792Y-112876932D01*
X66192237Y-112851946D01*
X66226973Y-112833379D01*
X66264666Y-112821945D01*
X66310001Y-112817480D01*
X67146679Y-112817480D01*
X67192014Y-112821945D01*
X67192014Y-112821945D01*
G37*
G36*
X69242014Y-112821945D02*
G01*
X69279707Y-112833379D01*
X69314443Y-112851946D01*
X69344888Y-112876932D01*
X69369874Y-112907377D01*
X69388441Y-112942113D01*
X69399875Y-112979806D01*
X69404340Y-113025141D01*
X69404340Y-114111819D01*
X69399875Y-114157154D01*
X69388441Y-114194847D01*
X69369874Y-114229583D01*
X69344888Y-114260028D01*
X69314443Y-114285014D01*
X69279707Y-114303581D01*
X69242014Y-114315015D01*
X69196679Y-114319480D01*
X68360001Y-114319480D01*
X68314666Y-114315015D01*
X68276973Y-114303581D01*
X68242237Y-114285014D01*
X68211792Y-114260028D01*
X68186806Y-114229583D01*
X68168239Y-114194847D01*
X68156805Y-114157154D01*
X68152340Y-114111819D01*
X68152340Y-113025141D01*
X68156805Y-112979806D01*
X68168239Y-112942113D01*
X68186806Y-112907377D01*
X68211792Y-112876932D01*
X68242237Y-112851946D01*
X68276973Y-112833379D01*
X68314666Y-112821945D01*
X68360001Y-112817480D01*
X69196679Y-112817480D01*
X69242014Y-112821945D01*
X69242014Y-112821945D01*
G37*
G36*
X84221968Y-111978765D02*
G01*
X84260638Y-111990496D01*
X84296277Y-112009546D01*
X84327517Y-112035183D01*
X84353154Y-112066423D01*
X84372204Y-112102062D01*
X84383935Y-112140732D01*
X84388500Y-112187088D01*
X84388500Y-113263312D01*
X84383935Y-113309668D01*
X84372204Y-113348338D01*
X84353154Y-113383977D01*
X84327517Y-113415217D01*
X84296277Y-113440854D01*
X84260638Y-113459904D01*
X84221968Y-113471635D01*
X84175612Y-113476200D01*
X83524388Y-113476200D01*
X83478032Y-113471635D01*
X83439362Y-113459904D01*
X83403723Y-113440854D01*
X83372483Y-113415217D01*
X83346846Y-113383977D01*
X83327796Y-113348338D01*
X83316065Y-113309668D01*
X83311500Y-113263312D01*
X83311500Y-112187088D01*
X83316065Y-112140732D01*
X83327796Y-112102062D01*
X83346846Y-112066423D01*
X83372483Y-112035183D01*
X83403723Y-112009546D01*
X83439362Y-111990496D01*
X83478032Y-111978765D01*
X83524388Y-111974200D01*
X84175612Y-111974200D01*
X84221968Y-111978765D01*
X84221968Y-111978765D01*
G37*
G36*
X86096968Y-111978765D02*
G01*
X86135638Y-111990496D01*
X86171277Y-112009546D01*
X86202517Y-112035183D01*
X86228154Y-112066423D01*
X86247204Y-112102062D01*
X86258935Y-112140732D01*
X86263500Y-112187088D01*
X86263500Y-113263312D01*
X86258935Y-113309668D01*
X86247204Y-113348338D01*
X86228154Y-113383977D01*
X86202517Y-113415217D01*
X86171277Y-113440854D01*
X86135638Y-113459904D01*
X86096968Y-113471635D01*
X86050612Y-113476200D01*
X85399388Y-113476200D01*
X85353032Y-113471635D01*
X85314362Y-113459904D01*
X85278723Y-113440854D01*
X85247483Y-113415217D01*
X85221846Y-113383977D01*
X85202796Y-113348338D01*
X85191065Y-113309668D01*
X85186500Y-113263312D01*
X85186500Y-112187088D01*
X85191065Y-112140732D01*
X85202796Y-112102062D01*
X85221846Y-112066423D01*
X85247483Y-112035183D01*
X85278723Y-112009546D01*
X85314362Y-111990496D01*
X85353032Y-111978765D01*
X85399388Y-111974200D01*
X86050612Y-111974200D01*
X86096968Y-111978765D01*
X86096968Y-111978765D01*
G37*
G36*
X78381164Y-110967789D02*
G01*
X78572433Y-111047015D01*
X78572435Y-111047016D01*
X78744573Y-111162035D01*
X78890965Y-111308427D01*
X78961731Y-111414335D01*
X79005985Y-111480567D01*
X79085211Y-111671836D01*
X79125600Y-111874884D01*
X79125600Y-112081916D01*
X79085211Y-112284964D01*
X79057866Y-112350980D01*
X79005984Y-112476235D01*
X78890965Y-112648373D01*
X78744573Y-112794765D01*
X78572435Y-112909784D01*
X78572434Y-112909785D01*
X78572433Y-112909785D01*
X78381164Y-112989011D01*
X78178116Y-113029400D01*
X77971084Y-113029400D01*
X77768036Y-112989011D01*
X77576767Y-112909785D01*
X77576766Y-112909785D01*
X77576765Y-112909784D01*
X77404627Y-112794765D01*
X77258235Y-112648373D01*
X77143216Y-112476235D01*
X77091334Y-112350980D01*
X77063989Y-112284964D01*
X77023600Y-112081916D01*
X77023600Y-111874884D01*
X77063989Y-111671836D01*
X77143215Y-111480567D01*
X77187470Y-111414335D01*
X77258235Y-111308427D01*
X77404627Y-111162035D01*
X77576765Y-111047016D01*
X77576767Y-111047015D01*
X77768036Y-110967789D01*
X77971084Y-110927400D01*
X78178116Y-110927400D01*
X78381164Y-110967789D01*
X78381164Y-110967789D01*
G37*
G36*
X103861000Y-112958700D02*
G01*
X100609000Y-112958700D01*
X100609000Y-111856700D01*
X103861000Y-111856700D01*
X103861000Y-112958700D01*
X103861000Y-112958700D01*
G37*
G36*
X98811000Y-112958700D02*
G01*
X95559000Y-112958700D01*
X95559000Y-111856700D01*
X98811000Y-111856700D01*
X98811000Y-112958700D01*
X98811000Y-112958700D01*
G37*
G36*
X44071000Y-112901000D02*
G01*
X40969000Y-112901000D01*
X40969000Y-111799000D01*
X44071000Y-111799000D01*
X44071000Y-112901000D01*
X44071000Y-112901000D01*
G37*
G36*
X39031000Y-112901000D02*
G01*
X35929000Y-112901000D01*
X35929000Y-111799000D01*
X39031000Y-111799000D01*
X39031000Y-112901000D01*
X39031000Y-112901000D01*
G37*
G36*
X49565960Y-112864720D02*
G01*
X46313960Y-112864720D01*
X46313960Y-111762720D01*
X49565960Y-111762720D01*
X49565960Y-112864720D01*
X49565960Y-112864720D01*
G37*
G36*
X54615960Y-112864720D02*
G01*
X51363960Y-112864720D01*
X51363960Y-111762720D01*
X54615960Y-111762720D01*
X54615960Y-112864720D01*
X54615960Y-112864720D01*
G37*
G36*
X69249414Y-110853445D02*
G01*
X69287107Y-110864879D01*
X69321843Y-110883446D01*
X69352288Y-110908432D01*
X69377274Y-110938877D01*
X69395841Y-110973613D01*
X69407275Y-111011306D01*
X69411740Y-111056641D01*
X69411740Y-112143319D01*
X69407275Y-112188654D01*
X69395841Y-112226347D01*
X69377274Y-112261083D01*
X69352288Y-112291528D01*
X69321843Y-112316514D01*
X69287107Y-112335081D01*
X69249414Y-112346515D01*
X69204079Y-112350980D01*
X68367401Y-112350980D01*
X68322066Y-112346515D01*
X68284373Y-112335081D01*
X68249637Y-112316514D01*
X68219192Y-112291528D01*
X68194206Y-112261083D01*
X68175639Y-112226347D01*
X68164205Y-112188654D01*
X68159740Y-112143319D01*
X68159740Y-111056641D01*
X68164205Y-111011306D01*
X68175639Y-110973613D01*
X68194206Y-110938877D01*
X68219192Y-110908432D01*
X68249637Y-110883446D01*
X68284373Y-110864879D01*
X68322066Y-110853445D01*
X68367401Y-110848980D01*
X69204079Y-110848980D01*
X69249414Y-110853445D01*
X69249414Y-110853445D01*
G37*
G36*
X67199414Y-110853445D02*
G01*
X67237107Y-110864879D01*
X67271843Y-110883446D01*
X67302288Y-110908432D01*
X67327274Y-110938877D01*
X67345841Y-110973613D01*
X67357275Y-111011306D01*
X67361740Y-111056641D01*
X67361740Y-112143319D01*
X67357275Y-112188654D01*
X67345841Y-112226347D01*
X67327274Y-112261083D01*
X67302288Y-112291528D01*
X67271843Y-112316514D01*
X67237107Y-112335081D01*
X67199414Y-112346515D01*
X67154079Y-112350980D01*
X66317401Y-112350980D01*
X66272066Y-112346515D01*
X66234373Y-112335081D01*
X66199637Y-112316514D01*
X66169192Y-112291528D01*
X66144206Y-112261083D01*
X66125639Y-112226347D01*
X66114205Y-112188654D01*
X66109740Y-112143319D01*
X66109740Y-111056641D01*
X66114205Y-111011306D01*
X66125639Y-110973613D01*
X66144206Y-110938877D01*
X66169192Y-110908432D01*
X66199637Y-110883446D01*
X66234373Y-110864879D01*
X66272066Y-110853445D01*
X66317401Y-110848980D01*
X67154079Y-110848980D01*
X67199414Y-110853445D01*
X67199414Y-110853445D01*
G37*
G36*
X63530714Y-110358145D02*
G01*
X63568407Y-110369579D01*
X63603143Y-110388146D01*
X63633588Y-110413132D01*
X63658574Y-110443577D01*
X63677141Y-110478313D01*
X63688575Y-110516006D01*
X63693040Y-110561341D01*
X63693040Y-111648019D01*
X63688575Y-111693354D01*
X63677141Y-111731047D01*
X63658574Y-111765783D01*
X63633588Y-111796228D01*
X63603143Y-111821214D01*
X63568407Y-111839781D01*
X63530714Y-111851215D01*
X63485379Y-111855680D01*
X62648701Y-111855680D01*
X62603366Y-111851215D01*
X62565673Y-111839781D01*
X62530937Y-111821214D01*
X62500492Y-111796228D01*
X62475506Y-111765783D01*
X62456939Y-111731047D01*
X62445505Y-111693354D01*
X62441040Y-111648019D01*
X62441040Y-110561341D01*
X62445505Y-110516006D01*
X62456939Y-110478313D01*
X62475506Y-110443577D01*
X62500492Y-110413132D01*
X62530937Y-110388146D01*
X62565673Y-110369579D01*
X62603366Y-110358145D01*
X62648701Y-110353680D01*
X63485379Y-110353680D01*
X63530714Y-110358145D01*
X63530714Y-110358145D01*
G37*
G36*
X61480714Y-110358145D02*
G01*
X61518407Y-110369579D01*
X61553143Y-110388146D01*
X61583588Y-110413132D01*
X61608574Y-110443577D01*
X61627141Y-110478313D01*
X61638575Y-110516006D01*
X61643040Y-110561341D01*
X61643040Y-111648019D01*
X61638575Y-111693354D01*
X61627141Y-111731047D01*
X61608574Y-111765783D01*
X61583588Y-111796228D01*
X61553143Y-111821214D01*
X61518407Y-111839781D01*
X61480714Y-111851215D01*
X61435379Y-111855680D01*
X60598701Y-111855680D01*
X60553366Y-111851215D01*
X60515673Y-111839781D01*
X60480937Y-111821214D01*
X60450492Y-111796228D01*
X60425506Y-111765783D01*
X60406939Y-111731047D01*
X60395505Y-111693354D01*
X60391040Y-111648019D01*
X60391040Y-110561341D01*
X60395505Y-110516006D01*
X60406939Y-110478313D01*
X60425506Y-110443577D01*
X60450492Y-110413132D01*
X60480937Y-110388146D01*
X60515673Y-110369579D01*
X60553366Y-110358145D01*
X60598701Y-110353680D01*
X61435379Y-110353680D01*
X61480714Y-110358145D01*
X61480714Y-110358145D01*
G37*
G36*
X90260074Y-109921265D02*
G01*
X90297767Y-109932699D01*
X90332503Y-109951266D01*
X90362948Y-109976252D01*
X90387934Y-110006697D01*
X90406501Y-110041433D01*
X90417935Y-110079126D01*
X90422400Y-110124461D01*
X90422400Y-111211139D01*
X90417935Y-111256474D01*
X90406501Y-111294167D01*
X90387934Y-111328903D01*
X90362948Y-111359348D01*
X90332503Y-111384334D01*
X90297767Y-111402901D01*
X90260074Y-111414335D01*
X90214739Y-111418800D01*
X89378061Y-111418800D01*
X89332726Y-111414335D01*
X89295033Y-111402901D01*
X89260297Y-111384334D01*
X89229852Y-111359348D01*
X89204866Y-111328903D01*
X89186299Y-111294167D01*
X89174865Y-111256474D01*
X89170400Y-111211139D01*
X89170400Y-110124461D01*
X89174865Y-110079126D01*
X89186299Y-110041433D01*
X89204866Y-110006697D01*
X89229852Y-109976252D01*
X89260297Y-109951266D01*
X89295033Y-109932699D01*
X89332726Y-109921265D01*
X89378061Y-109916800D01*
X90214739Y-109916800D01*
X90260074Y-109921265D01*
X90260074Y-109921265D01*
G37*
G36*
X86366474Y-109921265D02*
G01*
X86404167Y-109932699D01*
X86438903Y-109951266D01*
X86469348Y-109976252D01*
X86494334Y-110006697D01*
X86512901Y-110041433D01*
X86524335Y-110079126D01*
X86528800Y-110124461D01*
X86528800Y-111211139D01*
X86524335Y-111256474D01*
X86512901Y-111294167D01*
X86494334Y-111328903D01*
X86469348Y-111359348D01*
X86438903Y-111384334D01*
X86404167Y-111402901D01*
X86366474Y-111414335D01*
X86321139Y-111418800D01*
X85484461Y-111418800D01*
X85439126Y-111414335D01*
X85401433Y-111402901D01*
X85366697Y-111384334D01*
X85336252Y-111359348D01*
X85311266Y-111328903D01*
X85292699Y-111294167D01*
X85281265Y-111256474D01*
X85276800Y-111211139D01*
X85276800Y-110124461D01*
X85281265Y-110079126D01*
X85292699Y-110041433D01*
X85311266Y-110006697D01*
X85336252Y-109976252D01*
X85366697Y-109951266D01*
X85401433Y-109932699D01*
X85439126Y-109921265D01*
X85484461Y-109916800D01*
X86321139Y-109916800D01*
X86366474Y-109921265D01*
X86366474Y-109921265D01*
G37*
G36*
X92310074Y-109921265D02*
G01*
X92347767Y-109932699D01*
X92382503Y-109951266D01*
X92412948Y-109976252D01*
X92437934Y-110006697D01*
X92456501Y-110041433D01*
X92467935Y-110079126D01*
X92472400Y-110124461D01*
X92472400Y-111211139D01*
X92467935Y-111256474D01*
X92456501Y-111294167D01*
X92437934Y-111328903D01*
X92412948Y-111359348D01*
X92382503Y-111384334D01*
X92347767Y-111402901D01*
X92310074Y-111414335D01*
X92264739Y-111418800D01*
X91428061Y-111418800D01*
X91382726Y-111414335D01*
X91345033Y-111402901D01*
X91310297Y-111384334D01*
X91279852Y-111359348D01*
X91254866Y-111328903D01*
X91236299Y-111294167D01*
X91224865Y-111256474D01*
X91220400Y-111211139D01*
X91220400Y-110124461D01*
X91224865Y-110079126D01*
X91236299Y-110041433D01*
X91254866Y-110006697D01*
X91279852Y-109976252D01*
X91310297Y-109951266D01*
X91345033Y-109932699D01*
X91382726Y-109921265D01*
X91428061Y-109916800D01*
X92264739Y-109916800D01*
X92310074Y-109921265D01*
X92310074Y-109921265D01*
G37*
G36*
X88416474Y-109921265D02*
G01*
X88454167Y-109932699D01*
X88488903Y-109951266D01*
X88519348Y-109976252D01*
X88544334Y-110006697D01*
X88562901Y-110041433D01*
X88574335Y-110079126D01*
X88578800Y-110124461D01*
X88578800Y-111211139D01*
X88574335Y-111256474D01*
X88562901Y-111294167D01*
X88544334Y-111328903D01*
X88519348Y-111359348D01*
X88488903Y-111384334D01*
X88454167Y-111402901D01*
X88416474Y-111414335D01*
X88371139Y-111418800D01*
X87534461Y-111418800D01*
X87489126Y-111414335D01*
X87451433Y-111402901D01*
X87416697Y-111384334D01*
X87386252Y-111359348D01*
X87361266Y-111328903D01*
X87342699Y-111294167D01*
X87331265Y-111256474D01*
X87326800Y-111211139D01*
X87326800Y-110124461D01*
X87331265Y-110079126D01*
X87342699Y-110041433D01*
X87361266Y-110006697D01*
X87386252Y-109976252D01*
X87416697Y-109951266D01*
X87451433Y-109932699D01*
X87489126Y-109921265D01*
X87534461Y-109916800D01*
X88371139Y-109916800D01*
X88416474Y-109921265D01*
X88416474Y-109921265D01*
G37*
G36*
X98811000Y-110418700D02*
G01*
X95559000Y-110418700D01*
X95559000Y-109316700D01*
X98811000Y-109316700D01*
X98811000Y-110418700D01*
X98811000Y-110418700D01*
G37*
G36*
X103861000Y-110418700D02*
G01*
X100609000Y-110418700D01*
X100609000Y-109316700D01*
X103861000Y-109316700D01*
X103861000Y-110418700D01*
X103861000Y-110418700D01*
G37*
G36*
X67166614Y-108897645D02*
G01*
X67204307Y-108909079D01*
X67239043Y-108927646D01*
X67269488Y-108952632D01*
X67294474Y-108983077D01*
X67313041Y-109017813D01*
X67324475Y-109055506D01*
X67328940Y-109100841D01*
X67328940Y-110187519D01*
X67324475Y-110232854D01*
X67313041Y-110270547D01*
X67294474Y-110305283D01*
X67269488Y-110335728D01*
X67239043Y-110360714D01*
X67204307Y-110379281D01*
X67166614Y-110390715D01*
X67121279Y-110395180D01*
X66284601Y-110395180D01*
X66239266Y-110390715D01*
X66201573Y-110379281D01*
X66166837Y-110360714D01*
X66136392Y-110335728D01*
X66111406Y-110305283D01*
X66092839Y-110270547D01*
X66081405Y-110232854D01*
X66076940Y-110187519D01*
X66076940Y-109100841D01*
X66081405Y-109055506D01*
X66092839Y-109017813D01*
X66111406Y-108983077D01*
X66136392Y-108952632D01*
X66166837Y-108927646D01*
X66201573Y-108909079D01*
X66239266Y-108897645D01*
X66284601Y-108893180D01*
X67121279Y-108893180D01*
X67166614Y-108897645D01*
X67166614Y-108897645D01*
G37*
G36*
X69216614Y-108897645D02*
G01*
X69254307Y-108909079D01*
X69289043Y-108927646D01*
X69319488Y-108952632D01*
X69344474Y-108983077D01*
X69363041Y-109017813D01*
X69374475Y-109055506D01*
X69378940Y-109100841D01*
X69378940Y-110187519D01*
X69374475Y-110232854D01*
X69363041Y-110270547D01*
X69344474Y-110305283D01*
X69319488Y-110335728D01*
X69289043Y-110360714D01*
X69254307Y-110379281D01*
X69216614Y-110390715D01*
X69171279Y-110395180D01*
X68334601Y-110395180D01*
X68289266Y-110390715D01*
X68251573Y-110379281D01*
X68216837Y-110360714D01*
X68186392Y-110335728D01*
X68161406Y-110305283D01*
X68142839Y-110270547D01*
X68131405Y-110232854D01*
X68126940Y-110187519D01*
X68126940Y-109100841D01*
X68131405Y-109055506D01*
X68142839Y-109017813D01*
X68161406Y-108983077D01*
X68186392Y-108952632D01*
X68216837Y-108927646D01*
X68251573Y-108909079D01*
X68289266Y-108897645D01*
X68334601Y-108893180D01*
X69171279Y-108893180D01*
X69216614Y-108897645D01*
X69216614Y-108897645D01*
G37*
G36*
X44071000Y-110361000D02*
G01*
X40969000Y-110361000D01*
X40969000Y-109259000D01*
X44071000Y-109259000D01*
X44071000Y-110361000D01*
X44071000Y-110361000D01*
G37*
G36*
X39031000Y-110361000D02*
G01*
X35929000Y-110361000D01*
X35929000Y-109259000D01*
X39031000Y-109259000D01*
X39031000Y-110361000D01*
X39031000Y-110361000D01*
G37*
G36*
X54615960Y-110324720D02*
G01*
X51363960Y-110324720D01*
X51363960Y-109222720D01*
X54615960Y-109222720D01*
X54615960Y-110324720D01*
X54615960Y-110324720D01*
G37*
G36*
X49565960Y-110324720D02*
G01*
X46313960Y-110324720D01*
X46313960Y-109222720D01*
X49565960Y-109222720D01*
X49565960Y-110324720D01*
X49565960Y-110324720D01*
G37*
G36*
X57144314Y-108621545D02*
G01*
X57182007Y-108632979D01*
X57216743Y-108651546D01*
X57247188Y-108676532D01*
X57272174Y-108706977D01*
X57290741Y-108741713D01*
X57302175Y-108779406D01*
X57306640Y-108824741D01*
X57306640Y-109661419D01*
X57302175Y-109706754D01*
X57290741Y-109744447D01*
X57272174Y-109779183D01*
X57247188Y-109809628D01*
X57216743Y-109834614D01*
X57182007Y-109853181D01*
X57144314Y-109864615D01*
X57098979Y-109869080D01*
X56012301Y-109869080D01*
X55966966Y-109864615D01*
X55929273Y-109853181D01*
X55894537Y-109834614D01*
X55864092Y-109809628D01*
X55839106Y-109779183D01*
X55820539Y-109744447D01*
X55809105Y-109706754D01*
X55804640Y-109661419D01*
X55804640Y-108824741D01*
X55809105Y-108779406D01*
X55820539Y-108741713D01*
X55839106Y-108706977D01*
X55864092Y-108676532D01*
X55894537Y-108651546D01*
X55929273Y-108632979D01*
X55966966Y-108621545D01*
X56012301Y-108617080D01*
X57098979Y-108617080D01*
X57144314Y-108621545D01*
X57144314Y-108621545D01*
G37*
G36*
X61153308Y-108584945D02*
G01*
X61191978Y-108596676D01*
X61227617Y-108615726D01*
X61258857Y-108641363D01*
X61284494Y-108672603D01*
X61303544Y-108708242D01*
X61315275Y-108746912D01*
X61319840Y-108793268D01*
X61319840Y-109444492D01*
X61315275Y-109490848D01*
X61303544Y-109529518D01*
X61284494Y-109565157D01*
X61258857Y-109596397D01*
X61227617Y-109622034D01*
X61191978Y-109641084D01*
X61153308Y-109652815D01*
X61106952Y-109657380D01*
X60030728Y-109657380D01*
X59984372Y-109652815D01*
X59945702Y-109641084D01*
X59910063Y-109622034D01*
X59878823Y-109596397D01*
X59853186Y-109565157D01*
X59834136Y-109529518D01*
X59822405Y-109490848D01*
X59817840Y-109444492D01*
X59817840Y-108793268D01*
X59822405Y-108746912D01*
X59834136Y-108708242D01*
X59853186Y-108672603D01*
X59878823Y-108641363D01*
X59910063Y-108615726D01*
X59945702Y-108596676D01*
X59984372Y-108584945D01*
X60030728Y-108580380D01*
X61106952Y-108580380D01*
X61153308Y-108584945D01*
X61153308Y-108584945D01*
G37*
G36*
X59172108Y-108584945D02*
G01*
X59210778Y-108596676D01*
X59246417Y-108615726D01*
X59277657Y-108641363D01*
X59303294Y-108672603D01*
X59322344Y-108708242D01*
X59334075Y-108746912D01*
X59338640Y-108793268D01*
X59338640Y-109444492D01*
X59334075Y-109490848D01*
X59322344Y-109529518D01*
X59303294Y-109565157D01*
X59277657Y-109596397D01*
X59246417Y-109622034D01*
X59210778Y-109641084D01*
X59172108Y-109652815D01*
X59125752Y-109657380D01*
X58049528Y-109657380D01*
X58003172Y-109652815D01*
X57964502Y-109641084D01*
X57928863Y-109622034D01*
X57897623Y-109596397D01*
X57871986Y-109565157D01*
X57852936Y-109529518D01*
X57841205Y-109490848D01*
X57836640Y-109444492D01*
X57836640Y-108793268D01*
X57841205Y-108746912D01*
X57852936Y-108708242D01*
X57871986Y-108672603D01*
X57897623Y-108641363D01*
X57928863Y-108615726D01*
X57964502Y-108596676D01*
X58003172Y-108584945D01*
X58049528Y-108580380D01*
X59125752Y-108580380D01*
X59172108Y-108584945D01*
X59172108Y-108584945D01*
G37*
G36*
X93901400Y-107966000D02*
G01*
X90299400Y-107966000D01*
X90299400Y-106664000D01*
X93901400Y-106664000D01*
X93901400Y-107966000D01*
X93901400Y-107966000D01*
G37*
G36*
X88401400Y-107966000D02*
G01*
X84799400Y-107966000D01*
X84799400Y-106664000D01*
X88401400Y-106664000D01*
X88401400Y-107966000D01*
X88401400Y-107966000D01*
G37*
G36*
X44071000Y-107821000D02*
G01*
X40969000Y-107821000D01*
X40969000Y-106719000D01*
X44071000Y-106719000D01*
X44071000Y-107821000D01*
X44071000Y-107821000D01*
G37*
G36*
X39031000Y-107821000D02*
G01*
X35929000Y-107821000D01*
X35929000Y-106719000D01*
X39031000Y-106719000D01*
X39031000Y-107821000D01*
X39031000Y-107821000D01*
G37*
G36*
X57144314Y-106571545D02*
G01*
X57182007Y-106582979D01*
X57216743Y-106601546D01*
X57247188Y-106626532D01*
X57272174Y-106656977D01*
X57290741Y-106691713D01*
X57302175Y-106729406D01*
X57306640Y-106774741D01*
X57306640Y-107611419D01*
X57302175Y-107656754D01*
X57290741Y-107694447D01*
X57272174Y-107729183D01*
X57247188Y-107759628D01*
X57216743Y-107784614D01*
X57182007Y-107803181D01*
X57144314Y-107814615D01*
X57098979Y-107819080D01*
X56012301Y-107819080D01*
X55966966Y-107814615D01*
X55929273Y-107803181D01*
X55894537Y-107784614D01*
X55864092Y-107759628D01*
X55839106Y-107729183D01*
X55820539Y-107694447D01*
X55809105Y-107656754D01*
X55804640Y-107611419D01*
X55804640Y-106774741D01*
X55809105Y-106729406D01*
X55820539Y-106691713D01*
X55839106Y-106656977D01*
X55864092Y-106626532D01*
X55894537Y-106601546D01*
X55929273Y-106582979D01*
X55966966Y-106571545D01*
X56012301Y-106567080D01*
X57098979Y-106567080D01*
X57144314Y-106571545D01*
X57144314Y-106571545D01*
G37*
G36*
X54615960Y-107784720D02*
G01*
X51363960Y-107784720D01*
X51363960Y-106682720D01*
X54615960Y-106682720D01*
X54615960Y-107784720D01*
X54615960Y-107784720D01*
G37*
G36*
X49565960Y-107784720D02*
G01*
X46313960Y-107784720D01*
X46313960Y-106682720D01*
X49565960Y-106682720D01*
X49565960Y-107784720D01*
X49565960Y-107784720D01*
G37*
G36*
X61153308Y-106709945D02*
G01*
X61191978Y-106721676D01*
X61227617Y-106740726D01*
X61258857Y-106766363D01*
X61284494Y-106797603D01*
X61303544Y-106833242D01*
X61315275Y-106871912D01*
X61319840Y-106918268D01*
X61319840Y-107569492D01*
X61315275Y-107615848D01*
X61303544Y-107654518D01*
X61284494Y-107690157D01*
X61258857Y-107721397D01*
X61227617Y-107747034D01*
X61191978Y-107766084D01*
X61153308Y-107777815D01*
X61106952Y-107782380D01*
X60030728Y-107782380D01*
X59984372Y-107777815D01*
X59945702Y-107766084D01*
X59910063Y-107747034D01*
X59878823Y-107721397D01*
X59853186Y-107690157D01*
X59834136Y-107654518D01*
X59822405Y-107615848D01*
X59817840Y-107569492D01*
X59817840Y-106918268D01*
X59822405Y-106871912D01*
X59834136Y-106833242D01*
X59853186Y-106797603D01*
X59878823Y-106766363D01*
X59910063Y-106740726D01*
X59945702Y-106721676D01*
X59984372Y-106709945D01*
X60030728Y-106705380D01*
X61106952Y-106705380D01*
X61153308Y-106709945D01*
X61153308Y-106709945D01*
G37*
G36*
X59172108Y-106709945D02*
G01*
X59210778Y-106721676D01*
X59246417Y-106740726D01*
X59277657Y-106766363D01*
X59303294Y-106797603D01*
X59322344Y-106833242D01*
X59334075Y-106871912D01*
X59338640Y-106918268D01*
X59338640Y-107569492D01*
X59334075Y-107615848D01*
X59322344Y-107654518D01*
X59303294Y-107690157D01*
X59277657Y-107721397D01*
X59246417Y-107747034D01*
X59210778Y-107766084D01*
X59172108Y-107777815D01*
X59125752Y-107782380D01*
X58049528Y-107782380D01*
X58003172Y-107777815D01*
X57964502Y-107766084D01*
X57928863Y-107747034D01*
X57897623Y-107721397D01*
X57871986Y-107690157D01*
X57852936Y-107654518D01*
X57841205Y-107615848D01*
X57836640Y-107569492D01*
X57836640Y-106918268D01*
X57841205Y-106871912D01*
X57852936Y-106833242D01*
X57871986Y-106797603D01*
X57897623Y-106766363D01*
X57928863Y-106740726D01*
X57964502Y-106721676D01*
X58003172Y-106709945D01*
X58049528Y-106705380D01*
X59125752Y-106705380D01*
X59172108Y-106709945D01*
X59172108Y-106709945D01*
G37*
G36*
X44071000Y-105281000D02*
G01*
X40969000Y-105281000D01*
X40969000Y-104179000D01*
X44071000Y-104179000D01*
X44071000Y-105281000D01*
X44071000Y-105281000D01*
G37*
G36*
X39031000Y-105281000D02*
G01*
X35929000Y-105281000D01*
X35929000Y-104179000D01*
X39031000Y-104179000D01*
X39031000Y-105281000D01*
X39031000Y-105281000D01*
G37*
G36*
X91622274Y-102977665D02*
G01*
X91659967Y-102989099D01*
X91694703Y-103007666D01*
X91725148Y-103032652D01*
X91750134Y-103063097D01*
X91768701Y-103097833D01*
X91780135Y-103135526D01*
X91784600Y-103180861D01*
X91784600Y-104017539D01*
X91780135Y-104062874D01*
X91768701Y-104100567D01*
X91750134Y-104135303D01*
X91725148Y-104165748D01*
X91694703Y-104190734D01*
X91659967Y-104209301D01*
X91622274Y-104220735D01*
X91576939Y-104225200D01*
X90490261Y-104225200D01*
X90444926Y-104220735D01*
X90407233Y-104209301D01*
X90372497Y-104190734D01*
X90342052Y-104165748D01*
X90317066Y-104135303D01*
X90298499Y-104100567D01*
X90287065Y-104062874D01*
X90282600Y-104017539D01*
X90282600Y-103180861D01*
X90287065Y-103135526D01*
X90298499Y-103097833D01*
X90317066Y-103063097D01*
X90342052Y-103032652D01*
X90372497Y-103007666D01*
X90407233Y-102989099D01*
X90444926Y-102977665D01*
X90490261Y-102973200D01*
X91576939Y-102973200D01*
X91622274Y-102977665D01*
X91622274Y-102977665D01*
G37*
G36*
X59977160Y-104089960D02*
G01*
X56375160Y-104089960D01*
X56375160Y-102787960D01*
X59977160Y-102787960D01*
X59977160Y-104089960D01*
X59977160Y-104089960D01*
G37*
G36*
X54477160Y-104089960D02*
G01*
X50875160Y-104089960D01*
X50875160Y-102787960D01*
X54477160Y-102787960D01*
X54477160Y-104089960D01*
X54477160Y-104089960D01*
G37*
G36*
X89586068Y-102968765D02*
G01*
X89624738Y-102980496D01*
X89660377Y-102999546D01*
X89691617Y-103025183D01*
X89717254Y-103056423D01*
X89736304Y-103092062D01*
X89748035Y-103130732D01*
X89752600Y-103177088D01*
X89752600Y-103828312D01*
X89748035Y-103874668D01*
X89736304Y-103913338D01*
X89717254Y-103948977D01*
X89691617Y-103980217D01*
X89660377Y-104005854D01*
X89624738Y-104024904D01*
X89586068Y-104036635D01*
X89539712Y-104041200D01*
X88463488Y-104041200D01*
X88417132Y-104036635D01*
X88378462Y-104024904D01*
X88342823Y-104005854D01*
X88311583Y-103980217D01*
X88285946Y-103948977D01*
X88266896Y-103913338D01*
X88255165Y-103874668D01*
X88250600Y-103828312D01*
X88250600Y-103177088D01*
X88255165Y-103130732D01*
X88266896Y-103092062D01*
X88285946Y-103056423D01*
X88311583Y-103025183D01*
X88342823Y-102999546D01*
X88378462Y-102980496D01*
X88417132Y-102968765D01*
X88463488Y-102964200D01*
X89539712Y-102964200D01*
X89586068Y-102968765D01*
X89586068Y-102968765D01*
G37*
G36*
X87554068Y-102968765D02*
G01*
X87592738Y-102980496D01*
X87628377Y-102999546D01*
X87659617Y-103025183D01*
X87685254Y-103056423D01*
X87704304Y-103092062D01*
X87716035Y-103130732D01*
X87720600Y-103177088D01*
X87720600Y-103828312D01*
X87716035Y-103874668D01*
X87704304Y-103913338D01*
X87685254Y-103948977D01*
X87659617Y-103980217D01*
X87628377Y-104005854D01*
X87592738Y-104024904D01*
X87554068Y-104036635D01*
X87507712Y-104041200D01*
X86431488Y-104041200D01*
X86385132Y-104036635D01*
X86346462Y-104024904D01*
X86310823Y-104005854D01*
X86279583Y-103980217D01*
X86253946Y-103948977D01*
X86234896Y-103913338D01*
X86223165Y-103874668D01*
X86218600Y-103828312D01*
X86218600Y-103177088D01*
X86223165Y-103130732D01*
X86234896Y-103092062D01*
X86253946Y-103056423D01*
X86279583Y-103025183D01*
X86310823Y-102999546D01*
X86346462Y-102980496D01*
X86385132Y-102968765D01*
X86431488Y-102964200D01*
X87507712Y-102964200D01*
X87554068Y-102968765D01*
X87554068Y-102968765D01*
G37*
G36*
X77772274Y-102377465D02*
G01*
X77809967Y-102388899D01*
X77844703Y-102407466D01*
X77875148Y-102432452D01*
X77900134Y-102462897D01*
X77918701Y-102497633D01*
X77930135Y-102535326D01*
X77934600Y-102580661D01*
X77934600Y-103667339D01*
X77930135Y-103712674D01*
X77918701Y-103750367D01*
X77900134Y-103785103D01*
X77875148Y-103815548D01*
X77844703Y-103840534D01*
X77809967Y-103859101D01*
X77772274Y-103870535D01*
X77726939Y-103875000D01*
X76890261Y-103875000D01*
X76844926Y-103870535D01*
X76807233Y-103859101D01*
X76772497Y-103840534D01*
X76742052Y-103815548D01*
X76717066Y-103785103D01*
X76698499Y-103750367D01*
X76687065Y-103712674D01*
X76682600Y-103667339D01*
X76682600Y-102580661D01*
X76687065Y-102535326D01*
X76698499Y-102497633D01*
X76717066Y-102462897D01*
X76742052Y-102432452D01*
X76772497Y-102407466D01*
X76807233Y-102388899D01*
X76844926Y-102377465D01*
X76890261Y-102373000D01*
X77726939Y-102373000D01*
X77772274Y-102377465D01*
X77772274Y-102377465D01*
G37*
G36*
X79822274Y-102377465D02*
G01*
X79859967Y-102388899D01*
X79894703Y-102407466D01*
X79925148Y-102432452D01*
X79950134Y-102462897D01*
X79968701Y-102497633D01*
X79980135Y-102535326D01*
X79984600Y-102580661D01*
X79984600Y-103667339D01*
X79980135Y-103712674D01*
X79968701Y-103750367D01*
X79950134Y-103785103D01*
X79925148Y-103815548D01*
X79894703Y-103840534D01*
X79859967Y-103859101D01*
X79822274Y-103870535D01*
X79776939Y-103875000D01*
X78940261Y-103875000D01*
X78894926Y-103870535D01*
X78857233Y-103859101D01*
X78822497Y-103840534D01*
X78792052Y-103815548D01*
X78767066Y-103785103D01*
X78748499Y-103750367D01*
X78737065Y-103712674D01*
X78732600Y-103667339D01*
X78732600Y-102580661D01*
X78737065Y-102535326D01*
X78748499Y-102497633D01*
X78767066Y-102462897D01*
X78792052Y-102432452D01*
X78822497Y-102407466D01*
X78857233Y-102388899D01*
X78894926Y-102377465D01*
X78940261Y-102373000D01*
X79776939Y-102373000D01*
X79822274Y-102377465D01*
X79822274Y-102377465D01*
G37*
G36*
X99862874Y-102352065D02*
G01*
X99900567Y-102363499D01*
X99935303Y-102382066D01*
X99965748Y-102407052D01*
X99990734Y-102437497D01*
X100009301Y-102472233D01*
X100020735Y-102509926D01*
X100025200Y-102555261D01*
X100025200Y-103641939D01*
X100020735Y-103687274D01*
X100009301Y-103724967D01*
X99990734Y-103759703D01*
X99965748Y-103790148D01*
X99935303Y-103815134D01*
X99900567Y-103833701D01*
X99862874Y-103845135D01*
X99817539Y-103849600D01*
X98980861Y-103849600D01*
X98935526Y-103845135D01*
X98897833Y-103833701D01*
X98863097Y-103815134D01*
X98832652Y-103790148D01*
X98807666Y-103759703D01*
X98789099Y-103724967D01*
X98777665Y-103687274D01*
X98773200Y-103641939D01*
X98773200Y-102555261D01*
X98777665Y-102509926D01*
X98789099Y-102472233D01*
X98807666Y-102437497D01*
X98832652Y-102407052D01*
X98863097Y-102382066D01*
X98897833Y-102363499D01*
X98935526Y-102352065D01*
X98980861Y-102347600D01*
X99817539Y-102347600D01*
X99862874Y-102352065D01*
X99862874Y-102352065D01*
G37*
G36*
X97812874Y-102352065D02*
G01*
X97850567Y-102363499D01*
X97885303Y-102382066D01*
X97915748Y-102407052D01*
X97940734Y-102437497D01*
X97959301Y-102472233D01*
X97970735Y-102509926D01*
X97975200Y-102555261D01*
X97975200Y-103641939D01*
X97970735Y-103687274D01*
X97959301Y-103724967D01*
X97940734Y-103759703D01*
X97915748Y-103790148D01*
X97885303Y-103815134D01*
X97850567Y-103833701D01*
X97812874Y-103845135D01*
X97767539Y-103849600D01*
X96930861Y-103849600D01*
X96885526Y-103845135D01*
X96847833Y-103833701D01*
X96813097Y-103815134D01*
X96782652Y-103790148D01*
X96757666Y-103759703D01*
X96739099Y-103724967D01*
X96727665Y-103687274D01*
X96723200Y-103641939D01*
X96723200Y-102555261D01*
X96727665Y-102509926D01*
X96739099Y-102472233D01*
X96757666Y-102437497D01*
X96782652Y-102407052D01*
X96813097Y-102382066D01*
X96847833Y-102363499D01*
X96885526Y-102352065D01*
X96930861Y-102347600D01*
X97767539Y-102347600D01*
X97812874Y-102352065D01*
X97812874Y-102352065D01*
G37*
G36*
X39031000Y-102741000D02*
G01*
X35929000Y-102741000D01*
X35929000Y-101639000D01*
X39031000Y-101639000D01*
X39031000Y-102741000D01*
X39031000Y-102741000D01*
G37*
G36*
X44071000Y-102741000D02*
G01*
X40969000Y-102741000D01*
X40969000Y-101639000D01*
X44071000Y-101639000D01*
X44071000Y-102741000D01*
X44071000Y-102741000D01*
G37*
G36*
X91622274Y-100927665D02*
G01*
X91659967Y-100939099D01*
X91694703Y-100957666D01*
X91725148Y-100982652D01*
X91750134Y-101013097D01*
X91768701Y-101047833D01*
X91780135Y-101085526D01*
X91784600Y-101130861D01*
X91784600Y-101967539D01*
X91780135Y-102012874D01*
X91768701Y-102050567D01*
X91750134Y-102085303D01*
X91725148Y-102115748D01*
X91694703Y-102140734D01*
X91659967Y-102159301D01*
X91622274Y-102170735D01*
X91576939Y-102175200D01*
X90490261Y-102175200D01*
X90444926Y-102170735D01*
X90407233Y-102159301D01*
X90372497Y-102140734D01*
X90342052Y-102115748D01*
X90317066Y-102085303D01*
X90298499Y-102050567D01*
X90287065Y-102012874D01*
X90282600Y-101967539D01*
X90282600Y-101130861D01*
X90287065Y-101085526D01*
X90298499Y-101047833D01*
X90317066Y-101013097D01*
X90342052Y-100982652D01*
X90372497Y-100957666D01*
X90407233Y-100939099D01*
X90444926Y-100927665D01*
X90490261Y-100923200D01*
X91576939Y-100923200D01*
X91622274Y-100927665D01*
X91622274Y-100927665D01*
G37*
G36*
X89586068Y-101093765D02*
G01*
X89624738Y-101105496D01*
X89660377Y-101124546D01*
X89691617Y-101150183D01*
X89717254Y-101181423D01*
X89736304Y-101217062D01*
X89748035Y-101255732D01*
X89752600Y-101302088D01*
X89752600Y-101953312D01*
X89748035Y-101999668D01*
X89736304Y-102038338D01*
X89717254Y-102073977D01*
X89691617Y-102105217D01*
X89660377Y-102130854D01*
X89624738Y-102149904D01*
X89586068Y-102161635D01*
X89539712Y-102166200D01*
X88463488Y-102166200D01*
X88417132Y-102161635D01*
X88378462Y-102149904D01*
X88342823Y-102130854D01*
X88311583Y-102105217D01*
X88285946Y-102073977D01*
X88266896Y-102038338D01*
X88255165Y-101999668D01*
X88250600Y-101953312D01*
X88250600Y-101302088D01*
X88255165Y-101255732D01*
X88266896Y-101217062D01*
X88285946Y-101181423D01*
X88311583Y-101150183D01*
X88342823Y-101124546D01*
X88378462Y-101105496D01*
X88417132Y-101093765D01*
X88463488Y-101089200D01*
X89539712Y-101089200D01*
X89586068Y-101093765D01*
X89586068Y-101093765D01*
G37*
G36*
X87554068Y-101093765D02*
G01*
X87592738Y-101105496D01*
X87628377Y-101124546D01*
X87659617Y-101150183D01*
X87685254Y-101181423D01*
X87704304Y-101217062D01*
X87716035Y-101255732D01*
X87720600Y-101302088D01*
X87720600Y-101953312D01*
X87716035Y-101999668D01*
X87704304Y-102038338D01*
X87685254Y-102073977D01*
X87659617Y-102105217D01*
X87628377Y-102130854D01*
X87592738Y-102149904D01*
X87554068Y-102161635D01*
X87507712Y-102166200D01*
X86431488Y-102166200D01*
X86385132Y-102161635D01*
X86346462Y-102149904D01*
X86310823Y-102130854D01*
X86279583Y-102105217D01*
X86253946Y-102073977D01*
X86234896Y-102038338D01*
X86223165Y-101999668D01*
X86218600Y-101953312D01*
X86218600Y-101302088D01*
X86223165Y-101255732D01*
X86234896Y-101217062D01*
X86253946Y-101181423D01*
X86279583Y-101150183D01*
X86310823Y-101124546D01*
X86346462Y-101105496D01*
X86385132Y-101093765D01*
X86431488Y-101089200D01*
X87507712Y-101089200D01*
X87554068Y-101093765D01*
X87554068Y-101093765D01*
G37*
G36*
X83106274Y-100548665D02*
G01*
X83143967Y-100560099D01*
X83178703Y-100578666D01*
X83209148Y-100603652D01*
X83234134Y-100634097D01*
X83252701Y-100668833D01*
X83264135Y-100706526D01*
X83268600Y-100751861D01*
X83268600Y-101838539D01*
X83264135Y-101883874D01*
X83252701Y-101921567D01*
X83234134Y-101956303D01*
X83209148Y-101986748D01*
X83178703Y-102011734D01*
X83143967Y-102030301D01*
X83106274Y-102041735D01*
X83060939Y-102046200D01*
X82224261Y-102046200D01*
X82178926Y-102041735D01*
X82141233Y-102030301D01*
X82106497Y-102011734D01*
X82076052Y-101986748D01*
X82051066Y-101956303D01*
X82032499Y-101921567D01*
X82021065Y-101883874D01*
X82016600Y-101838539D01*
X82016600Y-100751861D01*
X82021065Y-100706526D01*
X82032499Y-100668833D01*
X82051066Y-100634097D01*
X82076052Y-100603652D01*
X82106497Y-100578666D01*
X82141233Y-100560099D01*
X82178926Y-100548665D01*
X82224261Y-100544200D01*
X83060939Y-100544200D01*
X83106274Y-100548665D01*
X83106274Y-100548665D01*
G37*
G36*
X85156274Y-100548665D02*
G01*
X85193967Y-100560099D01*
X85228703Y-100578666D01*
X85259148Y-100603652D01*
X85284134Y-100634097D01*
X85302701Y-100668833D01*
X85314135Y-100706526D01*
X85318600Y-100751861D01*
X85318600Y-101838539D01*
X85314135Y-101883874D01*
X85302701Y-101921567D01*
X85284134Y-101956303D01*
X85259148Y-101986748D01*
X85228703Y-102011734D01*
X85193967Y-102030301D01*
X85156274Y-102041735D01*
X85110939Y-102046200D01*
X84274261Y-102046200D01*
X84228926Y-102041735D01*
X84191233Y-102030301D01*
X84156497Y-102011734D01*
X84126052Y-101986748D01*
X84101066Y-101956303D01*
X84082499Y-101921567D01*
X84071065Y-101883874D01*
X84066600Y-101838539D01*
X84066600Y-100751861D01*
X84071065Y-100706526D01*
X84082499Y-100668833D01*
X84101066Y-100634097D01*
X84126052Y-100603652D01*
X84156497Y-100578666D01*
X84191233Y-100560099D01*
X84228926Y-100548665D01*
X84274261Y-100544200D01*
X85110939Y-100544200D01*
X85156274Y-100548665D01*
X85156274Y-100548665D01*
G37*
G36*
X79822274Y-100142265D02*
G01*
X79859967Y-100153699D01*
X79894703Y-100172266D01*
X79925148Y-100197252D01*
X79950134Y-100227697D01*
X79968701Y-100262433D01*
X79980135Y-100300126D01*
X79984600Y-100345461D01*
X79984600Y-101432139D01*
X79980135Y-101477474D01*
X79968701Y-101515167D01*
X79950134Y-101549903D01*
X79925148Y-101580348D01*
X79894703Y-101605334D01*
X79859967Y-101623901D01*
X79822274Y-101635335D01*
X79776939Y-101639800D01*
X78940261Y-101639800D01*
X78894926Y-101635335D01*
X78857233Y-101623901D01*
X78822497Y-101605334D01*
X78792052Y-101580348D01*
X78767066Y-101549903D01*
X78748499Y-101515167D01*
X78737065Y-101477474D01*
X78732600Y-101432139D01*
X78732600Y-100345461D01*
X78737065Y-100300126D01*
X78748499Y-100262433D01*
X78767066Y-100227697D01*
X78792052Y-100197252D01*
X78822497Y-100172266D01*
X78857233Y-100153699D01*
X78894926Y-100142265D01*
X78940261Y-100137800D01*
X79776939Y-100137800D01*
X79822274Y-100142265D01*
X79822274Y-100142265D01*
G37*
G36*
X77772274Y-100142265D02*
G01*
X77809967Y-100153699D01*
X77844703Y-100172266D01*
X77875148Y-100197252D01*
X77900134Y-100227697D01*
X77918701Y-100262433D01*
X77930135Y-100300126D01*
X77934600Y-100345461D01*
X77934600Y-101432139D01*
X77930135Y-101477474D01*
X77918701Y-101515167D01*
X77900134Y-101549903D01*
X77875148Y-101580348D01*
X77844703Y-101605334D01*
X77809967Y-101623901D01*
X77772274Y-101635335D01*
X77726939Y-101639800D01*
X76890261Y-101639800D01*
X76844926Y-101635335D01*
X76807233Y-101623901D01*
X76772497Y-101605334D01*
X76742052Y-101580348D01*
X76717066Y-101549903D01*
X76698499Y-101515167D01*
X76687065Y-101477474D01*
X76682600Y-101432139D01*
X76682600Y-100345461D01*
X76687065Y-100300126D01*
X76698499Y-100262433D01*
X76717066Y-100227697D01*
X76742052Y-100197252D01*
X76772497Y-100172266D01*
X76807233Y-100153699D01*
X76844926Y-100142265D01*
X76890261Y-100137800D01*
X77726939Y-100137800D01*
X77772274Y-100142265D01*
X77772274Y-100142265D01*
G37*
G36*
X97771074Y-99646965D02*
G01*
X97808767Y-99658399D01*
X97843503Y-99676966D01*
X97873948Y-99701952D01*
X97898934Y-99732397D01*
X97917501Y-99767133D01*
X97928935Y-99804826D01*
X97933400Y-99850161D01*
X97933400Y-100936839D01*
X97928935Y-100982174D01*
X97917501Y-101019867D01*
X97898934Y-101054603D01*
X97873948Y-101085048D01*
X97843503Y-101110034D01*
X97808767Y-101128601D01*
X97771074Y-101140035D01*
X97725739Y-101144500D01*
X96889061Y-101144500D01*
X96843726Y-101140035D01*
X96806033Y-101128601D01*
X96771297Y-101110034D01*
X96740852Y-101085048D01*
X96715866Y-101054603D01*
X96697299Y-101019867D01*
X96685865Y-100982174D01*
X96681400Y-100936839D01*
X96681400Y-99850161D01*
X96685865Y-99804826D01*
X96697299Y-99767133D01*
X96715866Y-99732397D01*
X96740852Y-99701952D01*
X96771297Y-99676966D01*
X96806033Y-99658399D01*
X96843726Y-99646965D01*
X96889061Y-99642500D01*
X97725739Y-99642500D01*
X97771074Y-99646965D01*
X97771074Y-99646965D01*
G37*
G36*
X99821074Y-99646965D02*
G01*
X99858767Y-99658399D01*
X99893503Y-99676966D01*
X99923948Y-99701952D01*
X99948934Y-99732397D01*
X99967501Y-99767133D01*
X99978935Y-99804826D01*
X99983400Y-99850161D01*
X99983400Y-100936839D01*
X99978935Y-100982174D01*
X99967501Y-101019867D01*
X99948934Y-101054603D01*
X99923948Y-101085048D01*
X99893503Y-101110034D01*
X99858767Y-101128601D01*
X99821074Y-101140035D01*
X99775739Y-101144500D01*
X98939061Y-101144500D01*
X98893726Y-101140035D01*
X98856033Y-101128601D01*
X98821297Y-101110034D01*
X98790852Y-101085048D01*
X98765866Y-101054603D01*
X98747299Y-101019867D01*
X98735865Y-100982174D01*
X98731400Y-100936839D01*
X98731400Y-99850161D01*
X98735865Y-99804826D01*
X98747299Y-99767133D01*
X98765866Y-99732397D01*
X98790852Y-99701952D01*
X98821297Y-99676966D01*
X98856033Y-99658399D01*
X98893726Y-99646965D01*
X98939061Y-99642500D01*
X99775739Y-99642500D01*
X99821074Y-99646965D01*
X99821074Y-99646965D01*
G37*
G36*
X52927154Y-99512345D02*
G01*
X52964847Y-99523779D01*
X52999583Y-99542346D01*
X53030028Y-99567332D01*
X53055014Y-99597777D01*
X53073581Y-99632513D01*
X53085015Y-99670206D01*
X53089480Y-99715541D01*
X53089480Y-100802219D01*
X53085015Y-100847554D01*
X53073581Y-100885247D01*
X53055014Y-100919983D01*
X53030028Y-100950428D01*
X52999583Y-100975414D01*
X52964847Y-100993981D01*
X52927154Y-101005415D01*
X52881819Y-101009880D01*
X52045141Y-101009880D01*
X51999806Y-101005415D01*
X51962113Y-100993981D01*
X51927377Y-100975414D01*
X51896932Y-100950428D01*
X51871946Y-100919983D01*
X51853379Y-100885247D01*
X51841945Y-100847554D01*
X51837480Y-100802219D01*
X51837480Y-99715541D01*
X51841945Y-99670206D01*
X51853379Y-99632513D01*
X51871946Y-99597777D01*
X51896932Y-99567332D01*
X51927377Y-99542346D01*
X51962113Y-99523779D01*
X51999806Y-99512345D01*
X52045141Y-99507880D01*
X52881819Y-99507880D01*
X52927154Y-99512345D01*
X52927154Y-99512345D01*
G37*
G36*
X58963794Y-99512345D02*
G01*
X59001487Y-99523779D01*
X59036223Y-99542346D01*
X59066668Y-99567332D01*
X59091654Y-99597777D01*
X59110221Y-99632513D01*
X59121655Y-99670206D01*
X59126120Y-99715541D01*
X59126120Y-100802219D01*
X59121655Y-100847554D01*
X59110221Y-100885247D01*
X59091654Y-100919983D01*
X59066668Y-100950428D01*
X59036223Y-100975414D01*
X59001487Y-100993981D01*
X58963794Y-101005415D01*
X58918459Y-101009880D01*
X58081781Y-101009880D01*
X58036446Y-101005415D01*
X57998753Y-100993981D01*
X57964017Y-100975414D01*
X57933572Y-100950428D01*
X57908586Y-100919983D01*
X57890019Y-100885247D01*
X57878585Y-100847554D01*
X57874120Y-100802219D01*
X57874120Y-99715541D01*
X57878585Y-99670206D01*
X57890019Y-99632513D01*
X57908586Y-99597777D01*
X57933572Y-99567332D01*
X57964017Y-99542346D01*
X57998753Y-99523779D01*
X58036446Y-99512345D01*
X58081781Y-99507880D01*
X58918459Y-99507880D01*
X58963794Y-99512345D01*
X58963794Y-99512345D01*
G37*
G36*
X54977154Y-99512345D02*
G01*
X55014847Y-99523779D01*
X55049583Y-99542346D01*
X55080028Y-99567332D01*
X55105014Y-99597777D01*
X55123581Y-99632513D01*
X55135015Y-99670206D01*
X55139480Y-99715541D01*
X55139480Y-100802219D01*
X55135015Y-100847554D01*
X55123581Y-100885247D01*
X55105014Y-100919983D01*
X55080028Y-100950428D01*
X55049583Y-100975414D01*
X55014847Y-100993981D01*
X54977154Y-101005415D01*
X54931819Y-101009880D01*
X54095141Y-101009880D01*
X54049806Y-101005415D01*
X54012113Y-100993981D01*
X53977377Y-100975414D01*
X53946932Y-100950428D01*
X53921946Y-100919983D01*
X53903379Y-100885247D01*
X53891945Y-100847554D01*
X53887480Y-100802219D01*
X53887480Y-99715541D01*
X53891945Y-99670206D01*
X53903379Y-99632513D01*
X53921946Y-99597777D01*
X53946932Y-99567332D01*
X53977377Y-99542346D01*
X54012113Y-99523779D01*
X54049806Y-99512345D01*
X54095141Y-99507880D01*
X54931819Y-99507880D01*
X54977154Y-99512345D01*
X54977154Y-99512345D01*
G37*
G36*
X56913794Y-99512345D02*
G01*
X56951487Y-99523779D01*
X56986223Y-99542346D01*
X57016668Y-99567332D01*
X57041654Y-99597777D01*
X57060221Y-99632513D01*
X57071655Y-99670206D01*
X57076120Y-99715541D01*
X57076120Y-100802219D01*
X57071655Y-100847554D01*
X57060221Y-100885247D01*
X57041654Y-100919983D01*
X57016668Y-100950428D01*
X56986223Y-100975414D01*
X56951487Y-100993981D01*
X56913794Y-101005415D01*
X56868459Y-101009880D01*
X56031781Y-101009880D01*
X55986446Y-101005415D01*
X55948753Y-100993981D01*
X55914017Y-100975414D01*
X55883572Y-100950428D01*
X55858586Y-100919983D01*
X55840019Y-100885247D01*
X55828585Y-100847554D01*
X55824120Y-100802219D01*
X55824120Y-99715541D01*
X55828585Y-99670206D01*
X55840019Y-99632513D01*
X55858586Y-99597777D01*
X55883572Y-99567332D01*
X55914017Y-99542346D01*
X55948753Y-99523779D01*
X55986446Y-99512345D01*
X56031781Y-99507880D01*
X56868459Y-99507880D01*
X56913794Y-99512345D01*
X56913794Y-99512345D01*
G37*
G36*
X67595964Y-98500189D02*
G01*
X67787233Y-98579415D01*
X67787235Y-98579416D01*
X67959373Y-98694435D01*
X68105765Y-98840827D01*
X68220785Y-99012967D01*
X68300011Y-99204236D01*
X68340400Y-99407284D01*
X68340400Y-99614316D01*
X68300011Y-99817364D01*
X68286426Y-99850161D01*
X68220784Y-100008635D01*
X68105765Y-100180773D01*
X67959373Y-100327165D01*
X67787235Y-100442184D01*
X67787234Y-100442185D01*
X67787233Y-100442185D01*
X67595964Y-100521411D01*
X67392916Y-100561800D01*
X67185884Y-100561800D01*
X66982836Y-100521411D01*
X66791567Y-100442185D01*
X66791566Y-100442185D01*
X66791565Y-100442184D01*
X66619427Y-100327165D01*
X66473035Y-100180773D01*
X66358016Y-100008635D01*
X66292374Y-99850161D01*
X66278789Y-99817364D01*
X66238400Y-99614316D01*
X66238400Y-99407284D01*
X66278789Y-99204236D01*
X66358015Y-99012967D01*
X66473035Y-98840827D01*
X66619427Y-98694435D01*
X66791565Y-98579416D01*
X66791567Y-98579415D01*
X66982836Y-98500189D01*
X67185884Y-98459800D01*
X67392916Y-98459800D01*
X67595964Y-98500189D01*
X67595964Y-98500189D01*
G37*
G36*
X44071000Y-100201000D02*
G01*
X40969000Y-100201000D01*
X40969000Y-99099000D01*
X44071000Y-99099000D01*
X44071000Y-100201000D01*
X44071000Y-100201000D01*
G37*
G36*
X39031000Y-100201000D02*
G01*
X35929000Y-100201000D01*
X35929000Y-99099000D01*
X39031000Y-99099000D01*
X39031000Y-100201000D01*
X39031000Y-100201000D01*
G37*
G36*
X79822274Y-97957865D02*
G01*
X79859967Y-97969299D01*
X79894703Y-97987866D01*
X79925148Y-98012852D01*
X79950134Y-98043297D01*
X79968701Y-98078033D01*
X79980135Y-98115726D01*
X79984600Y-98161061D01*
X79984600Y-99247739D01*
X79980135Y-99293074D01*
X79968701Y-99330767D01*
X79950134Y-99365503D01*
X79925148Y-99395948D01*
X79894703Y-99420934D01*
X79859967Y-99439501D01*
X79822274Y-99450935D01*
X79776939Y-99455400D01*
X78940261Y-99455400D01*
X78894926Y-99450935D01*
X78857233Y-99439501D01*
X78822497Y-99420934D01*
X78792052Y-99395948D01*
X78767066Y-99365503D01*
X78748499Y-99330767D01*
X78737065Y-99293074D01*
X78732600Y-99247739D01*
X78732600Y-98161061D01*
X78737065Y-98115726D01*
X78748499Y-98078033D01*
X78767066Y-98043297D01*
X78792052Y-98012852D01*
X78822497Y-97987866D01*
X78857233Y-97969299D01*
X78894926Y-97957865D01*
X78940261Y-97953400D01*
X79776939Y-97953400D01*
X79822274Y-97957865D01*
X79822274Y-97957865D01*
G37*
G36*
X77772274Y-97957865D02*
G01*
X77809967Y-97969299D01*
X77844703Y-97987866D01*
X77875148Y-98012852D01*
X77900134Y-98043297D01*
X77918701Y-98078033D01*
X77930135Y-98115726D01*
X77934600Y-98161061D01*
X77934600Y-99247739D01*
X77930135Y-99293074D01*
X77918701Y-99330767D01*
X77900134Y-99365503D01*
X77875148Y-99395948D01*
X77844703Y-99420934D01*
X77809967Y-99439501D01*
X77772274Y-99450935D01*
X77726939Y-99455400D01*
X76890261Y-99455400D01*
X76844926Y-99450935D01*
X76807233Y-99439501D01*
X76772497Y-99420934D01*
X76742052Y-99395948D01*
X76717066Y-99365503D01*
X76698499Y-99330767D01*
X76687065Y-99293074D01*
X76682600Y-99247739D01*
X76682600Y-98161061D01*
X76687065Y-98115726D01*
X76698499Y-98078033D01*
X76717066Y-98043297D01*
X76742052Y-98012852D01*
X76772497Y-97987866D01*
X76807233Y-97969299D01*
X76844926Y-97957865D01*
X76890261Y-97953400D01*
X77726939Y-97953400D01*
X77772274Y-97957865D01*
X77772274Y-97957865D01*
G37*
G36*
X89841600Y-99284200D02*
G01*
X83589600Y-99284200D01*
X83589600Y-97582200D01*
X89841600Y-97582200D01*
X89841600Y-99284200D01*
X89841600Y-99284200D01*
G37*
G36*
X59759468Y-97099445D02*
G01*
X59798138Y-97111176D01*
X59833777Y-97130226D01*
X59865017Y-97155863D01*
X59890654Y-97187103D01*
X59909704Y-97222742D01*
X59921435Y-97261412D01*
X59926000Y-97307768D01*
X59926000Y-98383992D01*
X59921435Y-98430348D01*
X59909704Y-98469018D01*
X59890654Y-98504657D01*
X59865017Y-98535897D01*
X59833777Y-98561534D01*
X59798138Y-98580584D01*
X59759468Y-98592315D01*
X59713112Y-98596880D01*
X59061888Y-98596880D01*
X59015532Y-98592315D01*
X58976862Y-98580584D01*
X58941223Y-98561534D01*
X58909983Y-98535897D01*
X58884346Y-98504657D01*
X58865296Y-98469018D01*
X58853565Y-98430348D01*
X58849000Y-98383992D01*
X58849000Y-97307768D01*
X58853565Y-97261412D01*
X58865296Y-97222742D01*
X58884346Y-97187103D01*
X58909983Y-97155863D01*
X58941223Y-97130226D01*
X58976862Y-97111176D01*
X59015532Y-97099445D01*
X59061888Y-97094880D01*
X59713112Y-97094880D01*
X59759468Y-97099445D01*
X59759468Y-97099445D01*
G37*
G36*
X61634468Y-97099445D02*
G01*
X61673138Y-97111176D01*
X61708777Y-97130226D01*
X61740017Y-97155863D01*
X61765654Y-97187103D01*
X61784704Y-97222742D01*
X61796435Y-97261412D01*
X61801000Y-97307768D01*
X61801000Y-98383992D01*
X61796435Y-98430348D01*
X61784704Y-98469018D01*
X61765654Y-98504657D01*
X61740017Y-98535897D01*
X61708777Y-98561534D01*
X61673138Y-98580584D01*
X61634468Y-98592315D01*
X61588112Y-98596880D01*
X60936888Y-98596880D01*
X60890532Y-98592315D01*
X60851862Y-98580584D01*
X60816223Y-98561534D01*
X60784983Y-98535897D01*
X60759346Y-98504657D01*
X60740296Y-98469018D01*
X60728565Y-98430348D01*
X60724000Y-98383992D01*
X60724000Y-97307768D01*
X60728565Y-97261412D01*
X60740296Y-97222742D01*
X60759346Y-97187103D01*
X60784983Y-97155863D01*
X60816223Y-97130226D01*
X60851862Y-97111176D01*
X60890532Y-97099445D01*
X60936888Y-97094880D01*
X61588112Y-97094880D01*
X61634468Y-97099445D01*
X61634468Y-97099445D01*
G37*
G36*
X39031000Y-97661000D02*
G01*
X35929000Y-97661000D01*
X35929000Y-96559000D01*
X39031000Y-96559000D01*
X39031000Y-97661000D01*
X39031000Y-97661000D01*
G37*
G36*
X44071000Y-97661000D02*
G01*
X40969000Y-97661000D01*
X40969000Y-96559000D01*
X44071000Y-96559000D01*
X44071000Y-97661000D01*
X44071000Y-97661000D01*
G37*
G36*
X70595964Y-95500189D02*
G01*
X70787233Y-95579415D01*
X70787235Y-95579416D01*
X70959373Y-95694435D01*
X71105765Y-95840827D01*
X71220785Y-96012967D01*
X71300011Y-96204236D01*
X71340400Y-96407284D01*
X71340400Y-96614316D01*
X71300011Y-96817364D01*
X71220785Y-97008633D01*
X71220784Y-97008635D01*
X71105765Y-97180773D01*
X70959373Y-97327165D01*
X70787235Y-97442184D01*
X70787234Y-97442185D01*
X70787233Y-97442185D01*
X70595964Y-97521411D01*
X70392916Y-97561800D01*
X70185884Y-97561800D01*
X69982836Y-97521411D01*
X69791567Y-97442185D01*
X69791566Y-97442185D01*
X69791565Y-97442184D01*
X69619427Y-97327165D01*
X69473035Y-97180773D01*
X69358016Y-97008635D01*
X69358015Y-97008633D01*
X69278789Y-96817364D01*
X69238400Y-96614316D01*
X69238400Y-96407284D01*
X69278789Y-96204236D01*
X69358015Y-96012967D01*
X69473035Y-95840827D01*
X69619427Y-95694435D01*
X69791565Y-95579416D01*
X69791567Y-95579415D01*
X69982836Y-95500189D01*
X70185884Y-95459800D01*
X70392916Y-95459800D01*
X70595964Y-95500189D01*
X70595964Y-95500189D01*
G37*
G36*
X67595964Y-95500189D02*
G01*
X67787233Y-95579415D01*
X67787235Y-95579416D01*
X67959373Y-95694435D01*
X68105765Y-95840827D01*
X68220785Y-96012967D01*
X68300011Y-96204236D01*
X68340400Y-96407284D01*
X68340400Y-96614316D01*
X68300011Y-96817364D01*
X68220785Y-97008633D01*
X68220784Y-97008635D01*
X68105765Y-97180773D01*
X67959373Y-97327165D01*
X67787235Y-97442184D01*
X67787234Y-97442185D01*
X67787233Y-97442185D01*
X67595964Y-97521411D01*
X67392916Y-97561800D01*
X67185884Y-97561800D01*
X66982836Y-97521411D01*
X66791567Y-97442185D01*
X66791566Y-97442185D01*
X66791565Y-97442184D01*
X66619427Y-97327165D01*
X66473035Y-97180773D01*
X66358016Y-97008635D01*
X66358015Y-97008633D01*
X66278789Y-96817364D01*
X66238400Y-96614316D01*
X66238400Y-96407284D01*
X66278789Y-96204236D01*
X66358015Y-96012967D01*
X66473035Y-95840827D01*
X66619427Y-95694435D01*
X66791565Y-95579416D01*
X66791567Y-95579415D01*
X66982836Y-95500189D01*
X67185884Y-95459800D01*
X67392916Y-95459800D01*
X67595964Y-95500189D01*
X67595964Y-95500189D01*
G37*
G36*
X83316600Y-97309200D02*
G01*
X81614600Y-97309200D01*
X81614600Y-91057200D01*
X83316600Y-91057200D01*
X83316600Y-97309200D01*
X83316600Y-97309200D01*
G37*
G36*
X91816600Y-97309200D02*
G01*
X90114600Y-97309200D01*
X90114600Y-91057200D01*
X91816600Y-91057200D01*
X91816600Y-97309200D01*
X91816600Y-97309200D01*
G37*
G36*
X61817399Y-96437679D02*
G01*
X55565399Y-96437679D01*
X55565399Y-94735679D01*
X61817399Y-94735679D01*
X61817399Y-96437679D01*
X61817399Y-96437679D01*
G37*
G36*
X39031000Y-95121000D02*
G01*
X35929000Y-95121000D01*
X35929000Y-94019000D01*
X39031000Y-94019000D01*
X39031000Y-95121000D01*
X39031000Y-95121000D01*
G37*
G36*
X44071000Y-95121000D02*
G01*
X40969000Y-95121000D01*
X40969000Y-94019000D01*
X44071000Y-94019000D01*
X44071000Y-95121000D01*
X44071000Y-95121000D01*
G37*
G36*
X55292399Y-94462679D02*
G01*
X53590399Y-94462679D01*
X53590399Y-88210679D01*
X55292399Y-88210679D01*
X55292399Y-94462679D01*
X55292399Y-94462679D01*
G37*
G36*
X63792399Y-94462679D02*
G01*
X62090399Y-94462679D01*
X62090399Y-88210679D01*
X63792399Y-88210679D01*
X63792399Y-94462679D01*
X63792399Y-94462679D01*
G37*
G36*
X76553074Y-92471465D02*
G01*
X76590767Y-92482899D01*
X76625503Y-92501466D01*
X76655948Y-92526452D01*
X76680934Y-92556897D01*
X76699501Y-92591633D01*
X76710935Y-92629326D01*
X76715400Y-92674661D01*
X76715400Y-93761339D01*
X76710935Y-93806674D01*
X76699501Y-93844367D01*
X76680934Y-93879103D01*
X76655948Y-93909548D01*
X76625503Y-93934534D01*
X76590767Y-93953101D01*
X76553074Y-93964535D01*
X76507739Y-93969000D01*
X75671061Y-93969000D01*
X75625726Y-93964535D01*
X75588033Y-93953101D01*
X75553297Y-93934534D01*
X75522852Y-93909548D01*
X75497866Y-93879103D01*
X75479299Y-93844367D01*
X75467865Y-93806674D01*
X75463400Y-93761339D01*
X75463400Y-92674661D01*
X75467865Y-92629326D01*
X75479299Y-92591633D01*
X75497866Y-92556897D01*
X75522852Y-92526452D01*
X75553297Y-92501466D01*
X75588033Y-92482899D01*
X75625726Y-92471465D01*
X75671061Y-92467000D01*
X76507739Y-92467000D01*
X76553074Y-92471465D01*
X76553074Y-92471465D01*
G37*
G36*
X78603074Y-92471465D02*
G01*
X78640767Y-92482899D01*
X78675503Y-92501466D01*
X78705948Y-92526452D01*
X78730934Y-92556897D01*
X78749501Y-92591633D01*
X78760935Y-92629326D01*
X78765400Y-92674661D01*
X78765400Y-93761339D01*
X78760935Y-93806674D01*
X78749501Y-93844367D01*
X78730934Y-93879103D01*
X78705948Y-93909548D01*
X78675503Y-93934534D01*
X78640767Y-93953101D01*
X78603074Y-93964535D01*
X78557739Y-93969000D01*
X77721061Y-93969000D01*
X77675726Y-93964535D01*
X77638033Y-93953101D01*
X77603297Y-93934534D01*
X77572852Y-93909548D01*
X77547866Y-93879103D01*
X77529299Y-93844367D01*
X77517865Y-93806674D01*
X77513400Y-93761339D01*
X77513400Y-92674661D01*
X77517865Y-92629326D01*
X77529299Y-92591633D01*
X77547866Y-92556897D01*
X77572852Y-92526452D01*
X77603297Y-92501466D01*
X77638033Y-92482899D01*
X77675726Y-92471465D01*
X77721061Y-92467000D01*
X78557739Y-92467000D01*
X78603074Y-92471465D01*
X78603074Y-92471465D01*
G37*
G36*
X66656074Y-92395265D02*
G01*
X66693767Y-92406699D01*
X66728503Y-92425266D01*
X66758948Y-92450252D01*
X66783934Y-92480697D01*
X66802501Y-92515433D01*
X66813935Y-92553126D01*
X66818400Y-92598461D01*
X66818400Y-93685139D01*
X66813935Y-93730474D01*
X66802501Y-93768167D01*
X66783934Y-93802903D01*
X66758948Y-93833348D01*
X66728503Y-93858334D01*
X66693767Y-93876901D01*
X66656074Y-93888335D01*
X66610739Y-93892800D01*
X65774061Y-93892800D01*
X65728726Y-93888335D01*
X65691033Y-93876901D01*
X65656297Y-93858334D01*
X65625852Y-93833348D01*
X65600866Y-93802903D01*
X65582299Y-93768167D01*
X65570865Y-93730474D01*
X65566400Y-93685139D01*
X65566400Y-92598461D01*
X65570865Y-92553126D01*
X65582299Y-92515433D01*
X65600866Y-92480697D01*
X65625852Y-92450252D01*
X65656297Y-92425266D01*
X65691033Y-92406699D01*
X65728726Y-92395265D01*
X65774061Y-92390800D01*
X66610739Y-92390800D01*
X66656074Y-92395265D01*
X66656074Y-92395265D01*
G37*
G36*
X68706074Y-92395265D02*
G01*
X68743767Y-92406699D01*
X68778503Y-92425266D01*
X68808948Y-92450252D01*
X68833934Y-92480697D01*
X68852501Y-92515433D01*
X68863935Y-92553126D01*
X68868400Y-92598461D01*
X68868400Y-93685139D01*
X68863935Y-93730474D01*
X68852501Y-93768167D01*
X68833934Y-93802903D01*
X68808948Y-93833348D01*
X68778503Y-93858334D01*
X68743767Y-93876901D01*
X68706074Y-93888335D01*
X68660739Y-93892800D01*
X67824061Y-93892800D01*
X67778726Y-93888335D01*
X67741033Y-93876901D01*
X67706297Y-93858334D01*
X67675852Y-93833348D01*
X67650866Y-93802903D01*
X67632299Y-93768167D01*
X67620865Y-93730474D01*
X67616400Y-93685139D01*
X67616400Y-92598461D01*
X67620865Y-92553126D01*
X67632299Y-92515433D01*
X67650866Y-92480697D01*
X67675852Y-92450252D01*
X67706297Y-92425266D01*
X67741033Y-92406699D01*
X67778726Y-92395265D01*
X67824061Y-92390800D01*
X68660739Y-92390800D01*
X68706074Y-92395265D01*
X68706074Y-92395265D01*
G37*
G36*
X52005574Y-91252265D02*
G01*
X52043267Y-91263699D01*
X52078003Y-91282266D01*
X52108448Y-91307252D01*
X52133434Y-91337697D01*
X52152001Y-91372433D01*
X52163435Y-91410126D01*
X52167900Y-91455461D01*
X52167900Y-92542139D01*
X52163435Y-92587474D01*
X52152001Y-92625167D01*
X52133434Y-92659903D01*
X52108448Y-92690348D01*
X52078003Y-92715334D01*
X52043267Y-92733901D01*
X52005574Y-92745335D01*
X51960239Y-92749800D01*
X51123561Y-92749800D01*
X51078226Y-92745335D01*
X51040533Y-92733901D01*
X51005797Y-92715334D01*
X50975352Y-92690348D01*
X50950366Y-92659903D01*
X50931799Y-92625167D01*
X50920365Y-92587474D01*
X50915900Y-92542139D01*
X50915900Y-91455461D01*
X50920365Y-91410126D01*
X50931799Y-91372433D01*
X50950366Y-91337697D01*
X50975352Y-91307252D01*
X51005797Y-91282266D01*
X51040533Y-91263699D01*
X51078226Y-91252265D01*
X51123561Y-91247800D01*
X51960239Y-91247800D01*
X52005574Y-91252265D01*
X52005574Y-91252265D01*
G37*
G36*
X49955574Y-91252265D02*
G01*
X49993267Y-91263699D01*
X50028003Y-91282266D01*
X50058448Y-91307252D01*
X50083434Y-91337697D01*
X50102001Y-91372433D01*
X50113435Y-91410126D01*
X50117900Y-91455461D01*
X50117900Y-92542139D01*
X50113435Y-92587474D01*
X50102001Y-92625167D01*
X50083434Y-92659903D01*
X50058448Y-92690348D01*
X50028003Y-92715334D01*
X49993267Y-92733901D01*
X49955574Y-92745335D01*
X49910239Y-92749800D01*
X49073561Y-92749800D01*
X49028226Y-92745335D01*
X48990533Y-92733901D01*
X48955797Y-92715334D01*
X48925352Y-92690348D01*
X48900366Y-92659903D01*
X48881799Y-92625167D01*
X48870365Y-92587474D01*
X48865900Y-92542139D01*
X48865900Y-91455461D01*
X48870365Y-91410126D01*
X48881799Y-91372433D01*
X48900366Y-91337697D01*
X48925352Y-91307252D01*
X48955797Y-91282266D01*
X48990533Y-91263699D01*
X49028226Y-91252265D01*
X49073561Y-91247800D01*
X49910239Y-91247800D01*
X49955574Y-91252265D01*
X49955574Y-91252265D01*
G37*
G36*
X44071000Y-92581000D02*
G01*
X40969000Y-92581000D01*
X40969000Y-91479000D01*
X44071000Y-91479000D01*
X44071000Y-92581000D01*
X44071000Y-92581000D01*
G37*
G36*
X39031000Y-92581000D02*
G01*
X35929000Y-92581000D01*
X35929000Y-91479000D01*
X39031000Y-91479000D01*
X39031000Y-92581000D01*
X39031000Y-92581000D01*
G37*
G36*
X78492164Y-89082589D02*
G01*
X78683433Y-89161815D01*
X78683435Y-89161816D01*
X78693465Y-89168518D01*
X78855573Y-89276835D01*
X79001965Y-89423227D01*
X79116985Y-89595367D01*
X79196211Y-89786636D01*
X79236600Y-89989684D01*
X79236600Y-90196716D01*
X79196211Y-90399764D01*
X79116985Y-90591033D01*
X79116984Y-90591035D01*
X79001965Y-90763173D01*
X78855573Y-90909565D01*
X78683435Y-91024584D01*
X78683434Y-91024585D01*
X78683433Y-91024585D01*
X78492164Y-91103811D01*
X78289116Y-91144200D01*
X78082084Y-91144200D01*
X77879036Y-91103811D01*
X77687767Y-91024585D01*
X77687766Y-91024585D01*
X77687765Y-91024584D01*
X77515627Y-90909565D01*
X77369235Y-90763173D01*
X77254216Y-90591035D01*
X77254215Y-90591033D01*
X77174989Y-90399764D01*
X77134600Y-90196716D01*
X77134600Y-89989684D01*
X77174989Y-89786636D01*
X77254215Y-89595367D01*
X77369235Y-89423227D01*
X77515627Y-89276835D01*
X77677735Y-89168518D01*
X77687765Y-89161816D01*
X77687767Y-89161815D01*
X77879036Y-89082589D01*
X78082084Y-89042200D01*
X78289116Y-89042200D01*
X78492164Y-89082589D01*
X78492164Y-89082589D01*
G37*
G36*
X75492164Y-89082589D02*
G01*
X75683433Y-89161815D01*
X75683435Y-89161816D01*
X75693465Y-89168518D01*
X75855573Y-89276835D01*
X76001965Y-89423227D01*
X76116985Y-89595367D01*
X76196211Y-89786636D01*
X76236600Y-89989684D01*
X76236600Y-90196716D01*
X76196211Y-90399764D01*
X76116985Y-90591033D01*
X76116984Y-90591035D01*
X76001965Y-90763173D01*
X75855573Y-90909565D01*
X75683435Y-91024584D01*
X75683434Y-91024585D01*
X75683433Y-91024585D01*
X75492164Y-91103811D01*
X75289116Y-91144200D01*
X75082084Y-91144200D01*
X74879036Y-91103811D01*
X74687767Y-91024585D01*
X74687766Y-91024585D01*
X74687765Y-91024584D01*
X74515627Y-90909565D01*
X74369235Y-90763173D01*
X74254216Y-90591035D01*
X74254215Y-90591033D01*
X74174989Y-90399764D01*
X74134600Y-90196716D01*
X74134600Y-89989684D01*
X74174989Y-89786636D01*
X74254215Y-89595367D01*
X74369235Y-89423227D01*
X74515627Y-89276835D01*
X74677735Y-89168518D01*
X74687765Y-89161816D01*
X74687767Y-89161815D01*
X74879036Y-89082589D01*
X75082084Y-89042200D01*
X75289116Y-89042200D01*
X75492164Y-89082589D01*
X75492164Y-89082589D01*
G37*
G36*
X89841600Y-90784200D02*
G01*
X83589600Y-90784200D01*
X83589600Y-89082200D01*
X89841600Y-89082200D01*
X89841600Y-90784200D01*
X89841600Y-90784200D01*
G37*
G36*
X51996574Y-89093265D02*
G01*
X52034267Y-89104699D01*
X52069003Y-89123266D01*
X52099448Y-89148252D01*
X52124434Y-89178697D01*
X52143001Y-89213433D01*
X52154435Y-89251126D01*
X52158900Y-89296461D01*
X52158900Y-90383139D01*
X52154435Y-90428474D01*
X52143001Y-90466167D01*
X52124434Y-90500903D01*
X52099448Y-90531348D01*
X52069003Y-90556334D01*
X52034267Y-90574901D01*
X51996574Y-90586335D01*
X51951239Y-90590800D01*
X51114561Y-90590800D01*
X51069226Y-90586335D01*
X51031533Y-90574901D01*
X50996797Y-90556334D01*
X50966352Y-90531348D01*
X50941366Y-90500903D01*
X50922799Y-90466167D01*
X50911365Y-90428474D01*
X50906900Y-90383139D01*
X50906900Y-89296461D01*
X50911365Y-89251126D01*
X50922799Y-89213433D01*
X50941366Y-89178697D01*
X50966352Y-89148252D01*
X50996797Y-89123266D01*
X51031533Y-89104699D01*
X51069226Y-89093265D01*
X51114561Y-89088800D01*
X51951239Y-89088800D01*
X51996574Y-89093265D01*
X51996574Y-89093265D01*
G37*
G36*
X49946574Y-89093265D02*
G01*
X49984267Y-89104699D01*
X50019003Y-89123266D01*
X50049448Y-89148252D01*
X50074434Y-89178697D01*
X50093001Y-89213433D01*
X50104435Y-89251126D01*
X50108900Y-89296461D01*
X50108900Y-90383139D01*
X50104435Y-90428474D01*
X50093001Y-90466167D01*
X50074434Y-90500903D01*
X50049448Y-90531348D01*
X50019003Y-90556334D01*
X49984267Y-90574901D01*
X49946574Y-90586335D01*
X49901239Y-90590800D01*
X49064561Y-90590800D01*
X49019226Y-90586335D01*
X48981533Y-90574901D01*
X48946797Y-90556334D01*
X48916352Y-90531348D01*
X48891366Y-90500903D01*
X48872799Y-90466167D01*
X48861365Y-90428474D01*
X48856900Y-90383139D01*
X48856900Y-89296461D01*
X48861365Y-89251126D01*
X48872799Y-89213433D01*
X48891366Y-89178697D01*
X48916352Y-89148252D01*
X48946797Y-89123266D01*
X48981533Y-89104699D01*
X49019226Y-89093265D01*
X49064561Y-89088800D01*
X49901239Y-89088800D01*
X49946574Y-89093265D01*
X49946574Y-89093265D01*
G37*
G36*
X66986274Y-88623365D02*
G01*
X67023967Y-88634799D01*
X67058703Y-88653366D01*
X67089148Y-88678352D01*
X67114134Y-88708797D01*
X67132701Y-88743533D01*
X67144135Y-88781226D01*
X67148600Y-88826561D01*
X67148600Y-89913239D01*
X67144135Y-89958574D01*
X67132701Y-89996267D01*
X67114134Y-90031003D01*
X67089148Y-90061448D01*
X67058703Y-90086434D01*
X67023967Y-90105001D01*
X66986274Y-90116435D01*
X66940939Y-90120900D01*
X66104261Y-90120900D01*
X66058926Y-90116435D01*
X66021233Y-90105001D01*
X65986497Y-90086434D01*
X65956052Y-90061448D01*
X65931066Y-90031003D01*
X65912499Y-89996267D01*
X65901065Y-89958574D01*
X65896600Y-89913239D01*
X65896600Y-88826561D01*
X65901065Y-88781226D01*
X65912499Y-88743533D01*
X65931066Y-88708797D01*
X65956052Y-88678352D01*
X65986497Y-88653366D01*
X66021233Y-88634799D01*
X66058926Y-88623365D01*
X66104261Y-88618900D01*
X66940939Y-88618900D01*
X66986274Y-88623365D01*
X66986274Y-88623365D01*
G37*
G36*
X69036274Y-88623365D02*
G01*
X69073967Y-88634799D01*
X69108703Y-88653366D01*
X69139148Y-88678352D01*
X69164134Y-88708797D01*
X69182701Y-88743533D01*
X69194135Y-88781226D01*
X69198600Y-88826561D01*
X69198600Y-89913239D01*
X69194135Y-89958574D01*
X69182701Y-89996267D01*
X69164134Y-90031003D01*
X69139148Y-90061448D01*
X69108703Y-90086434D01*
X69073967Y-90105001D01*
X69036274Y-90116435D01*
X68990939Y-90120900D01*
X68154261Y-90120900D01*
X68108926Y-90116435D01*
X68071233Y-90105001D01*
X68036497Y-90086434D01*
X68006052Y-90061448D01*
X67981066Y-90031003D01*
X67962499Y-89996267D01*
X67951065Y-89958574D01*
X67946600Y-89913239D01*
X67946600Y-88826561D01*
X67951065Y-88781226D01*
X67962499Y-88743533D01*
X67981066Y-88708797D01*
X68006052Y-88678352D01*
X68036497Y-88653366D01*
X68071233Y-88634799D01*
X68108926Y-88623365D01*
X68154261Y-88618900D01*
X68990939Y-88618900D01*
X69036274Y-88623365D01*
X69036274Y-88623365D01*
G37*
G36*
X44071000Y-90041000D02*
G01*
X40969000Y-90041000D01*
X40969000Y-88939000D01*
X44071000Y-88939000D01*
X44071000Y-90041000D01*
X44071000Y-90041000D01*
G37*
G36*
X39031000Y-90041000D02*
G01*
X35929000Y-90041000D01*
X35929000Y-88939000D01*
X39031000Y-88939000D01*
X39031000Y-90041000D01*
X39031000Y-90041000D01*
G37*
G36*
X99354800Y-89603400D02*
G01*
X96102800Y-89603400D01*
X96102800Y-88501400D01*
X99354800Y-88501400D01*
X99354800Y-89603400D01*
X99354800Y-89603400D01*
G37*
G36*
X104404800Y-89603400D02*
G01*
X101152800Y-89603400D01*
X101152800Y-88501400D01*
X104404800Y-88501400D01*
X104404800Y-89603400D01*
X104404800Y-89603400D01*
G37*
G36*
X86879768Y-86883565D02*
G01*
X86918438Y-86895296D01*
X86954077Y-86914346D01*
X86985317Y-86939983D01*
X87010954Y-86971223D01*
X87030004Y-87006862D01*
X87041735Y-87045532D01*
X87046300Y-87091888D01*
X87046300Y-88168112D01*
X87041735Y-88214468D01*
X87030004Y-88253138D01*
X87010954Y-88288777D01*
X86985317Y-88320017D01*
X86954077Y-88345654D01*
X86918438Y-88364704D01*
X86879768Y-88376435D01*
X86833412Y-88381000D01*
X86182188Y-88381000D01*
X86135832Y-88376435D01*
X86097162Y-88364704D01*
X86061523Y-88345654D01*
X86030283Y-88320017D01*
X86004646Y-88288777D01*
X85985596Y-88253138D01*
X85973865Y-88214468D01*
X85969300Y-88168112D01*
X85969300Y-87091888D01*
X85973865Y-87045532D01*
X85985596Y-87006862D01*
X86004646Y-86971223D01*
X86030283Y-86939983D01*
X86061523Y-86914346D01*
X86097162Y-86895296D01*
X86135832Y-86883565D01*
X86182188Y-86879000D01*
X86833412Y-86879000D01*
X86879768Y-86883565D01*
X86879768Y-86883565D01*
G37*
G36*
X85004768Y-86883565D02*
G01*
X85043438Y-86895296D01*
X85079077Y-86914346D01*
X85110317Y-86939983D01*
X85135954Y-86971223D01*
X85155004Y-87006862D01*
X85166735Y-87045532D01*
X85171300Y-87091888D01*
X85171300Y-88168112D01*
X85166735Y-88214468D01*
X85155004Y-88253138D01*
X85135954Y-88288777D01*
X85110317Y-88320017D01*
X85079077Y-88345654D01*
X85043438Y-88364704D01*
X85004768Y-88376435D01*
X84958412Y-88381000D01*
X84307188Y-88381000D01*
X84260832Y-88376435D01*
X84222162Y-88364704D01*
X84186523Y-88345654D01*
X84155283Y-88320017D01*
X84129646Y-88288777D01*
X84110596Y-88253138D01*
X84098865Y-88214468D01*
X84094300Y-88168112D01*
X84094300Y-87091888D01*
X84098865Y-87045532D01*
X84110596Y-87006862D01*
X84129646Y-86971223D01*
X84155283Y-86939983D01*
X84186523Y-86914346D01*
X84222162Y-86895296D01*
X84260832Y-86883565D01*
X84307188Y-86879000D01*
X84958412Y-86879000D01*
X85004768Y-86883565D01*
X85004768Y-86883565D01*
G37*
G36*
X78492164Y-86082589D02*
G01*
X78683433Y-86161815D01*
X78683435Y-86161816D01*
X78793979Y-86235679D01*
X78855573Y-86276835D01*
X79001965Y-86423227D01*
X79116985Y-86595367D01*
X79196211Y-86786636D01*
X79236600Y-86989684D01*
X79236600Y-87196716D01*
X79196211Y-87399764D01*
X79116985Y-87591033D01*
X79116984Y-87591035D01*
X79001965Y-87763173D01*
X78855573Y-87909565D01*
X78683435Y-88024584D01*
X78683434Y-88024585D01*
X78683433Y-88024585D01*
X78492164Y-88103811D01*
X78289116Y-88144200D01*
X78082084Y-88144200D01*
X77879036Y-88103811D01*
X77687767Y-88024585D01*
X77687766Y-88024585D01*
X77687765Y-88024584D01*
X77515627Y-87909565D01*
X77369235Y-87763173D01*
X77254216Y-87591035D01*
X77254215Y-87591033D01*
X77174989Y-87399764D01*
X77134600Y-87196716D01*
X77134600Y-86989684D01*
X77174989Y-86786636D01*
X77254215Y-86595367D01*
X77369235Y-86423227D01*
X77515627Y-86276835D01*
X77577221Y-86235679D01*
X77687765Y-86161816D01*
X77687767Y-86161815D01*
X77879036Y-86082589D01*
X78082084Y-86042200D01*
X78289116Y-86042200D01*
X78492164Y-86082589D01*
X78492164Y-86082589D01*
G37*
G36*
X66968274Y-86591365D02*
G01*
X67005967Y-86602799D01*
X67040703Y-86621366D01*
X67071148Y-86646352D01*
X67096134Y-86676797D01*
X67114701Y-86711533D01*
X67126135Y-86749226D01*
X67130600Y-86794561D01*
X67130600Y-87881239D01*
X67126135Y-87926574D01*
X67114701Y-87964267D01*
X67096134Y-87999003D01*
X67071148Y-88029448D01*
X67040703Y-88054434D01*
X67005967Y-88073001D01*
X66968274Y-88084435D01*
X66922939Y-88088900D01*
X66086261Y-88088900D01*
X66040926Y-88084435D01*
X66003233Y-88073001D01*
X65968497Y-88054434D01*
X65938052Y-88029448D01*
X65913066Y-87999003D01*
X65894499Y-87964267D01*
X65883065Y-87926574D01*
X65878600Y-87881239D01*
X65878600Y-86794561D01*
X65883065Y-86749226D01*
X65894499Y-86711533D01*
X65913066Y-86676797D01*
X65938052Y-86646352D01*
X65968497Y-86621366D01*
X66003233Y-86602799D01*
X66040926Y-86591365D01*
X66086261Y-86586900D01*
X66922939Y-86586900D01*
X66968274Y-86591365D01*
X66968274Y-86591365D01*
G37*
G36*
X69018274Y-86591365D02*
G01*
X69055967Y-86602799D01*
X69090703Y-86621366D01*
X69121148Y-86646352D01*
X69146134Y-86676797D01*
X69164701Y-86711533D01*
X69176135Y-86749226D01*
X69180600Y-86794561D01*
X69180600Y-87881239D01*
X69176135Y-87926574D01*
X69164701Y-87964267D01*
X69146134Y-87999003D01*
X69121148Y-88029448D01*
X69090703Y-88054434D01*
X69055967Y-88073001D01*
X69018274Y-88084435D01*
X68972939Y-88088900D01*
X68136261Y-88088900D01*
X68090926Y-88084435D01*
X68053233Y-88073001D01*
X68018497Y-88054434D01*
X67988052Y-88029448D01*
X67963066Y-87999003D01*
X67944499Y-87964267D01*
X67933065Y-87926574D01*
X67928600Y-87881239D01*
X67928600Y-86794561D01*
X67933065Y-86749226D01*
X67944499Y-86711533D01*
X67963066Y-86676797D01*
X67988052Y-86646352D01*
X68018497Y-86621366D01*
X68053233Y-86602799D01*
X68090926Y-86591365D01*
X68136261Y-86586900D01*
X68972939Y-86586900D01*
X69018274Y-86591365D01*
X69018274Y-86591365D01*
G37*
G36*
X61817399Y-87937679D02*
G01*
X55565399Y-87937679D01*
X55565399Y-86235679D01*
X61817399Y-86235679D01*
X61817399Y-87937679D01*
X61817399Y-87937679D01*
G37*
G36*
X44071000Y-87501000D02*
G01*
X40969000Y-87501000D01*
X40969000Y-86399000D01*
X44071000Y-86399000D01*
X44071000Y-87501000D01*
X44071000Y-87501000D01*
G37*
G36*
X39031000Y-87501000D02*
G01*
X35929000Y-87501000D01*
X35929000Y-86399000D01*
X39031000Y-86399000D01*
X39031000Y-87501000D01*
X39031000Y-87501000D01*
G37*
G36*
X99354800Y-87063400D02*
G01*
X96102800Y-87063400D01*
X96102800Y-85961400D01*
X99354800Y-85961400D01*
X99354800Y-87063400D01*
X99354800Y-87063400D01*
G37*
G36*
X104404800Y-87063400D02*
G01*
X101152800Y-87063400D01*
X101152800Y-85961400D01*
X104404800Y-85961400D01*
X104404800Y-87063400D01*
X104404800Y-87063400D01*
G37*
G36*
X90938474Y-84622865D02*
G01*
X90976167Y-84634299D01*
X91010903Y-84652866D01*
X91041348Y-84677852D01*
X91066334Y-84708297D01*
X91084901Y-84743033D01*
X91096335Y-84780726D01*
X91100800Y-84826061D01*
X91100800Y-85912739D01*
X91096335Y-85958074D01*
X91084901Y-85995767D01*
X91066334Y-86030503D01*
X91041348Y-86060948D01*
X91010903Y-86085934D01*
X90976167Y-86104501D01*
X90938474Y-86115935D01*
X90893139Y-86120400D01*
X90056461Y-86120400D01*
X90011126Y-86115935D01*
X89973433Y-86104501D01*
X89938697Y-86085934D01*
X89908252Y-86060948D01*
X89883266Y-86030503D01*
X89864699Y-85995767D01*
X89853265Y-85958074D01*
X89848800Y-85912739D01*
X89848800Y-84826061D01*
X89853265Y-84780726D01*
X89864699Y-84743033D01*
X89883266Y-84708297D01*
X89908252Y-84677852D01*
X89938697Y-84652866D01*
X89973433Y-84634299D01*
X90011126Y-84622865D01*
X90056461Y-84618400D01*
X90893139Y-84618400D01*
X90938474Y-84622865D01*
X90938474Y-84622865D01*
G37*
G36*
X92988474Y-84622865D02*
G01*
X93026167Y-84634299D01*
X93060903Y-84652866D01*
X93091348Y-84677852D01*
X93116334Y-84708297D01*
X93134901Y-84743033D01*
X93146335Y-84780726D01*
X93150800Y-84826061D01*
X93150800Y-85912739D01*
X93146335Y-85958074D01*
X93134901Y-85995767D01*
X93116334Y-86030503D01*
X93091348Y-86060948D01*
X93060903Y-86085934D01*
X93026167Y-86104501D01*
X92988474Y-86115935D01*
X92943139Y-86120400D01*
X92106461Y-86120400D01*
X92061126Y-86115935D01*
X92023433Y-86104501D01*
X91988697Y-86085934D01*
X91958252Y-86060948D01*
X91933266Y-86030503D01*
X91914699Y-85995767D01*
X91903265Y-85958074D01*
X91898800Y-85912739D01*
X91898800Y-84826061D01*
X91903265Y-84780726D01*
X91914699Y-84743033D01*
X91933266Y-84708297D01*
X91958252Y-84677852D01*
X91988697Y-84652866D01*
X92023433Y-84634299D01*
X92061126Y-84622865D01*
X92106461Y-84618400D01*
X92943139Y-84618400D01*
X92988474Y-84622865D01*
X92988474Y-84622865D01*
G37*
G36*
X86983474Y-84622865D02*
G01*
X87021167Y-84634299D01*
X87055903Y-84652866D01*
X87086348Y-84677852D01*
X87111334Y-84708297D01*
X87129901Y-84743033D01*
X87141335Y-84780726D01*
X87145800Y-84826061D01*
X87145800Y-85912739D01*
X87141335Y-85958074D01*
X87129901Y-85995767D01*
X87111334Y-86030503D01*
X87086348Y-86060948D01*
X87055903Y-86085934D01*
X87021167Y-86104501D01*
X86983474Y-86115935D01*
X86938139Y-86120400D01*
X86101461Y-86120400D01*
X86056126Y-86115935D01*
X86018433Y-86104501D01*
X85983697Y-86085934D01*
X85953252Y-86060948D01*
X85928266Y-86030503D01*
X85909699Y-85995767D01*
X85898265Y-85958074D01*
X85893800Y-85912739D01*
X85893800Y-84826061D01*
X85898265Y-84780726D01*
X85909699Y-84743033D01*
X85928266Y-84708297D01*
X85953252Y-84677852D01*
X85983697Y-84652866D01*
X86018433Y-84634299D01*
X86056126Y-84622865D01*
X86101461Y-84618400D01*
X86938139Y-84618400D01*
X86983474Y-84622865D01*
X86983474Y-84622865D01*
G37*
G36*
X89033474Y-84622865D02*
G01*
X89071167Y-84634299D01*
X89105903Y-84652866D01*
X89136348Y-84677852D01*
X89161334Y-84708297D01*
X89179901Y-84743033D01*
X89191335Y-84780726D01*
X89195800Y-84826061D01*
X89195800Y-85912739D01*
X89191335Y-85958074D01*
X89179901Y-85995767D01*
X89161334Y-86030503D01*
X89136348Y-86060948D01*
X89105903Y-86085934D01*
X89071167Y-86104501D01*
X89033474Y-86115935D01*
X88988139Y-86120400D01*
X88151461Y-86120400D01*
X88106126Y-86115935D01*
X88068433Y-86104501D01*
X88033697Y-86085934D01*
X88003252Y-86060948D01*
X87978266Y-86030503D01*
X87959699Y-85995767D01*
X87948265Y-85958074D01*
X87943800Y-85912739D01*
X87943800Y-84826061D01*
X87948265Y-84780726D01*
X87959699Y-84743033D01*
X87978266Y-84708297D01*
X88003252Y-84677852D01*
X88033697Y-84652866D01*
X88068433Y-84634299D01*
X88106126Y-84622865D01*
X88151461Y-84618400D01*
X88988139Y-84618400D01*
X89033474Y-84622865D01*
X89033474Y-84622865D01*
G37*
G36*
X69018274Y-84559365D02*
G01*
X69055967Y-84570799D01*
X69090703Y-84589366D01*
X69121148Y-84614352D01*
X69146134Y-84644797D01*
X69164701Y-84679533D01*
X69176135Y-84717226D01*
X69180600Y-84762561D01*
X69180600Y-85849239D01*
X69176135Y-85894574D01*
X69164701Y-85932267D01*
X69146134Y-85967003D01*
X69121148Y-85997448D01*
X69090703Y-86022434D01*
X69055967Y-86041001D01*
X69018274Y-86052435D01*
X68972939Y-86056900D01*
X68136261Y-86056900D01*
X68090926Y-86052435D01*
X68053233Y-86041001D01*
X68018497Y-86022434D01*
X67988052Y-85997448D01*
X67963066Y-85967003D01*
X67944499Y-85932267D01*
X67933065Y-85894574D01*
X67928600Y-85849239D01*
X67928600Y-84762561D01*
X67933065Y-84717226D01*
X67944499Y-84679533D01*
X67963066Y-84644797D01*
X67988052Y-84614352D01*
X68018497Y-84589366D01*
X68053233Y-84570799D01*
X68090926Y-84559365D01*
X68136261Y-84554900D01*
X68972939Y-84554900D01*
X69018274Y-84559365D01*
X69018274Y-84559365D01*
G37*
G36*
X66968274Y-84559365D02*
G01*
X67005967Y-84570799D01*
X67040703Y-84589366D01*
X67071148Y-84614352D01*
X67096134Y-84644797D01*
X67114701Y-84679533D01*
X67126135Y-84717226D01*
X67130600Y-84762561D01*
X67130600Y-85849239D01*
X67126135Y-85894574D01*
X67114701Y-85932267D01*
X67096134Y-85967003D01*
X67071148Y-85997448D01*
X67040703Y-86022434D01*
X67005967Y-86041001D01*
X66968274Y-86052435D01*
X66922939Y-86056900D01*
X66086261Y-86056900D01*
X66040926Y-86052435D01*
X66003233Y-86041001D01*
X65968497Y-86022434D01*
X65938052Y-85997448D01*
X65913066Y-85967003D01*
X65894499Y-85932267D01*
X65883065Y-85894574D01*
X65878600Y-85849239D01*
X65878600Y-84762561D01*
X65883065Y-84717226D01*
X65894499Y-84679533D01*
X65913066Y-84644797D01*
X65938052Y-84614352D01*
X65968497Y-84589366D01*
X66003233Y-84570799D01*
X66040926Y-84559365D01*
X66086261Y-84554900D01*
X66922939Y-84554900D01*
X66968274Y-84559365D01*
X66968274Y-84559365D01*
G37*
G36*
X63608074Y-83759265D02*
G01*
X63645767Y-83770699D01*
X63680503Y-83789266D01*
X63710948Y-83814252D01*
X63735934Y-83844697D01*
X63754501Y-83879433D01*
X63765935Y-83917126D01*
X63770400Y-83962461D01*
X63770400Y-85049139D01*
X63765935Y-85094474D01*
X63754501Y-85132167D01*
X63735934Y-85166903D01*
X63710948Y-85197348D01*
X63680503Y-85222334D01*
X63645767Y-85240901D01*
X63608074Y-85252335D01*
X63562739Y-85256800D01*
X62726061Y-85256800D01*
X62680726Y-85252335D01*
X62643033Y-85240901D01*
X62608297Y-85222334D01*
X62577852Y-85197348D01*
X62552866Y-85166903D01*
X62534299Y-85132167D01*
X62522865Y-85094474D01*
X62518400Y-85049139D01*
X62518400Y-83962461D01*
X62522865Y-83917126D01*
X62534299Y-83879433D01*
X62552866Y-83844697D01*
X62577852Y-83814252D01*
X62608297Y-83789266D01*
X62643033Y-83770699D01*
X62680726Y-83759265D01*
X62726061Y-83754800D01*
X63562739Y-83754800D01*
X63608074Y-83759265D01*
X63608074Y-83759265D01*
G37*
G36*
X61558074Y-83759265D02*
G01*
X61595767Y-83770699D01*
X61630503Y-83789266D01*
X61660948Y-83814252D01*
X61685934Y-83844697D01*
X61704501Y-83879433D01*
X61715935Y-83917126D01*
X61720400Y-83962461D01*
X61720400Y-85049139D01*
X61715935Y-85094474D01*
X61704501Y-85132167D01*
X61685934Y-85166903D01*
X61660948Y-85197348D01*
X61630503Y-85222334D01*
X61595767Y-85240901D01*
X61558074Y-85252335D01*
X61512739Y-85256800D01*
X60676061Y-85256800D01*
X60630726Y-85252335D01*
X60593033Y-85240901D01*
X60558297Y-85222334D01*
X60527852Y-85197348D01*
X60502866Y-85166903D01*
X60484299Y-85132167D01*
X60472865Y-85094474D01*
X60468400Y-85049139D01*
X60468400Y-83962461D01*
X60472865Y-83917126D01*
X60484299Y-83879433D01*
X60502866Y-83844697D01*
X60527852Y-83814252D01*
X60558297Y-83789266D01*
X60593033Y-83770699D01*
X60630726Y-83759265D01*
X60676061Y-83754800D01*
X61512739Y-83754800D01*
X61558074Y-83759265D01*
X61558074Y-83759265D01*
G37*
G36*
X39031000Y-84961000D02*
G01*
X35929000Y-84961000D01*
X35929000Y-83859000D01*
X39031000Y-83859000D01*
X39031000Y-84961000D01*
X39031000Y-84961000D01*
G37*
G36*
X44071000Y-84961000D02*
G01*
X40969000Y-84961000D01*
X40969000Y-83859000D01*
X44071000Y-83859000D01*
X44071000Y-84961000D01*
X44071000Y-84961000D01*
G37*
G36*
X55865400Y-84802800D02*
G01*
X52613400Y-84802800D01*
X52613400Y-83700800D01*
X55865400Y-83700800D01*
X55865400Y-84802800D01*
X55865400Y-84802800D01*
G37*
G36*
X50815400Y-84802800D02*
G01*
X47563400Y-84802800D01*
X47563400Y-83700800D01*
X50815400Y-83700800D01*
X50815400Y-84802800D01*
X50815400Y-84802800D01*
G37*
G36*
X104404800Y-84523400D02*
G01*
X101152800Y-84523400D01*
X101152800Y-83421400D01*
X104404800Y-83421400D01*
X104404800Y-84523400D01*
X104404800Y-84523400D01*
G37*
G36*
X99354800Y-84523400D02*
G01*
X96102800Y-84523400D01*
X96102800Y-83421400D01*
X99354800Y-83421400D01*
X99354800Y-84523400D01*
X99354800Y-84523400D01*
G37*
G36*
X94219800Y-82718400D02*
G01*
X90617800Y-82718400D01*
X90617800Y-81416400D01*
X94219800Y-81416400D01*
X94219800Y-82718400D01*
X94219800Y-82718400D01*
G37*
G36*
X88719800Y-82718400D02*
G01*
X85117800Y-82718400D01*
X85117800Y-81416400D01*
X88719800Y-81416400D01*
X88719800Y-82718400D01*
X88719800Y-82718400D01*
G37*
G36*
X44071000Y-82421000D02*
G01*
X40969000Y-82421000D01*
X40969000Y-81319000D01*
X44071000Y-81319000D01*
X44071000Y-82421000D01*
X44071000Y-82421000D01*
G37*
G36*
X39031000Y-82421000D02*
G01*
X35929000Y-82421000D01*
X35929000Y-81319000D01*
X39031000Y-81319000D01*
X39031000Y-82421000D01*
X39031000Y-82421000D01*
G37*
G36*
X55865400Y-82262800D02*
G01*
X52613400Y-82262800D01*
X52613400Y-81160800D01*
X55865400Y-81160800D01*
X55865400Y-82262800D01*
X55865400Y-82262800D01*
G37*
G36*
X50815400Y-82262800D02*
G01*
X47563400Y-82262800D01*
X47563400Y-81160800D01*
X50815400Y-81160800D01*
X50815400Y-82262800D01*
X50815400Y-82262800D01*
G37*
G36*
X58487974Y-80553165D02*
G01*
X58525667Y-80564599D01*
X58560403Y-80583166D01*
X58590848Y-80608152D01*
X58615834Y-80638597D01*
X58634401Y-80673333D01*
X58645835Y-80711026D01*
X58650300Y-80756361D01*
X58650300Y-81593039D01*
X58645835Y-81638374D01*
X58634401Y-81676067D01*
X58615834Y-81710803D01*
X58590848Y-81741248D01*
X58560403Y-81766234D01*
X58525667Y-81784801D01*
X58487974Y-81796235D01*
X58442639Y-81800700D01*
X57355961Y-81800700D01*
X57310626Y-81796235D01*
X57272933Y-81784801D01*
X57238197Y-81766234D01*
X57207752Y-81741248D01*
X57182766Y-81710803D01*
X57164199Y-81676067D01*
X57152765Y-81638374D01*
X57148300Y-81593039D01*
X57148300Y-80756361D01*
X57152765Y-80711026D01*
X57164199Y-80673333D01*
X57182766Y-80638597D01*
X57207752Y-80608152D01*
X57238197Y-80583166D01*
X57272933Y-80564599D01*
X57310626Y-80553165D01*
X57355961Y-80548700D01*
X58442639Y-80548700D01*
X58487974Y-80553165D01*
X58487974Y-80553165D01*
G37*
G36*
X62725568Y-80718125D02*
G01*
X62764238Y-80729856D01*
X62799877Y-80748906D01*
X62831117Y-80774543D01*
X62856754Y-80805783D01*
X62875804Y-80841422D01*
X62887535Y-80880092D01*
X62892100Y-80926448D01*
X62892100Y-81577672D01*
X62887535Y-81624028D01*
X62875804Y-81662698D01*
X62856754Y-81698337D01*
X62831117Y-81729577D01*
X62799877Y-81755214D01*
X62764238Y-81774264D01*
X62725568Y-81785995D01*
X62679212Y-81790560D01*
X61602988Y-81790560D01*
X61556632Y-81785995D01*
X61517962Y-81774264D01*
X61482323Y-81755214D01*
X61451083Y-81729577D01*
X61425446Y-81698337D01*
X61406396Y-81662698D01*
X61394665Y-81624028D01*
X61390100Y-81577672D01*
X61390100Y-80926448D01*
X61394665Y-80880092D01*
X61406396Y-80841422D01*
X61425446Y-80805783D01*
X61451083Y-80774543D01*
X61482323Y-80748906D01*
X61517962Y-80729856D01*
X61556632Y-80718125D01*
X61602988Y-80713560D01*
X62679212Y-80713560D01*
X62725568Y-80718125D01*
X62725568Y-80718125D01*
G37*
G36*
X60642768Y-80695265D02*
G01*
X60681438Y-80706996D01*
X60717077Y-80726046D01*
X60748317Y-80751683D01*
X60773954Y-80782923D01*
X60793004Y-80818562D01*
X60804735Y-80857232D01*
X60809300Y-80903588D01*
X60809300Y-81554812D01*
X60804735Y-81601168D01*
X60793004Y-81639838D01*
X60773954Y-81675477D01*
X60748317Y-81706717D01*
X60717077Y-81732354D01*
X60681438Y-81751404D01*
X60642768Y-81763135D01*
X60596412Y-81767700D01*
X59520188Y-81767700D01*
X59473832Y-81763135D01*
X59435162Y-81751404D01*
X59399523Y-81732354D01*
X59368283Y-81706717D01*
X59342646Y-81675477D01*
X59323596Y-81639838D01*
X59311865Y-81601168D01*
X59307300Y-81554812D01*
X59307300Y-80903588D01*
X59311865Y-80857232D01*
X59323596Y-80818562D01*
X59342646Y-80782923D01*
X59368283Y-80751683D01*
X59399523Y-80726046D01*
X59435162Y-80706996D01*
X59473832Y-80695265D01*
X59520188Y-80690700D01*
X60596412Y-80690700D01*
X60642768Y-80695265D01*
X60642768Y-80695265D01*
G37*
G36*
X62725568Y-78843125D02*
G01*
X62764238Y-78854856D01*
X62799877Y-78873906D01*
X62831117Y-78899543D01*
X62856754Y-78930783D01*
X62875804Y-78966422D01*
X62887535Y-79005092D01*
X62892100Y-79051448D01*
X62892100Y-79702672D01*
X62887535Y-79749028D01*
X62875804Y-79787698D01*
X62856754Y-79823337D01*
X62831117Y-79854577D01*
X62799877Y-79880214D01*
X62764238Y-79899264D01*
X62725568Y-79910995D01*
X62679212Y-79915560D01*
X61602988Y-79915560D01*
X61556632Y-79910995D01*
X61517962Y-79899264D01*
X61482323Y-79880214D01*
X61451083Y-79854577D01*
X61425446Y-79823337D01*
X61406396Y-79787698D01*
X61394665Y-79749028D01*
X61390100Y-79702672D01*
X61390100Y-79051448D01*
X61394665Y-79005092D01*
X61406396Y-78966422D01*
X61425446Y-78930783D01*
X61451083Y-78899543D01*
X61482323Y-78873906D01*
X61517962Y-78854856D01*
X61556632Y-78843125D01*
X61602988Y-78838560D01*
X62679212Y-78838560D01*
X62725568Y-78843125D01*
X62725568Y-78843125D01*
G37*
G36*
X60642768Y-78820265D02*
G01*
X60681438Y-78831996D01*
X60717077Y-78851046D01*
X60748317Y-78876683D01*
X60773954Y-78907923D01*
X60793004Y-78943562D01*
X60804735Y-78982232D01*
X60809300Y-79028588D01*
X60809300Y-79679812D01*
X60804735Y-79726168D01*
X60793004Y-79764838D01*
X60773954Y-79800477D01*
X60748317Y-79831717D01*
X60717077Y-79857354D01*
X60681438Y-79876404D01*
X60642768Y-79888135D01*
X60596412Y-79892700D01*
X59520188Y-79892700D01*
X59473832Y-79888135D01*
X59435162Y-79876404D01*
X59399523Y-79857354D01*
X59368283Y-79831717D01*
X59342646Y-79800477D01*
X59323596Y-79764838D01*
X59311865Y-79726168D01*
X59307300Y-79679812D01*
X59307300Y-79028588D01*
X59311865Y-78982232D01*
X59323596Y-78943562D01*
X59342646Y-78907923D01*
X59368283Y-78876683D01*
X59399523Y-78851046D01*
X59435162Y-78831996D01*
X59473832Y-78820265D01*
X59520188Y-78815700D01*
X60596412Y-78815700D01*
X60642768Y-78820265D01*
X60642768Y-78820265D01*
G37*
G36*
X58487974Y-78503165D02*
G01*
X58525667Y-78514599D01*
X58560403Y-78533166D01*
X58590848Y-78558152D01*
X58615834Y-78588597D01*
X58634401Y-78623333D01*
X58645835Y-78661026D01*
X58650300Y-78706361D01*
X58650300Y-79543039D01*
X58645835Y-79588374D01*
X58634401Y-79626067D01*
X58615834Y-79660803D01*
X58590848Y-79691248D01*
X58560403Y-79716234D01*
X58525667Y-79734801D01*
X58487974Y-79746235D01*
X58442639Y-79750700D01*
X57355961Y-79750700D01*
X57310626Y-79746235D01*
X57272933Y-79734801D01*
X57238197Y-79716234D01*
X57207752Y-79691248D01*
X57182766Y-79660803D01*
X57164199Y-79626067D01*
X57152765Y-79588374D01*
X57148300Y-79543039D01*
X57148300Y-78706361D01*
X57152765Y-78661026D01*
X57164199Y-78623333D01*
X57182766Y-78588597D01*
X57207752Y-78558152D01*
X57238197Y-78533166D01*
X57272933Y-78514599D01*
X57310626Y-78503165D01*
X57355961Y-78498700D01*
X58442639Y-78498700D01*
X58487974Y-78503165D01*
X58487974Y-78503165D01*
G37*
G36*
X55865400Y-79722800D02*
G01*
X52613400Y-79722800D01*
X52613400Y-78620800D01*
X55865400Y-78620800D01*
X55865400Y-79722800D01*
X55865400Y-79722800D01*
G37*
G36*
X50815400Y-79722800D02*
G01*
X47563400Y-79722800D01*
X47563400Y-78620800D01*
X50815400Y-78620800D01*
X50815400Y-79722800D01*
X50815400Y-79722800D01*
G37*
G36*
X89744098Y-74547033D02*
G01*
X90208350Y-74739332D01*
X90208352Y-74739333D01*
X90626168Y-75018509D01*
X90981491Y-75373832D01*
X91116575Y-75576000D01*
X91260668Y-75791650D01*
X91452967Y-76255902D01*
X91551000Y-76748747D01*
X91551000Y-77251253D01*
X91452967Y-77744098D01*
X91331093Y-78038329D01*
X91260667Y-78208352D01*
X90981491Y-78626168D01*
X90626168Y-78981491D01*
X90208352Y-79260667D01*
X90208351Y-79260668D01*
X90208350Y-79260668D01*
X89744098Y-79452967D01*
X89251253Y-79551000D01*
X88748747Y-79551000D01*
X88255902Y-79452967D01*
X87791650Y-79260668D01*
X87791649Y-79260668D01*
X87791648Y-79260667D01*
X87373832Y-78981491D01*
X87018509Y-78626168D01*
X86739333Y-78208352D01*
X86668907Y-78038329D01*
X86547033Y-77744098D01*
X86449000Y-77251253D01*
X86449000Y-76748747D01*
X86547033Y-76255902D01*
X86739332Y-75791650D01*
X86883425Y-75576000D01*
X87018509Y-75373832D01*
X87373832Y-75018509D01*
X87791648Y-74739333D01*
X87791650Y-74739332D01*
X88255902Y-74547033D01*
X88748747Y-74449000D01*
X89251253Y-74449000D01*
X89744098Y-74547033D01*
X89744098Y-74547033D01*
G37*
G36*
X40744098Y-74547033D02*
G01*
X41208350Y-74739332D01*
X41208352Y-74739333D01*
X41626168Y-75018509D01*
X41981491Y-75373832D01*
X42116575Y-75576000D01*
X42260668Y-75791650D01*
X42452967Y-76255902D01*
X42551000Y-76748747D01*
X42551000Y-77251253D01*
X42452967Y-77744098D01*
X42331093Y-78038329D01*
X42260667Y-78208352D01*
X41981491Y-78626168D01*
X41626168Y-78981491D01*
X41208352Y-79260667D01*
X41208351Y-79260668D01*
X41208350Y-79260668D01*
X40744098Y-79452967D01*
X40251253Y-79551000D01*
X39748747Y-79551000D01*
X39255902Y-79452967D01*
X38791650Y-79260668D01*
X38791649Y-79260668D01*
X38791648Y-79260667D01*
X38373832Y-78981491D01*
X38018509Y-78626168D01*
X37739333Y-78208352D01*
X37668907Y-78038329D01*
X37547033Y-77744098D01*
X37449000Y-77251253D01*
X37449000Y-76748747D01*
X37547033Y-76255902D01*
X37739332Y-75791650D01*
X37883425Y-75576000D01*
X38018509Y-75373832D01*
X38373832Y-75018509D01*
X38791648Y-74739333D01*
X38791650Y-74739332D01*
X39255902Y-74547033D01*
X39748747Y-74449000D01*
X40251253Y-74449000D01*
X40744098Y-74547033D01*
X40744098Y-74547033D01*
G37*
G36*
X77645900Y-78437560D02*
G01*
X74393900Y-78437560D01*
X74393900Y-77335560D01*
X77645900Y-77335560D01*
X77645900Y-78437560D01*
X77645900Y-78437560D01*
G37*
G36*
X72595900Y-78437560D02*
G01*
X69343900Y-78437560D01*
X69343900Y-77335560D01*
X72595900Y-77335560D01*
X72595900Y-78437560D01*
X72595900Y-78437560D01*
G37*
G36*
X53782194Y-74940385D02*
G01*
X53819887Y-74951819D01*
X53854623Y-74970386D01*
X53885068Y-74995372D01*
X53910054Y-75025817D01*
X53928621Y-75060553D01*
X53940055Y-75098246D01*
X53944520Y-75143581D01*
X53944520Y-76230259D01*
X53940055Y-76275594D01*
X53928621Y-76313287D01*
X53910054Y-76348023D01*
X53885068Y-76378468D01*
X53854623Y-76403454D01*
X53819887Y-76422021D01*
X53782194Y-76433455D01*
X53736859Y-76437920D01*
X52900181Y-76437920D01*
X52854846Y-76433455D01*
X52817153Y-76422021D01*
X52782417Y-76403454D01*
X52751972Y-76378468D01*
X52726986Y-76348023D01*
X52708419Y-76313287D01*
X52696985Y-76275594D01*
X52692520Y-76230259D01*
X52692520Y-75143581D01*
X52696985Y-75098246D01*
X52708419Y-75060553D01*
X52726986Y-75025817D01*
X52751972Y-74995372D01*
X52782417Y-74970386D01*
X52817153Y-74951819D01*
X52854846Y-74940385D01*
X52900181Y-74935920D01*
X53736859Y-74935920D01*
X53782194Y-74940385D01*
X53782194Y-74940385D01*
G37*
G36*
X51732194Y-74940385D02*
G01*
X51769887Y-74951819D01*
X51804623Y-74970386D01*
X51835068Y-74995372D01*
X51860054Y-75025817D01*
X51878621Y-75060553D01*
X51890055Y-75098246D01*
X51894520Y-75143581D01*
X51894520Y-76230259D01*
X51890055Y-76275594D01*
X51878621Y-76313287D01*
X51860054Y-76348023D01*
X51835068Y-76378468D01*
X51804623Y-76403454D01*
X51769887Y-76422021D01*
X51732194Y-76433455D01*
X51686859Y-76437920D01*
X50850181Y-76437920D01*
X50804846Y-76433455D01*
X50767153Y-76422021D01*
X50732417Y-76403454D01*
X50701972Y-76378468D01*
X50676986Y-76348023D01*
X50658419Y-76313287D01*
X50646985Y-76275594D01*
X50642520Y-76230259D01*
X50642520Y-75143581D01*
X50646985Y-75098246D01*
X50658419Y-75060553D01*
X50676986Y-75025817D01*
X50701972Y-74995372D01*
X50732417Y-74970386D01*
X50767153Y-74951819D01*
X50804846Y-74940385D01*
X50850181Y-74935920D01*
X51686859Y-74935920D01*
X51732194Y-74940385D01*
X51732194Y-74940385D01*
G37*
G36*
X58799854Y-74937845D02*
G01*
X58837547Y-74949279D01*
X58872283Y-74967846D01*
X58902728Y-74992832D01*
X58927714Y-75023277D01*
X58946281Y-75058013D01*
X58957715Y-75095706D01*
X58962180Y-75141041D01*
X58962180Y-76227719D01*
X58957715Y-76273054D01*
X58946281Y-76310747D01*
X58927714Y-76345483D01*
X58902728Y-76375928D01*
X58872283Y-76400914D01*
X58837547Y-76419481D01*
X58799854Y-76430915D01*
X58754519Y-76435380D01*
X57917841Y-76435380D01*
X57872506Y-76430915D01*
X57834813Y-76419481D01*
X57800077Y-76400914D01*
X57769632Y-76375928D01*
X57744646Y-76345483D01*
X57726079Y-76310747D01*
X57714645Y-76273054D01*
X57710180Y-76227719D01*
X57710180Y-75141041D01*
X57714645Y-75095706D01*
X57726079Y-75058013D01*
X57744646Y-75023277D01*
X57769632Y-74992832D01*
X57800077Y-74967846D01*
X57834813Y-74949279D01*
X57872506Y-74937845D01*
X57917841Y-74933380D01*
X58754519Y-74933380D01*
X58799854Y-74937845D01*
X58799854Y-74937845D01*
G37*
G36*
X56749854Y-74937845D02*
G01*
X56787547Y-74949279D01*
X56822283Y-74967846D01*
X56852728Y-74992832D01*
X56877714Y-75023277D01*
X56896281Y-75058013D01*
X56907715Y-75095706D01*
X56912180Y-75141041D01*
X56912180Y-76227719D01*
X56907715Y-76273054D01*
X56896281Y-76310747D01*
X56877714Y-76345483D01*
X56852728Y-76375928D01*
X56822283Y-76400914D01*
X56787547Y-76419481D01*
X56749854Y-76430915D01*
X56704519Y-76435380D01*
X55867841Y-76435380D01*
X55822506Y-76430915D01*
X55784813Y-76419481D01*
X55750077Y-76400914D01*
X55719632Y-76375928D01*
X55694646Y-76345483D01*
X55676079Y-76310747D01*
X55664645Y-76273054D01*
X55660180Y-76227719D01*
X55660180Y-75141041D01*
X55664645Y-75095706D01*
X55676079Y-75058013D01*
X55694646Y-75023277D01*
X55719632Y-74992832D01*
X55750077Y-74967846D01*
X55784813Y-74949279D01*
X55822506Y-74937845D01*
X55867841Y-74933380D01*
X56704519Y-74933380D01*
X56749854Y-74937845D01*
X56749854Y-74937845D01*
G37*
G36*
X64005694Y-74894665D02*
G01*
X64043387Y-74906099D01*
X64078123Y-74924666D01*
X64108568Y-74949652D01*
X64133554Y-74980097D01*
X64152121Y-75014833D01*
X64163555Y-75052526D01*
X64168020Y-75097861D01*
X64168020Y-76184539D01*
X64163555Y-76229874D01*
X64152121Y-76267567D01*
X64133554Y-76302303D01*
X64108568Y-76332748D01*
X64078123Y-76357734D01*
X64043387Y-76376301D01*
X64005694Y-76387735D01*
X63960359Y-76392200D01*
X63123681Y-76392200D01*
X63078346Y-76387735D01*
X63040653Y-76376301D01*
X63005917Y-76357734D01*
X62975472Y-76332748D01*
X62950486Y-76302303D01*
X62931919Y-76267567D01*
X62920485Y-76229874D01*
X62916020Y-76184539D01*
X62916020Y-75097861D01*
X62920485Y-75052526D01*
X62931919Y-75014833D01*
X62950486Y-74980097D01*
X62975472Y-74949652D01*
X63005917Y-74924666D01*
X63040653Y-74906099D01*
X63078346Y-74894665D01*
X63123681Y-74890200D01*
X63960359Y-74890200D01*
X64005694Y-74894665D01*
X64005694Y-74894665D01*
G37*
G36*
X61955694Y-74894665D02*
G01*
X61993387Y-74906099D01*
X62028123Y-74924666D01*
X62058568Y-74949652D01*
X62083554Y-74980097D01*
X62102121Y-75014833D01*
X62113555Y-75052526D01*
X62118020Y-75097861D01*
X62118020Y-76184539D01*
X62113555Y-76229874D01*
X62102121Y-76267567D01*
X62083554Y-76302303D01*
X62058568Y-76332748D01*
X62028123Y-76357734D01*
X61993387Y-76376301D01*
X61955694Y-76387735D01*
X61910359Y-76392200D01*
X61073681Y-76392200D01*
X61028346Y-76387735D01*
X60990653Y-76376301D01*
X60955917Y-76357734D01*
X60925472Y-76332748D01*
X60900486Y-76302303D01*
X60881919Y-76267567D01*
X60870485Y-76229874D01*
X60866020Y-76184539D01*
X60866020Y-75097861D01*
X60870485Y-75052526D01*
X60881919Y-75014833D01*
X60900486Y-74980097D01*
X60925472Y-74949652D01*
X60955917Y-74924666D01*
X60990653Y-74906099D01*
X61028346Y-74894665D01*
X61073681Y-74890200D01*
X61910359Y-74890200D01*
X61955694Y-74894665D01*
X61955694Y-74894665D01*
G37*
G36*
X77645900Y-75897560D02*
G01*
X74393900Y-75897560D01*
X74393900Y-74795560D01*
X77645900Y-74795560D01*
X77645900Y-75897560D01*
X77645900Y-75897560D01*
G37*
G36*
X72595900Y-75897560D02*
G01*
X69343900Y-75897560D01*
X69343900Y-74795560D01*
X72595900Y-74795560D01*
X72595900Y-75897560D01*
X72595900Y-75897560D01*
G37*
M02*
